<?xml version="1.0" encoding="UTF-8"?>
<svg id="a" data-name="差し替え・追加" xmlns="http://www.w3.org/2000/svg" width="477.9281" height="145.1736" viewBox="0 0 477.9281 145.1736">
  <defs>
    <style>
      .b {
        stroke: #fff;
        stroke-linecap: round;
        stroke-linejoin: round;
        stroke-width: .8504px;
      }

      .b, .c {
        fill: #fff;
      }
    </style>
  </defs>
  <path class="b" d="M34.3441,20.3275c-.3843.8965-.3843,11.8389-.3843,14.0791,0,8.2559,0,11.2637.1924,16.8945,0,.5762.1279,4.3516.1279,4.5439,0,.832,0,3.3916-3.2637,3.3916-1.6641,0-1.9839-.832-1.9839-1.7275,0-.7686.3838-6.0801.4478-6.9121.064-1.5996.3838-21.1816.3838-23.4863,0-.1914-.064-5.5029-.064-5.6309-.064-1.0879-.064-1.1523-.2559-1.1523s-8.1274,9.5352-9.5352,9.5352c-.1279,0-.1919-.0635-.1919-.1279,0-.6396,14.9746-22.0137,14.9746-26.8135,0-1.4727,0-1.6006.4482-1.6006.3198,0,6.3354,3.4561,6.3354,4.3525,0,.3838-.1279.3838-1.0879.7031-.896.3203-1.3438.96-3.0078,3.3926-.7681,1.0879-4.6079,5.8867-4.6079,6.6553,0,.5117.1284.6396,1.6641,1.4072.5122.2568,1.2158.6406.96,1.0879-.1919.4482-.896.8965-1.1519,1.4082ZM67.8139,53.349c2.9434,0,3.3276.0645,4.0957-1.0234,1.9194-2.5596,2.1118-2.8799,2.7515-2.8799.96,0,4.6079,4.1592,4.6079,4.7354,0,.8965-1.3442.8965-3.4561.8965h-28.1577c-5.6318,0-7.4233.1279-8.0635.1279-.2559.0635-1.1519.1914-1.3438.1914-.2563,0-.3843-.1914-.5762-.4473l-1.2158-1.4727c-.2559-.2559-.3198-.3193-.3198-.3838,0-.1279.1279-.1914.2559-.1914.4478,0,2.4316.1914,2.8159.2559,3.1357.1279,5.7593.1914,8.7671.1914h5.1196c1.856,0,1.856-.96,1.856-2.5596,0-1.4082,0-15.2949-.1279-15.8066-.2559-1.0879-1.2798-1.0879-1.856-1.0879h-1.9199c-5.6313,0-7.4873.1279-8.1274.1914-.1919,0-1.1519.1279-1.3438.1279s-.3198-.1279-.5762-.3838l-1.2158-1.4717q-.2559-.3203-.2559-.4482c0-.0635.064-.1279.1919-.1279.4482,0,2.4316.1924,2.8159.1924,3.1357.1279,5.8237.2559,8.8315.2559h1.5996c1.9199,0,1.9839-.8955,1.9839-2.1123,0-1.7275,0-11.8389-.064-12.415-.064-1.6631-.6401-1.9199-2.0479-1.9199h-3.2637c-5.6318,0-7.4878.1289-8.1274.1924-.1919,0-1.1519.1279-1.3442.1279-.2559,0-.3198-.1279-.5757-.4482l-1.2158-1.4717c-.2563-.2559-.2563-.3193-.2563-.3838,0-.1279.0645-.1279.1924-.1279.4478,0,2.4316.1924,2.8154.1924,3.1357.1279,5.7598.1914,8.7676.1914h16.1909c2.5596,0,3.5195,0,4.0957-1.0234,1.1519-2.1123,1.2798-2.3682,2.0479-2.3682s5.5674,3.3916,5.5674,4.2236c0,.8955-1.2798.8955-3.3916.8955h-12.8633c-2.1758,0-2.1758.0645-2.1758,5.8877,0,1.1523,0,9.2158.1919,9.7275.2563.832,1.2163.832,1.856.832h2.3682c2.8794,0,3.1997,0,4.0957-1.0879,1.7915-2.1123,1.9839-2.3682,2.6235-2.3682.896,0,4.7998,3.8398,4.7998,4.2236,0,.8965-1.2798.8965-3.3916.8965h-10.4956c-1.9199,0-2.0479.832-2.0479,2.3672,0,1.4082,0,15.3594.1279,15.999.1924,1.0879,1.0879,1.0879,2.0479,1.0879h6.3359ZM60.8383,9.8969c0,1.7275-1.2158,2.8154-2.3042,2.8154-1.5996,0-2.1758-1.5996-2.5596-2.8154-.896-2.4961-2.9438-6.1436-4.1597-7.4883-.5122-.5752-.7681-1.0234-.7041-1.0879.1919-.2559,9.7275,2.624,9.7275,8.5762Z"/>
  <path class="b" d="M109.0316,4.265c-.064-.1924-.4478-.832-.4478-.96,0-.4482,1.2158-.4482,1.5996-.4482,1.728,0,5.1836,1.5996,5.1836,2.9443,0,.6396-1.4077,2.9434-1.5996,3.3916-.4482,1.0234-.96,3.2637-.96,4.1592,0,.1279,0,.3838.2559.3838.1919,0,.3838-.0635,1.792-.5752.5757-.1924,1.4717-.5127,2.3037-.5127.6401,0,1.856.1924,1.856,1.2168,0,2.3672-4.3516,3.6475-6.1436,4.2236-.5122.1279-.6401.1914-.7041,1.1514-.064.1924-.3198,3.584-.3198,6.208,0,1.4717,0,1.8555.832,1.8555.7036,0,5.3115-1.2803,5.3115-3.3281,0-.1914-.2559-.96-.2559-1.1514,0-.1924.1919-.1924.3198-.1924.3198,0,1.6641.3203,1.9839.3203,2.6235.1924,4.2876.3203,4.2876,1.7275,0,2.2402-7.1035,5.1836-10.0474,6.1436-1.9839.7041-2.1758.7686-2.1758,1.4082,0,1.2158.7041,8.5752.7681,9.2158.2559,2.1113.2559,2.3672,1.5996,2.8789,4.9917,2.0479,9.0874,5.4404,9.0874,8.4482,0,1.6631-1.1519,2.6875-2.1758,2.6875-.896,0-1.1519-.3203-3.4556-3.0723-1.2798-1.5996-3.7759-3.4551-4.48-3.4551-.3838,0-.5117.3193-.8315,1.0234-1.3442,3.0078-5.6318,6.4639-10.8794,6.4639-6.0156,0-8.1914-4.2881-8.1914-6.9121,0-3.8389,3.9038-6.7832,11.519-6.7832.5762,0,2.9438.1924,3.3921.1924.7036,0,.7036-.1924.7036-2.3682,0-1.2803-.064-5.5674-.1279-7.2949,0-.5762,0-.96-.6401-.96-.8955,0-4.7354.3193-5.5674.3193-1.4717,0-5.9517.0645-8.8315-2.624-.8955-.8955-1.8555-2.4316-1.8555-2.9434,0-.1279,0-.2559.1919-.2559.3838,0,2.1118.7676,2.4316.8955,2.8799.96,5.7598,1.1523,7.7437,1.1523,1.5356,0,5.8232,0,6.2715-1.2158.064-.1924.5757-8.5752.5757-8.6396,0-.3203-.3198-.3203-1.3438-.3838-4.5435-.3203-8.5752-3.584-8.5752-6.0801,0-.1279.064-.4473.2559-.4473.064,0,1.6001.8955,1.792,1.0234,2.8154,1.7275,5.2476,1.7275,6.2075,1.7275,1.3438,0,1.9839-.3193,2.1118-.959.1919-.6406.3838-4.2881.3838-5.6318,0-1.2803-.832-3.2637-1.1519-3.9678ZM102.5683,45.5424c-.1279,0-6.8477,0-6.8477,3.6475,0,2.4316,3.3276,3.1992,5.1196,3.1992,2.1118,0,4.8638-1.0234,6.3354-2.3672,1.1519-1.0244,1.728-2.5605,1.4722-3.1357-.4482-1.0879-4.9277-1.3438-6.0796-1.3438Z"/>
  <path class="b" d="M147.1132,19.56c0,.5117-.1279.7041-.7676,2.5596-.896,2.4961-1.5361,4.8633-1.5361,8.2559,0,6.4629,3.3276,11.1348,5.3115,11.1348,1.0879,0,1.3442-.3203,3.2637-3.5195.3843-.6396,1.4722-2.1758,1.9839-2.1758.1924,0,.3203.2559.3203.5117s-.1279,1.0879-.1919,1.2803c-.7041,2.9434-.832,3.5195-.832,4.8633,0,1.0879.1919,1.9199.3838,2.5596.1919.7041.5122,1.792.5122,2.1123,0,1.2793-1.3442,1.9834-2.4321,1.9834-4.0957,0-12.1592-6.7197-12.1592-18.9424,0-1.792.896-9.6631.896-11.3271,0-1.2803-.2559-3.0078-.4478-3.7119-.4482-1.5996-.5122-1.792-.5122-2.1758,0-.1914.2563-.2559.3843-.2559,2.9438,0,5.8232,5.1191,5.8232,6.8477ZM178.3432,21.0316c3.2637,2.624,5.6953,7.168,5.6953,12.2236,0,1.2158-.1279,4.2236-3.1997,4.2236-3.1357,0-3.1357-3.4561-3.1357-4.2881,0-5.3115,0-7.999-3.3916-11.3916-.5122-.5117-3.0718-2.4951-3.0718-2.8799,0-.1914.2559-.3193.5757-.3193.0645,0,3.7759.1914,6.5278,2.4316Z"/>
  <path class="b" d="M223.1449,12.1361c0,.1924.1279.4482.1279.7041.2563,2.0479.6401,4.0957.6401,6.9111,0,4.2881-.96,10.2393-6.5913,18.751-5.1196,7.8076-8.3838,9.3438-10.9434,9.3438-4.2236,0-7.9995-6.5918-7.9995-14.3994,0-3.3916.7041-9.8555,7.1035-16.3184,8.1274-8.3193,16.7026-8.3193,20.4146-8.3193,5.8237,0,8.5112,1.1514,10.3032,2.0479,6.9116,3.3916,11.1353,10.2393,11.1353,18.6221,0,8.3193-4.7998,18.5586-16.127,22.5264-5.4395,1.9199-9.6631,2.3682-10.623,2.3682-.2559,0-.6401-.0645-.6401-.4482,0-.1914.1279-.2559,1.728-.8955,6.6553-2.624,20.5425-8.1279,20.5425-24.0625,0-2.4961-.2559-17.7266-17.7266-17.7266-1.2803,0-1.3442.5117-1.3442.8955ZM202.3466,31.7826c0,4.1602,1.6641,9.8555,5.5674,9.8555,1.856,0,3.3921-.7676,7.8076-7.4238,3.3916-5.1836,6.2715-12.2871,6.2715-18.6221,0-3.8398-.2559-4.1602-1.0879-4.1602-6.0796,0-18.5586,8.2559-18.5586,20.3506Z"/>
  <path class="b" d="M278.122,18.6c-1.9199,0-2.0479.1279-2.0479,6.335,0,1.0879.1919,1.4082.832,1.6006,5.1196,1.7275,9.0234,4.543,9.0234,7.5508,0,1.3447-.96,2.8799-2.4961,2.8799-1.0879,0-1.2158-.3193-2.1758-3.2637-1.0879-3.2637-3.7119-6.0791-4.7358-6.0791-.5117,0-.5117.6396-.5117,1.3438,0,1.0234-.064,6.0156-.064,7.167,0,1.9199,0,6.0801.1919,12.0957,0,1.0234.3198,6.0156.3198,7.167,0,.96,0,3.9043-3.2637,3.9043-1.4717,0-1.4717-1.3438-1.4717-2.1123,0-.4482.3198-8.6396.3838-9.5996.064-2.3037.3198-14.4629.3198-17.0225,0-.3193,0-.96-.3198-.96-.1919,0-.3198.1924-1.2798,2.0479-3.2637,6.2715-8.7036,14.0156-9.9834,14.0156-.1919,0-.3838-.1279-.3838-.3848,0-.2559,1.2798-1.9199,1.4717-2.3037,6.2715-10.4951,9.7275-22.5898,9.7275-23.4219,0-.96-.896-.96-1.2803-.96-1.2798,0-4.6714.0635-6.0151.1279-.1924.0635-1.0879.1914-1.3442.1914-.1919,0-.3198-.1279-.5757-.4473l-1.2158-1.4717q-.2563-.3203-.2563-.3848c0-.1279.1279-.1914.1919-.1914.3843,0,1.9839.1914,2.3682.1914.7036.0645,5.6953.2568,7.2314.2568,1.7275,0,1.792-.7041,1.792-1.8564,0-4.7354,0-9.7275-.1924-10.9434-.064-.2559-.3198-1.6641-.3198-1.9834,0-.3203.2559-.4482.5122-.4482.96,0,2.8154.5762,4.2236,1.0244,1.6636.5752,1.8555.6396,1.8555,1.0879,0,.2559-.1279.5752-.3838.832-.96.8311-1.2798,1.0879-1.5356,1.6631-.3843.8965-.4482,8.0635-.4482,8.96,0,.5117,0,1.6641,1.5361,1.6641.1919,0,1.2798,0,1.7915-.4482.4482-.3838,2.4961-2.9443,3.1357-2.9443,1.1523,0,4.9277,3.7764,4.9277,4.2236,0,.8965-1.2798.8965-3.4556.8965h-6.0796ZM308.1356,6.8246c1.3442,0,1.792-.2559,2.5601-1.3438,1.0239-1.3438,1.0879-1.4717,1.5356-1.4717.3203,0,4.9277,1.9834,4.9277,3.583,0,.3848-1.5356,1.9844-1.728,2.4326-.6396,1.4717-.6396,15.7422-.6396,18.1104,0,3.7119.7036,22.0146.7036,26.1738,0,2.9443-2.1758,3.7119-3.3276,3.7119-1.2798,0-1.4077-.7676-1.6636-3.0078-.1924-1.2793-1.3442-1.2793-1.856-1.2793h-13.1831c-2.0479,0-2.0479.6396-2.1118,2.3672-.064,1.4717-2.624,2.624-3.6479,2.624-1.0879,0-1.4717-.6396-1.4717-1.4082,0-.1914.1279-1.792.1279-2.1113.064-1.5361.5762-22.7188.5762-23.3584,0-.8965-.0645-22.6543-.1284-24.0625,0-.3203-.1919-1.792-.1919-2.1758s.1279-.8955.5762-.8955c.3198,0,2.6235,1.2158,3.0718,1.4072,1.2798.5762,1.9839.7041,2.9438.7041h12.9268ZM295.081,22.3754c-.7041,0-1.2803,0-1.6641.7041-.3838.5762-.4482,10.1113-.4482,11.5195,0,1.5996,1.2163,1.5996,1.9199,1.5996h14.0791c.896,0,1.856-.0645,1.856-1.792,0-1.1514-.1279-10.5596-.2559-11.0068-.2563-1.0244-1.4082-1.0244-1.792-1.0244h-13.6948ZM294.9525,37.8627c-1.9839,0-1.9839.96-1.9839,2.4951,0,.96.0645,10.4961.3203,10.9434.3838.5762.96.7041,1.9199.7041h13.5029c.4478,0,1.2798,0,1.6641-.7041.2559-.4473.3838-9.8545.3838-10.8145,0-1.6641,0-2.624-1.9839-2.624h-13.8232ZM295.3368,8.4887c-2.0479,0-2.0479,1.3438-2.0479,2.4961,0,.832,0,7.6152.064,7.9346.064.8965.4478,1.7285,1.9839,1.7285h13.439c1.9199,0,2.1118-.5762,2.1118-6.5273,0-4.8643-.1919-5.6318-2.1118-5.6318h-13.439Z"/>
  <path class="b" d="M344.8739,14.3764c2.0479,0,2.3042,0,2.752-.3838.3838-.3848,1.6641-2.4961,2.1118-2.4961.3843,0,4.5439,2.624,4.5439,3.5195,0,1.0244-1.4082,1.0244-3.52,1.0244h-12.0312c-1.5996,0-2.6875,0-4.6714.1914-.2559,0-1.1519.1279-1.3438.1279-.2563,0-.3843-.1279-.5762-.3838l-1.2798-1.4717c-.1919-.3203-.2559-.3203-.2559-.4482,0-.0635.064-.1279.2559-.1279.2559,0,1.6636.1279,1.9199.1279,3.9033.2559,4.3516.3203,6.2715.3203h5.8232ZM343.5941,22.6313c2.1758,0,2.4321,0,2.8799-.7041.832-1.1514,1.0879-1.5352,1.5356-1.5352.6401,0,3.584,2.3037,3.584,2.9434,0,.96-1.3438.96-3.4556.96h-6.5278c-1.5996,0-2.6875,0-4.6714.1924-.2563,0-1.1519.1279-1.3442.1279-.2559,0-.3838-.1279-.5757-.4482l-1.2798-1.4082c-.1924-.3193-.2563-.3838-.2563-.4473,0-.1279.064-.1279.2563-.1279.2559,0,1.6636.1279,1.9194.1279,3.9038.2559,4.3521.3193,6.2075.3193h1.728ZM340.3305,52.0697c-2.0479,0-2.0479,1.0234-2.0479,2.623,0,1.9844-1.856,2.6885-2.9438,2.6885-1.2798,0-1.728-.6406-1.728-1.9199,0-.6396.064-.832.2563-2.752.2559-1.9834.1919-7.8711.1919-10.3037,0-1.0879,0-1.9834-.1919-3.3271-.064-.3203-.3203-1.9844-.3203-2.3037,0-.1924,0-.5127.5762-.5127s2.3677.7041,3.8398,1.4082c1.4717.7686,1.6636.7686,2.6235.7686h3.7119c.5757,0,1.2158,0,1.728-.3848.2559-.1914,1.3438-1.4717,1.7275-1.4717.2559,0,4.0957,1.6641,4.0957,2.624,0,.2559-.064.3203-1.0239,1.0234-.3198.2568-.5117.5127-.5757.832-.1279.5127-.064,4.0957-.064,6.1436,0,2.5605,0,2.8164.064,3.9043,0,.1914.1279,1.5996.1279,1.6641,0,1.7275-1.9839,2.5596-3.1997,2.5596-1.2803,0-1.4082-.6406-1.5361-1.9199-.1279-1.3438-1.2158-1.3438-1.856-1.3438h-3.4556ZM343.4023,29.9272c1.792,0,2.1118,0,3.0078-1.1523.7041-.8955,1.0239-1.0234,1.3438-1.0234.896,0,3.3281,2.3672,3.3281,3.0078,0,.8955-1.4082.8955-3.52.8955h-5.6313c-1.6001,0-2.688,0-4.6719.1279-.2559.0645-1.1519.1924-1.3438.1924-.2563,0-.3843-.1924-.5762-.4482l-1.2798-1.4717c-.1919-.2559-.2559-.3203-.2559-.3838,0-.1279.1279-.1924.2559-.1924.2559,0,1.6636.1924,1.9199.1924,3.9038.2559,4.3516.2559,6.2715.2559h1.1519ZM344.0424,5.6732c2.3037,0,2.6235,0,3.4556-1.2168.5117-.7676.832-.96,1.2158-.96,1.0239,0,3.3276,2.3047,3.3276,2.9443,0,.96-1.3438.96-3.4556.96h-6.0796c-1.5996,0-2.6235,0-4.6714.1279-.1924.0635-1.1523.1924-1.3442.1924-.2559,0-.3838-.1924-.5757-.4482l-1.2158-1.4717c-.2563-.2568-.3203-.3203-.3203-.3848,0-.1279.1279-.1914.2559-.1914.3203,0,1.6641.1914,1.9199.1914,3.9038.2568,4.3521.2568,6.2715.2568h1.2163ZM343.85,50.3412c2.0479,0,2.2402,0,2.2402-6.207,0-3.5195,0-3.9678-2.1763-3.9678h-3.5195q-2.2397,0-2.2397,8.127c0,2.0479.896,2.0479,2.1758,2.0479h3.5195ZM381.2875,35.559q.7681-2.5605,1.2158-2.5605c.3843,0,5.3115,2.8164,5.3115,4.0957,0,.4482-.1919.5127-1.7915.832-1.856.3838-6.7197,2.8799-8.9595,4.0322-.6401.3193-1.0879.5762-1.0879.96,0,.2559,4.4155,8.5752,13.0552,11.8389.3198.1279,1.4077.5762,1.4077.7676,0,.3848-1.9839.5762-2.3037.7041-2.3042.832-3.6479,1.9844-3.8398,2.2402-.064.0635-.6401.6396-.7041.6396-.4478,0-4.0957-3.3916-6.0156-6.2715-3.1997-4.7354-4.6074-9.1514-5.4395-13.9512-.1279-.8955-.1919-1.0879-.4478-1.0879-.2563,0-.3203.1279-.5122,1.4717-3.0078,18.751-19.1348,19.9033-20.0942,19.9033-.1284,0-.4482,0-.4482-.2559,0-.0645.96-.5127,1.1519-.5762,11.6475-4.8643,13.8872-12.2236,14.9111-15.4873.832-2.8154,1.7275-8.7031,1.7275-11.3271,0-.5117-.3838-2.4961-.3838-2.8799s.1919-.5762.7041-.5762c.2559,0,1.0239.1924,2.8799.6406,1.6636.4482,2.3037.5762,2.3037,1.3438,0,.2559-.5762,1.3438-.6401,1.5361-.1279.832-.1919,1.9834-.1919,2.4316,0,4.5439,1.6001,7.6152,2.3677,7.7432.6401.0645,5.1836-4.1592,5.8237-6.207ZM353.0014,31.8471c0-.1279,1.0239-.4482,1.1519-.5117,13.8232-4.4805,14.8472-13.6953,14.8472-20.9912,0-1.1514,0-4.6709-.5762-6.5273-.1279-.3203-.7676-1.7275-.7676-2.0479,0-.3838.1919-.3838.4478-.3838.5122,0,5.0557,1.0879,5.9517,1.4082.6401.1914,1.2798.4473,1.2798,1.0234,0,.4482-.2559.6396-1.3438,1.1523-.3838.1914-.5762.7041-.5762,1.1514-.1279,1.6641-.1919,6.2715-.1919,6.7842,0,4.543,6.7837,11.5186,15.7427,13.7588.5762.1279.96.2559.96.5117,0,.1279-.1279.1924-1.2798.3838-2.0479.3838-3.1357,1.4717-3.4556,2.1123-.3203.6396-.3843.7676-.7041.7676-.7681,0-7.3594-4.2871-10.8789-10.4307-.1924-.3203-.96-1.6641-1.0884-1.6641-.3198,0-.3198.0635-.7036,1.2158-.5762,1.5361-3.9678,11.5186-17.9829,12.543-.1919,0-.832.1279-.832-.2559ZM356.2655,47.2699c-.6401,0-1.9839-.3203-1.9839-2.1123,0-1.1514.3198-1.4717.8315-1.9834,3.1357-3.2002,3.9678-7.6797,3.9678-8.8311,0-.1289,0-.6406.2563-.6406.4478,0,1.5996,3.3916,1.5996,6.0801,0,2.1113-1.792,7.4873-4.6714,7.4873ZM358.6332,21.6078c-1.2158,0-1.792-1.1523-1.792-1.9844,0-.8955.1919-1.1514,1.9199-3.9678,1.6641-2.623,2.624-5.4395,2.688-7.3594.064-.832.064-.96.3838-.96.896,0,1.5361,4.9277,1.5361,5.5039,0,5.6953-3.0078,8.7676-4.7358,8.7676ZM381.0316,7.6566c.1919-.5762.3838-.8955.896-.8955.7676,0,5.0557,2.8154,5.0557,3.7754,0,.5762-.2563.6396-2.3682,1.0234-1.4077.2568-9.0234,3.6484-9.855,3.6484-.1284,0-.2563-.0645-.2563-.2559,0-.0645,2.9438-2.8799,3.2642-3.1357,2.4956-2.4326,2.8794-3.2002,3.2637-4.1602Z"/>
  <path class="b" d="M400.747,29.4789c0-.2559.1919-.3838.96-.8955.4482-.3203,5.6958-4.0322,9.8555-7.5518,10.9434-9.3438,14.9746-16.959,15.2949-18.3662.5117-1.9844.5117-2.2402,1.2798-2.2402.064,0,6.0156,2.8154,6.0156,3.9033,0,.3203-.1279.3848-.7681.832-.3838.1924-.4478.3838-.4478.6406,0,1.9834,11.3271,16.1904,26.4941,20.4785q1.7915.5117,1.7915.8311c0,.3848-.1919.4482-1.7915.96-.832.2568-3.1362,1.0244-4.0957,2.624-.2563.4482-.4482.6406-.832.6406-1.4082,0-15.0391-9.4082-22.2705-22.5908-.7041-1.3438-.832-1.5361-1.0879-1.5361s-1.2798,1.2803-1.792,1.9199c-11.3271,14.207-25.7261,20.0947-28.0298,20.543-.1919.0635-.5762.1279-.5762-.1924ZM418.3456,38.2465c-4.7354,0-6.3354.0635-8.063.1924-.1924,0-1.1523.1279-1.3442.1279-.2559,0-.3198-.1279-.5757-.3848l-1.2163-1.4717c-.1279-.1914-.3198-.3838-.3198-.4482,0-.1279.1279-.1279.2559-.1279.4482,0,2.4321.1924,2.8159.1924,3.1357.1279,6.5278.2559,8.7676.2559h21.1182c2.688,0,3.3921,0,4.9277-2.1113.96-1.3447,1.2158-1.7285,1.792-1.7285.5117,0,.7041.1279,2.1758,1.3438,3.2637,2.6885,3.2637,2.752,3.2637,3.3281,0,.832-.3198.832-3.3276.832h-19.5825c-.6401,0-.896,0-.896.1924,0,0,3.0078,2.5596,3.0078,3.2637q0,.5752-1.9199,1.0879c-.5117.1914-.6401.3838-2.2397,2.4951-1.3438,1.792-3.9678,4.9277-4.3516,5.3115-.2563.3203-.896.96-.896,1.5361s.896.6406,1.1519.6406c.832,0,6.8477-.3848,13.9512-1.0889,4.6074-.4473,5.1191-.5117,5.1191-1.1514,0-.96-3.7754-4.2236-3.7754-4.9912,0-.3203.2559-.3848.4478-.3848.96,0,7.2954,3.5205,8.1274,3.9678,1.728,1.0244,5.6958,3.3281,5.6958,7.3594,0,2.0479-1.2798,3.4561-2.4961,3.4561-1.856,0-3.1997-2.3682-4.3516-4.4795-1.2158-2.1758-1.792-2.3682-2.688-2.3682-2.9434,0-27.5176,4.9277-29.6938,5.8877-.3198.1279-1.5356,1.0244-1.8555,1.0244-.1924,0-.5122-.1289-.6401-.4482-1.2798-2.2402-3.5195-6.208-3.5195-6.7832,0-.4482.3198-.4482.5117-.4482.4482,0,2.4316.3838,2.8159.4482.896.1279,2.6875.2559,3.7759.2559,3.5835,0,4.0312,0,6.6553-5.248,1.5361-3.0713,3.3276-7.6797,3.3276-8.4473,0-1.0879-.832-1.0879-1.9199-1.0879h-4.0317ZM431.6566,26.3432c3.1362,0,3.2642-.1279,4.5439-1.6641,1.0239-1.2158,1.792-2.1758,2.1118-2.1758.5762,0,4.8638,4.0957,4.8638,4.7998s-.3203.7041-3.3921.7041h-14.7188c-3.9038,0-5.7598,0-8.1274.1924-.1919,0-1.1519.1279-1.3438.1279s-.3203-.1279-.5762-.3848l-1.2158-1.4717c-.2559-.2559-.2559-.3193-.2559-.4482,0-.0635.064-.1279.1919-.1279.4478,0,2.4316.1924,2.8159.1924,3.1357.1924,6.2075.2559,8.7671.2559h6.3354Z"/>
  <path class="b" d="M36.1986,114.9906c-.3838,0-.96.1924-.96.7686,0,1.3438,9.0874,12.415,18.2388,15.9346,1.4077.5762,3.4556,1.2803,6.0796,1.8555.7681.1924,1.2798.5127,1.2798.7686s-2.8799,1.4082-3.4556,1.7275c-1.1519.7041-1.728,1.2803-2.4321,2.0479-.1919.1924-.5757.5762-.896.5762-.4478,0-12.1587-6.3359-19.2622-19.7744-.5762-1.1523-.6401-1.2803-1.2803-2.624-.1279-.2559-.3198-.4482-.5117-.4482-.5762,0-.5762.832-.5762,1.0879,0,3.7119.3203,20.0947.3203,23.4229,0,1.5361,0,4.415-3.2642,4.415-1.7915,0-1.7915-1.7275-1.7915-2.4316,0-.7676.2559-4.2871.2559-4.9912.1279-3.0078.3198-15.7432.3198-16.7666,0-.5127,0-1.5361-.7681-1.5361-.4478,0-.6396.2559-2.4316,2.4961-2.5596,3.2637-8.4473,10.5586-20.4146,16.4463-.7681.3838-3.1357,1.5361-3.6475,1.5361-.4482,0-.5762-.2559-.5762-.4482,0-.1279,2.3037-1.7275,2.688-1.9834,12.3511-8.4473,20.2861-18.751,20.2861-21.3105,0-.7686-.7676-.7686-1.5356-.7686h-8.3833c-4.48,0-6.5918.0645-8.1274.1924-.1919,0-1.1519.1279-1.3438.1279-.1924,0-.3203-.1279-.5762-.3838l-1.2158-1.4717q-.2559-.3203-.2559-.4482c0-.1279.064-.1279.1919-.1279.4478,0,2.4316.1914,2.8154.1914,3.1362.1289,5.8237.2568,8.8315.2568h12.6714c1.6636,0,1.7275-.96,1.7275-2.0479v-11.1992c0-1.6641.064-3.1357-1.6636-3.1357h-7.0396c-4.7358,0-6.8477.1279-8.0635.1914-.1919,0-1.1519.1279-1.3438.1279-.2563,0-.3843-.1279-.5762-.3838l-1.2158-1.4717c-.2559-.3203-.3203-.3203-.3203-.4482,0-.0635.1284-.1279.2563-.1279.4478,0,2.4316.1924,2.8154.1924,3.1362.1914,5.7598.2559,8.7676.2559h6.7197c1.6636,0,1.6636-1.1523,1.6636-4.0322,0-.7676-.064-1.6631-.3198-2.4316-.4482-1.4717-.5122-1.6641-.5122-2.0479,0-.5762.064-.7041.4482-.7041.6396,0,6.5273,1.5361,6.5273,2.4316,0,.3203-.1919.5762-.96,1.3447-.5117.5752-.96,1.0234-.96,3.1992,0,1.3438.1924,2.2402,1.728,2.2402h7.1675c1.792,0,2.624,0,3.1357-.1924.7041-.3193,2.8159-3.2637,3.5195-3.2637.3843,0,5.4399,3.5195,5.4399,4.2236,0,.8965-1.2798.8965-3.4561.8965h-15.8066c-1.3438,0-1.792.7031-1.792,2.2393,0,1.8564.1279,10.0479.1279,11.7109,0,1.1523,0,2.4326,1.6641,2.4326,1.6001,0,2.688-1.1523,3.7119-2.6885,1.6636-2.4316,4.4155-7.4229,4.4155-9.9834,0-.7031,0-1.3438.6401-1.3438,1.2798,0,6.2075,2.9443,6.2075,3.9678,0,.3838-1.9839.96-2.3042,1.1523-1.8555,1.6641-5.5034,4.9912-7.2954,6.6553-1.2798,1.1523-1.4077,1.4082-1.4077,1.6641,0,.5762.6401.5762.832.5762h7.3594c2.9438,0,3.2637,0,4.0957-1.0879,1.9199-2.624,2.1118-2.8799,2.688-2.8799.7676,0,5.7593,3.9678,5.7593,4.7354,0,.8955-1.3438.8955-3.4556.8955h-19.1987ZM19.8798,111.599c-1.6641,0-2.0479-.8955-4.0317-5.5029-.4478-1.0879-1.2798-2.3682-2.5596-4.416-.5122-.832-1.4722-2.2402-1.4722-2.3037,0-.1924.1279-.3203.3843-.3203.5117,0,3.1997,1.7275,4.0317,2.2402,3.3916,2.3037,6.0151,4.0312,6.0151,7.0391,0,1.7285-.896,3.2637-2.3677,3.2637Z"/>
  <path class="b" d="M71.6571,104.2397c-.2559-.3203-.3198-.3203-.3198-.4482s.1279-.1279.2559-.1279c1.2158,0,6.6553.3848,7.8071.3848,1.5361,0,1.5361-.5127,1.5361-4.8643,0-1.1514,0-4.415-.1279-6.9756,0-.5762-.3843-3.0078-.3843-3.5195,0-.3838.064-.5117.5122-.5117.064,0,6.6553,1.5361,6.6553,3.1357,0,.2559-.064.3193-1.0239,1.2793-.8315.8965-1.0879,2.4961-1.0879,4.0957,0,2.2402,0,3.4561-.064,5.8877,0,1.0244.1279,1.3438.96,1.3438.7681,0,1.0879-.2559,1.4082-.5752.3198-.3203,1.7915-2.3037,2.2397-2.3037.3838,0,4.8638,3.4551,4.8638,4.0957,0,.6396-.3203.6396-3.3921.6396h-4.2876c-.7681,0-1.5356.1924-1.728.96-.1919.6396-.1919,12.7988-.1919,14.7188,0,3.0723,0,3.3916.6401,3.3916,1.0239,0,7.0396-2.752,7.1675-2.752.1919,0,.2559.1924.2559.2568,0,2.0469-13.5669,8.7031-15.9346,10.4951-1.0244.7676-1.2803,1.2158-1.6641,1.8555-.1279.2559-.5122.96-.96.96-.96,0-1.4077-.7041-1.728-1.1523-.5757-.96-3.0078-4.7988-3.0078-5.5029,0-.3203.2563-.3203,2.2397-.4482.6401-.0645,5.4399-.8955,6.9116-1.3438,1.4082-.3838,1.4082-1.7275,1.4082-2.8164,0-2.6875.2559-14.5264.2559-16.8945,0-1.0879-.2559-1.7275-1.4077-1.7275-.0645,0-3.1362.0635-4.6719.1924-.1919,0-1.1519.1279-1.3438.1279-.2563,0-.3843-.1279-.5762-.3848l-1.2158-1.4717ZM88.808,115.3754q-.2563-.3203-.2563-.4482c0-.1279.064-.1279.2563-.1279.3838,0,2.3677.1914,2.8154.1914,3.1357.1279,5.7598.2568,8.7676.2568h17.4067c3.0078,0,3.3276,0,4.0957-1.0879,1.792-2.5605,1.9839-2.8164,2.752-2.8164,1.0239,0,1.9839.7041,4.7993,2.9443,1.5361,1.1514,1.728,1.2793,1.728,1.791,0,.8965-1.2798.8965-3.3916.8965h-20.6064c-1.3442,0-2.0479.5762-2.3042.832-.2559.2559-2.4956,2.752-2.4956,3.5195,0,.832,1.4077.832,2.2397.832h13.1831c.7681,0,2.8159,0,3.5835-.3838.5762-.2559,2.4961-2.4961,3.0718-2.4961.6401,0,4.9917,2.9434,4.9917,3.6475,0,.5127-.1279.5762-1.1519,1.2803-1.0879.7676-1.1519,1.3438-1.9839,6.5918-1.1519,7.7432-2.1118,9.9189-3.4556,11.2627-1.9199,1.792-5.3755,2.1758-6.0156,2.1758-.832,0-.896-.0635-1.1519-1.0879-.3843-1.5361-1.5361-2.624-2.3677-3.0713-.1284-.0645-.896-.5127-.896-.7686s.3198-.2559.4478-.2559c.3198,0,1.6001.1924,1.856.1924,3.4556,0,5.0557,0,6.0796-3.584.7041-2.4961,1.5356-8.7676,1.5356-10.623,0-1.2158-.6396-1.2158-1.8555-1.2158-1.4082,0-1.728.2559-2.5601,2.1113-4.2236,9.4717-13.439,15.0391-14.335,15.6152-.896.5117-4.0317,1.5361-4.3516,1.5361-.1919,0-.5122-.0645-.5122-.3203,0-.1924.7681-.7676,1.0879-.96,8.4478-5.9512,13.1191-15.2305,13.1191-17.1504,0-.832-.5117-.832-2.1758-.832-1.1519,0-1.2798.1914-2.4956,2.0479-7.0396,10.5586-15.3589,12.8633-16.3828,12.8633-.064,0-.1279-.0645-.1279-.1289,0-.2559,2.6235-2.1758,3.1357-2.5596,3.5835-3.0713,5.6953-5.6318,7.7432-9.2148.5762-1.0879,1.0239-1.792,1.0239-2.3037,0-.7041-.6401-.7041-2.1118-.7041-1.4077,0-1.792.4473-3.0078,1.7275-4.6074,4.9922-9.5991,8.7031-10.751,8.7031-.1279,0-.2563-.0635-.2563-.1914s.7681-.96.896-1.1523c7.4238-9.5352,10.4312-14.0146,10.4312-15.167,0-.7676-1.1519-.7676-1.5356-.7676-1.4077,0-4.0317.0635-5.3115.1279-.2559.0635-1.1519.1924-1.4082.1924-.1919,0-.3198-.1924-.5117-.4482l-1.2798-1.4717ZM115.8778,89.8412c1.1519,0,1.5361-.2559,1.9839-.7041,1.0879-1.2158,1.2158-1.3438,1.728-1.3438.4478,0,4.4155,1.8555,4.4155,3.0078,0,.4473-.3838.7031-.5762.8955-.064.0645-.7676.5117-.8315.5762-.3203.5117-.3203,8.959-.3203,10.4307,0,.7041.1279,4.1602.1279,4.9277,0,1.2158,0,4.0957-3.0718,4.0957-.6396,0-1.2798-.1914-1.7275-.7041-.6401-.8311-.832-1.0234-1.792-1.0234h-11.3911c-1.2158,0-1.2798.0645-1.9199.8955-.6401.832-1.856,1.2158-2.8799,1.2158-1.1519,0-1.9839-.4473-1.9839-1.7275,0-.2559.2563-4.2871.3203-6.207.064-1.792-.1284-10.624-.1924-12.2236-.064-.6396-.3838-3.5195-.3838-3.9033,0-.1279.064-.4482.3838-.4482.2563,0,2.4321,1.0244,2.752,1.1523,1.9199.832,2.0479,1.0879,3.3276,1.0879h12.0312ZM104.2309,91.5043c-1.856,0-1.856.5127-1.856,5.0557,0,1.5361.4478,2.1123,1.9199,2.1123h11.519c.96,0,1.728-.1924,1.856-1.5361.064-.5762,0-3.1992,0-3.8398,0-1.5996-.832-1.792-1.9199-1.792h-11.519ZM104.2309,100.3998c-1.4082,0-1.792.7686-1.792,1.7285,0,6.1436.3838,6.1436,2.0479,6.1436h11.1992c1.728,0,1.856-.3848,1.856-6.1436,0-.5762,0-1.7285-1.856-1.7285h-11.4551Z"/>
  <path class="b" d="M170.3427,108.975c1.4722,0,2.1123,0,2.1123-.7676,0-.0635-1.4722-3.3916-8.3838-8.959-1.7275-1.4082-1.9199-1.5361-1.9199-1.792,0-.1924.2563-.1924.3203-.1924.2559,0,3.5835.8965,6.0796,1.8564.96.3193,5.7593,2.2393,5.9517,2.2393.5757,0,.8315.0645,2.9434-2.5596.7681-.8955,3.6479-4.8633,3.6479-5.6318,0-.7041-.7681-.7041-1.5356-.7041h-18.5591c-1.5356,0-5.8232,0-8.063.1924-.1924,0-1.1523.1279-1.3442.1279-.2559,0-.3838-.1279-.5757-.3838l-1.2163-1.4717q-.3198-.3203-.3198-.4482c0-.1279.1279-.1279.2559-.1279.3843,0,2.3682.1914,2.8159.1914,1.856.1289,5.1196.2568,8.7676.2568h18.9424c1.9839,0,2.688,0,3.1997-.5762.96-1.1523,1.5361-1.792,2.0479-1.792,1.0239,0,6.3999,3.1992,6.3999,4.2881,0,.6396-.2563.7031-2.688,1.2158-1.4077.2559-2.4316.8955-11.4551,6.9756-1.856,1.2158-1.9839,1.2793-1.9839,1.8555,0,.3203.1279.5117.3838.8955.3843.5762.7041,1.2803.7041,2.1758,0,.2568-.064.7686-.3198,1.2168-.3843.6396-.5122.8311-.5122,1.2793,0,.6396.5762.6396,1.2158.6396h11.3911c2.8159,0,3.0078-.1279,3.2642-.3193,1.2158-.96,1.5996-1.2803,2.0479-1.2803.8315,0,6.2715,4.5439,6.2715,5.8242,0,.8311-.832,1.0234-1.2163,1.0234-.3838,0-2.3037-.3838-2.7515-.3838-1.728,0-2.2397.3203-6.5918,3.3916-.6396.4482-2.6875,1.9834-2.9438,1.9834-.2559,0-.4478-.1914-.4478-.4473,0-.1279,4.4795-6.208,4.4795-7.3594,0-.7041-.5117-.7686-1.9194-.7686h-12.8633c-1.3438,0-2.4956.0645-2.4956,1.792,0,2.4316.3198,22.0781.3198,22.5908,0,2.3037-.1279,5.1836-1.6641,6.9756-1.2798,1.5996-3.1997,2.3037-3.9678,2.3037-.96,0-1.2798-.5127-2.4956-2.3682-.3838-.6396-1.4722-1.7275-3.0078-2.4316-.6401-.3203-3.8398-1.3438-3.8398-1.9199,0-.2559.5122-.3838.7681-.3838s1.4077.1914,1.6641.1914c1.2158.1279,2.3677.1924,3.5195.1924,2.752,0,3.7119-.1279,4.0957-1.4082.3198-1.2793.3198-9.9834.3198-12.0947,0-1.6641-.1919-9.5996-.1919-11.3916,0-.8955,0-2.0479-1.9199-2.0479h-14.3989c-1.5356,0-5.8232.0645-8.0635.1924-.1919,0-1.1519.1279-1.3438.1279-.2559,0-.3198-.1279-.5757-.3838l-1.2163-1.4717q-.3198-.3203-.3198-.4482c0-.1279.1919-.1279.2559-.1279.3843,0,2.3682.1914,2.8159.1914,1.856.1279,5.1196.2559,8.7676.2559h17.3423Z"/>
  <path class="b" d="M223.1444,125.2943c0,.3838-1.0879,1.4082-1.2798,1.6641-1.0879,1.5352-5.4395,8.4473-6.5273,9.7266-.4482.5762-1.792,2.0488-2.3042,2.0488-.1919,0-.2559-.0645-.2559-.2568,0-.0635,1.9199-4.6709,2.2397-5.5674,1.1519-3.2637,2.3042-6.5273,2.3682-8.3193.064-1.8555.064-2.0479.5757-2.0479.3843,0,2.0479.6396,2.4961.832.896.3838,2.6875,1.2158,2.6875,1.9199ZM236.7118,117.8705c-.1284-.5752-.2563-.96-.896-.96-.5762,0-3.584.6406-4.2876.7041-1.728.2559-1.728.7686-1.728,3.2002,0,2.8154.064,16.7666.064,19.9023,0,3.0713-2.688,3.5195-3.2637,3.5195-1.4082,0-1.4082-1.0879-1.4082-1.5361,0-.8311.3203-4.7354.3203-5.6309.1279-4.6719.3198-12.543.3198-17.1514,0-.832-.1279-1.5352-1.2798-1.5352s-6.0156.4473-7.4878.96c-.2559.1279-1.5356.959-1.8555.959-1.1523,0-1.5361-5.1191-1.5361-5.4395,0-.3193,0-.96.5762-.96.064,0,1.5996.4482,1.7275.5127,1.3442.4473,3.584.8955,6.3999.8955,2.0479,0,2.3037-.1924,2.8794-1.1514,3.2642-5.376,6.9756-14.0156,7.7437-17.9189.3198-1.5361.3198-1.6641.832-1.6641.3198,0,6.2075,2.3682,6.2075,3.7119,0,.5762-.4482.7676-.96.832-.5762.1279-1.1519.1914-2.3037,1.3438-1.728,1.7275-9.9194,14.2705-9.9194,14.5908,0,.1924.1279.2559.1919.3203.2559.0635,4.0317.0635,4.48.0635.9595,0,3.0073-.1279,3.7114-.1914.3198,0,.5762-.1289.5762-.5762,0-.7686-1.792-4.416-1.792-4.5439,0-.2559.1919-.2559.2559-.2559,1.0239,0,7.0396,3.4561,7.0396,8.0635,0,1.4082-.832,2.5596-1.9839,2.5596-1.4077,0-2.2397-.5117-2.6235-2.624ZM222.7606,109.4877c-.896,0-1.4077-.3838-2.1118-2.0479-.2559-.7041-1.6641-3.7119-4.2876-6.8477-.6401-.7686-.7041-.832-.7041-1.0244,0-.1914.1279-.3838.5117-.3838.7681,0,4.1602,1.5996,4.6079,1.5996.832,0,3.0718-7.9346,3.9038-13.0547.1919-1.0234.3198-1.0234.5757-1.0234.4482,0,5.7598,2.1758,5.7598,2.9434,0,.3838-1.6001,1.4082-1.856,1.6641-.7681.832-6.3994,9.5996-6.3994,10.4951,0,.5762.2559.8955.5762,1.2158.7676.832,1.5996,2.5596,1.5996,3.7119,0,1.2793-.7041,2.752-2.1758,2.752ZM241.2553,133.1654c0,1.8564-1.4077,3.2637-2.624,3.2637-1.2798,0-1.4077-.5117-2.3677-4.9912-.5757-2.5596-.7681-2.9443-2.0479-5.5039-.1279-.3193-.3838-.8955-.3838-1.1514s.1919-.3203.3198-.3203c.5762,0,2.5601,1.4717,3.6479,2.5596,1.8555,1.8564,3.4556,4.3516,3.4556,6.1436ZM247.5907,102.5756c-1.4077,0-1.856.1924-2.3677.96-1.4722,2.3037-5.0557,7.8721-6.2075,7.8721-.3203,0-.4482-.1924-.4482-.4482,0-.1279,2.3682-4.6719,2.752-5.5674,2.688-5.7598,5.5034-14.4629,5.5034-17.9189,0-.1279-.064-.7676-.064-.8955,0-.1924.064-.3848.2563-.3848.1919,0,6.9751,2.0479,6.9751,3.3281,0,.6396-.7676,1.0234-1.7275,1.4717-1.0239.4482-5.0557,9.4072-5.0557,9.4717,0,.3838.5117.3838,1.0879.3838h11.7109c1.728,0,1.792,0,2.4961-.5762,1.1519-1.0879,1.2798-1.2158,1.7275-1.2158.7681,0,5.0557,2.3682,5.0557,3.6475,0,.4482-.1919.5127-1.5996,1.6641-.5122.3838-.5122,3.1357-.5122,4.7998-.1279,11.7754-1.856,25.7266-5.4395,31.2939-1.6641,2.624-5.1836,4.0312-6.9116,4.0312-.832,0-1.0239-.5117-1.5996-2.0479-.5762-1.5996-2.0479-3.0078-3.52-4.0312-.896-.5762-1.0239-.6396-1.0239-.96,0-.2559.1919-.2559.2559-.2559.1284,0,1.728.5762,2.0479.6396,1.728.5117,3.0078.96,4.0317.96,2.752,0,4.1597-2.6875,4.9277-5.7598,2.0479-7.7432,2.8799-15.6787,2.8799-23.6777,0-1.0244,0-5.6318-.1919-5.9521-.3838-.832-1.2158-.832-1.9199-.832h-13.1191ZM254.5663,123.2465c0,2.4316-1.5361,4.0957-3.0718,4.0957-1.6001,0-1.792-.7676-2.5601-4.9277-.5757-3.0713-1.5996-5.6953-1.9194-6.3359-.4482-.96-.5122-1.1514-.5122-1.3438,0-.1914,0-.3838.1919-.3838,1.0239,0,4.0317,2.4316,5.0557,3.4561,1.792,1.7275,2.8159,3.5195,2.8159,5.4395Z"/>
  <path class="c" d="M294.6332,136.6215c0,1.4082-.6401,2.624-2.1118,2.624-3.2002,0-6.3999-6.3994-6.3999-16.3193,0-3.7754.3203-6.8477,1.6641-12.543,1.792-7.8711,1.9199-8.1914,1.9199-10.1748,0-2.1758-.3198-3.2637-1.4722-5.3115-.1919-.3848-1.2158-1.8564-1.2158-2.2402s.7681-.5117,1.1519-.5117c3.584,0,6.7837,6.3994,6.7837,7.5508,0,.5127-2.8159,8.3838-3.3276,9.9834-1.2798,4.2236-2.3042,8.1914-2.3042,12.8633,0,.3838,0,4.4795,1.5361,4.4795.5762,0,.6401-.2559,1.792-3.7754.2559-.832,2.1758-6.3994,2.6235-6.3994.2563,0,.2563.4482.2563.5762,0,2.0479-1.792,11.2627-1.792,13.1191,0,.959.896,5.1836.896,6.0791ZM320.039,133.0375c-1.6636,3.5195-5.2476,6.0801-9.5352,6.0801s-7.9995-2.624-7.9995-6.3994c0-.8965,0-7.6797,13.1191-7.8721,1.6001,0,1.6001-.4482,1.6001-4.415,0-.3848-.1919-7.168-.2559-8.96,0-.3838-.0645-1.1514-.5122-1.5361-.1279-.1279-2.624-.1279-2.9438-.1279-7.2314,0-9.4712-5.0557-9.4712-5.6953,0-.1924.064-.4482.3198-.4482s1.4722.7686,1.728.8965c1.792.7676,4.4155,1.2793,7.1675,1.2793q3.5195,0,3.5195-4.2236c0-4.0312,0-5.8232-1.2158-7.2949-.2559-.3203-1.9839-1.7285-1.9839-2.1758,0-.3838.832-1.0879,2.1758-1.0879,1.2803,0,5.5679.8955,5.5679,3.3271,0,.4482-.064.5762-.7041,1.6006-.1919.3193-.3838.832-.3838,1.3438,0,1.9199,3.3276,2.0479,3.7114,2.0479,2.8159.1279,4.9277.1914,4.9277,2.8799,0,3.0078-4.2876,4.8633-6.6553,5.8877-2.3682,1.0234-2.3682,1.0879-2.3682,3.8389,0,1.4082.4482,8.6396.6401,10.3682.2559,2.3672.4478,2.8154,2.0479,3.5195,3.1357,1.3438,9.8555,4.3516,9.8555,8.127,0,1.1523-.896,2.5596-2.3042,2.5596-.7676,0-.96-.2559-2.4956-2.1758-1.856-2.2393-5.1836-4.9277-6.3354-4.3516-.4482.1924-1.0239,2.5596-1.2163,3.0078ZM305.0644,132.2055c0,1.7285,1.9839,2.8164,4.2236,2.8164,3.7759,0,7.6797-3.0723,7.6797-5.248,0-1.0879-.896-1.5996-4.9917-1.5996-3.6479,0-6.9116,2.1758-6.9116,4.0312ZM319.8471,101.9359c0,2.4316.5122,2.4316.96,2.4316.896,0,3.3276-.7676,3.3276-2.2393,0-1.1523-2.1118-1.9844-3.0073-1.9844-.1924,0-.5122.0645-.7681.2559-.2559.1924-.5122.7041-.5122,1.5361Z"/>
  <path class="c" d="M363.1122,131.2455c1.9199,0,11.647-1.3438,11.9673-1.3438,2.4956,0,4.2236,1.7285,4.2236,3.0078,0,3.4561-10.8794,3.7754-14.3989,3.7754-6.3359,0-19.8389-1.1514-19.8389-11.1982,0-2.4326.7041-3.1357.832-3.1357.4482,0,.896,2.0469,1.0239,2.3672,1.792,4.4795,7.7437,6.3994,12.2871,6.3994.4478,0,3.2637.1279,3.9038.1279ZM363.3041,95.4721c.7681,0,4.3516-.1279,5.0557-.1279,4.2236,0,6.2715,4.1602,6.2715,5.1201,0,1.1514-.5757,1.1514-4.9917,1.4717-3.2637.1924-5.6313,1.6641-8.0635,3.0723-.6396.3838-.6396.3193-.8955.3193-.0645,0-.1924,0-.1924-.1279,0-.5762,3.52-3.584,3.52-4.3516,0-.3838-.1919-.4482-2.0479-.7676-8.3193-1.5361-11.2632-5.5684-11.2632-6.208,0-.1914.1919-.1914.3198-.1914.3838,0,1.792.5752,2.1118.6396,2.8799.832,6.5273,1.1514,10.1753,1.1514Z"/>
  <path class="c" d="M409.8969,92.6566c.3198,1.0879,2.1118,3.0713,4.1597,3.5195,2.6875.6406,3.9678.96,3.9678,2.6885,0,3.6475-5.8877,5.3115-10.1113,6.0146-1.2798.1924-1.4082.5127-1.6001,1.3447-1.6636,7.9355-1.9199,9.0234-1.856,11.7744,0,.832,0,2.9443.7681,2.9443.3843,0,.896-.3838,1.3442-.7041,2.9434-2.1758,7.167-4.0957,11.9668-4.0957,8.0635,0,10.9434,6.7197,10.9434,11.3271,0,10.8154-11.6475,13.375-16.7666,14.207-2.4321.3838-4.6719.4482-5.1201.4482-.1919,0-.9595,0-.9595-.3203,0-.1924,2.4956-.96,3.0073-1.0879,12.7354-3.7119,14.9751-9.0234,14.9751-13.2471,0-7.8076-6.0156-8.2559-7.1675-8.2559-6.0796,0-11.0713,4.7363-11.9033,7.2959-1.0234,3.2637-1.0879,3.6475-2.4316,3.6475-2.6235,0-3.1357-5.5674-3.1357-6.1436,0-3.0078,3.3276-16.958,3.3276-18.75,0-.5127-.1279-.5127-1.2158-.6406-8.1274-.96-9.0874-5.6309-9.0874-5.9512,0-.1924.1279-.4482.3203-.4482.3198,0,1.8555,1.0244,2.2397,1.1523,2.4956,1.2793,6.5273,1.2793,7.6152,1.2793.7681,0,1.0239-.1279,1.2798-.5117.5122-.96,1.2803-4.2871,1.2803-5.8877,0-1.4072-.5122-3.2637-1.4082-4.2871-.5117-.5762-.7036-.7686-.7036-.96,0-.5127,1.5996-.7686,1.9194-.7686.5762,0,3.4561.8965,4.3521,4.416ZM407.977,100.144c0,.3838.3838.4482.6401.4482.9595,0,4.3516-.96,4.3516-2.2402,0-1.2158-2.624-3.2637-3.0078-3.2637-.832,0-1.9839,4.9277-1.9839,5.0557Z"/>
  <path class="c" d="M466.1527,96.3041c0,1.2803-1.0239,3.0723-3.2637,3.0723-.5762,0-.896-.0645-3.7759-1.0879-1.0239-.3838-2.0479-.6406-3.0078-.6406-2.6235,0-4.5435,1.792-4.5435,4.2246,0,.5752.4478,3.3271.4478,3.9033s-.6396,4.3516-.7676,5.2471c-.3203,2.3682-.832,7.8076-.832,9.4082,0,.96.064,2.9434,1.6636,2.9434,1.2163,0,3.0718-1.1523,3.7119-1.5361,3.9038-2.5596,6.3354-4.0957,10.4312-4.0957,6.8477,0,11.7114,4.7998,11.7114,10.0479,0,7.8066-10.1753,12.9902-19.4546,12.9902-.832,0-1.728,0-1.728-.5117,0-.3193,1.4077-.6396,1.856-.7676,7.999-1.792,14.0146-6.8477,14.0146-12.8633,0-6.7197-5.8232-7.1035-7.1035-7.1035-2.2397,0-5.5034.7041-8.3193,4.7998-2.9438,4.1592-3.6475,5.248-5.8232,5.248-2.688,0-4.8638-3.0723-4.8638-8,0-2.6875,1.5356-14.4629,1.728-16.8311.1919-2.2393.4478-5.5029,5.8232-7.6787,3.584-1.4727,5.1196-2.1123,5.1196-3.9678,0-1.2158-.4478-1.9199-1.0879-2.8799-.1279-.2559-.3198-.6396-.1279-.832.4478-.3838,8.1914,3.3281,8.1914,6.9111Z"/>
</svg>