<?xml version="1.0" encoding="UTF-8"?>
<svg id="b" data-name="Layer 2" xmlns="http://www.w3.org/2000/svg" width="40.7521" height="31.5045" viewBox="0 0 40.7521 31.5045">
  <defs>
    <style>
      .d {
        fill: #fff;
      }
    </style>
  </defs>
  <g id="c" data-name="レイヤー 1">
    <path class="d" d="M5.3116,27.3397c-.4698,0-.909-.1234-1.2842-.3404l11.0675-9.6454,1.0331.8989c.8646.7514,1.9469,1.1318,3.019,1.1318,1.0774,0,2.1596-.3805,3.0243-1.1318l1.0326-.8989,3.7468,3.2664c.4238-.714.9503-1.3574,1.5611-1.9133l-3.4299-2.9885,10.495-9.1562v10.1151c.9758.178,1.8908.5269,2.717,1.0148V5.3123c0-.3505-.0342-.6974-.0984-1.0331-.1731-.8696-.5584-1.6653-1.0966-2.3226-.1138-.1433-.2325-.2715-.3614-.3997-.9534-.9588-2.2926-1.5569-3.7554-1.5569H5.3116c-1.4627,0-2.7966.5981-3.7554,1.5569-.1283.1282-.2469.2565-.3607.3997C.6568,2.6139.2715,3.4096.1037,4.2792c-.0695.3356-.1037.6825-.1037,1.0331v19.4338c0,.7456.1582,1.4622.4398,2.1094.2613.6178.6472,1.1768,1.1164,1.6454.1187.1187.2373.2276.3656.3362.9192.761,2.1056,1.2207,3.3898,1.2207h22.3246c-.6461-.7985-1.149-1.7166-1.4655-2.7181H5.3116ZM3.478,3.4787c.4745-.4741,1.1122-.761,1.8336-.761h27.6705c.7215,0,1.3644.287,1.8336.761.0833.0844.1625.1785.2325.2721l-14.5027,12.6397c-.4003.3506-.8946.5238-1.3985.5238-.4991,0-.993-.1732-1.3986-.5238L3.2514,3.7454c.0642-.0935.1433-.1823.2266-.2667ZM2.717,24.7462V6.5575l10.4956,9.1558L2.7224,24.8594c-.0053-.0347-.0053-.0737-.0053-.1133Z"/>
    <path class="d" d="M34.0889,18.1786c-3.68,0-6.6622,2.9832-6.6622,6.6632s2.9821,6.6627,6.6622,6.6627,6.6632-2.9832,6.6632-6.6627-2.9826-6.6632-6.6632-6.6632ZM33.3882,25.2174l2.7838-3.5806,1.529,1.188-3.99,5.1294-3.1852-2.5487,1.2094-1.5109"/>
  </g>
</svg>