<?xml version="1.0" encoding="UTF-8"?>
<svg id="a" data-name="差し替え・追加" xmlns="http://www.w3.org/2000/svg" width="632.6567" height="126.5327" viewBox="0 0 632.6567 126.5327">
  <defs>
    <style>
      .b {
        fill: #202852;
      }
    </style>
  </defs>
  <path class="b" d="M51.0547,12.8333c-.3608,0-.7217-.062-2.0444-.3101-1.5034.6199-7.938,3.5339-9.2607,4.0918l-.3608-.3101c1.022-1.5498,2.646-4.2156,3.0669-5.6416H9.6821c-.1206,6.7576-3.1875,10.5393-6.7354,10.5393-1.6836,0-2.9468-1.2397-2.9468-2.8518,0-1.8599.8423-2.3557,3.6685-4.2156.541-.3101,3.4878-2.604,4.8711-8.1216h.481c.481,2.2317.481,2.4797.6011,3.1616h14.1318c0-4.1536-.0601-4.1536-1.3228-8.4314l7.2764,1.6118c.541.124,1.2627.3721,1.2627,1.178,0,.9919-1.0825,1.488-2.165,1.9839,0,1.054,0,2.1699.0601,3.6577h13.771l3.187-3.0996c.3008-.248.4814-.3721.7217-.3721.3008,0,.6016.124.8418.3721l4.5103,4.8977c.1807.2478.4209.5579.4209.9299,0,.6819-.7217.9299-1.2627.9299ZM49.0103,56.7268c-9.8022-.7441-17.3188-8.3696-22.25-17.2971h-.3008c-2.0444,5.5176-8.5991,14.9412-25.7979,17.1111v-.4961c7.6973-2.7898,17.439-7.6875,20.5664-16.615H7.5771c-3.668,0-4.9912.124-6.4946.3721l-.9619-2.2319c3.668.3101,7.8774.3721,8.5391.3721h13.0493c.3608-1.426.9019-3.4099,1.3228-6.9438h-6.8555c-3.728,0-4.9912.124-6.4941.3721l-1.0225-2.2319c3.668.3101,7.9375.3721,8.5991.3721h5.8936c.0601-.3101.3604-3.5337.3604-7.0056h-7.8774c-3.6685,0-4.9912.124-6.4946.4341l-.9619-2.2939c3.668.3101,7.8774.3721,8.5391.3721h6.7949c0-1.178-.1201-6.6958-1.082-9.3616l7.1558,1.7979c.4209.124,1.0825.3721,1.0825,1.054,0,.8679-1.2627,1.302-1.8643,1.426-.0601.7439-.1201,3.4097-.1802,5.0837h7.7573l2.2251-2.728c.6011-.6819.6611-.7439.9619-.7439.3608,0,.8418.4341,1.0825.6199l3.0068,2.666c.4209.3718.6616.6199.6616.9919,0,.5579-.4814.6819-.9023.6819h-14.853c0,1.116-.1206,6.0137-.1807,7.0056h6.1938l2.4053-2.6658c.6016-.6821.7217-.8059.9624-.8059.3608,0,.6616.3098,1.0825.6819l2.8862,2.6038c.5415.4961.7217.6201.7217.9919,0,.5581-.541.6819-.9619.6819h-13.4102c-.3608,3.658-1.0225,5.8279-1.3232,6.9438h16.4771l2.4658-2.9141q.6611-.7439.9019-.7439c.3008,0,.4209,0,1.1426.6201l3.6079,2.9138c.3008.2478.6016.5579.6016.9299,0,.5579-.5415.6819-.9023.6819h-23.0312c6.7949,8.1216,14.4922,10.7874,26.2788,10.2295v.3718c-1.9243.9299-4.5103,2.1079-5.4722,6.6958Z"/>
  <path class="b" d="M70.9644,15.189c-.1802-9.2373-.6011-11.4072-1.8037-14.5691l7.2764,2.1079c.6011.186,1.022.4341,1.022.8679,0,.8059-1.2026,1.488-1.8638,1.7979-.0605,1.364-.0605,6.5098-.0605,9.7954h.1807l1.9243-2.5417c.4209-.4958.6011-.8059.9619-.8059.3008,0,.7217.3101,1.0825.6819l2.7061,2.542c.3608.3718.6016.5579.6016.9919,0,.4958-.5415.6199-.9624.6199h-6.4946c0,1.6738-.0601,12.7712,0,14.2593,1.0825-.4341,7.2764-2.604,7.5171-2.728l.1802.3721c-2.0444,1.6738-5.0513,3.5957-7.6973,5.2078.0605,3.7197.3008,17.917.3008,20.7688,0,2.5417-2.8862,2.7278-3.3677,2.7278-2.0444,0-2.0444-1.364-2.0444-2.2319,0-2.3557.3008-15.375.4209-18.5369-3.4878,1.8599-5.0513,2.6658-6.7949,3.3479,0,.9299-.0605,2.3557-1.2632,2.3557-.481,0-.9019-.3098-1.3828-1.24l-3.127-6.3855c1.022.248,2.9463.3101,3.3071.3101,2.105,0,5.8931-1.24,9.3208-2.2939.1206-6.3857.1807-10.4155.1206-15.9331h-4.5703c-1.7441,6.6956-4.3901,11.4072-5.9536,14.0732l-.3003-.186c1.2627-5.6416,2.4653-14.7551,2.4653-20.7068,0-1.9839-.0601-3.1619-.6016-5.5798l6.6753,1.6741c.541.124.9019.3718.9019.9919,0,.9299-.8418,1.3018-1.8042,1.6738-.1201,1.7979-.3608,3.6577-1.022,6.5715h4.1489ZM77.6396,53.813c16.5371-13.3914,18.5815-28.0845,20.0249-38.314h-2.4053c-1.9849,10.6633-7.6372,23.4966-18.4014,28.5803l-.1807-.2478c8.4189-9.2996,12.0874-19.7151,13.4102-28.3325h-2.1646c-2.4658,5.2698-5.3521,9.4236-8.7798,12.7092l-.2407-.2478c1.3232-2.9141,3.4878-7.6877,5.1113-12.9573,1.5635-5.0837,2.5259-10.6016,2.5259-12.8953,0-.3721-.0601-1.24-.2407-2.1079l6.5547,2.6658c.6616.248,1.0225.4961,1.0225.9299,0,.6819-1.1426,1.24-1.9243,1.426-1.6836,4.9597-2.5259,7.0676-3.3677,8.9895h16.1763l1.624-1.6121c.541-.4958.7817-.7439,1.2026-.7439s.6611.248,1.2026.6819l3.127,2.356c.4209.3101.6011.6199.6011.9299,0,.8679-1.3228,1.4878-2.0444,1.7979-.4209,10.7253-1.0225,27.4644-5.5923,34.0361-2.3452,3.3477-5.2319,4.1538-8.8999,5.0217-.3008-1.9839-.7217-4.7117-4.9912-8.1216l.1802-.3721c.4209.124,5.1714,1.302,7.4565,1.302,5.5928,0,6.8555-24.5505,6.8555-29.5723,0-1.054,0-2.356-.1201-4.2158h-2.7061c-1.1426,9.2996-3.5479,16.4912-6.4946,22.2568-3.9087,7.6255-10.5234,13.3291-18.3413,16.429l-.1802-.3718Z"/>
  <path class="b" d="M149.2051,6.6956c.0601,3.5337.1802,20.7688.2402,24.6746h14.6128l3.0068-3.7197c.541-.6819.6616-.8059.9619-.8059.3008,0,.4814.1858,1.0825.6819l4.5103,3.7197c.3008.248.6016.5581.6016.9299,0,.6821-.6016.6821-.9023.6821h-23.8735c.0601,2.9758.3608,17.5449.3608,20.8308,0,3.4717-3.187,3.4717-3.5479,3.4717-1.9243,0-2.4658-.9299-2.4658-2.5417,0-.4341.0605-1.178.1206-2.356.0601-1.6118.1201-8.3076.1201-10.4153,0-2.9758.0601-6.0137.1201-8.9895h-17.1982c-4.1494,0-5.3521.2478-6.4946.4338l-.9624-2.2939c2.7061.248,5.7729.3721,8.5396.3721h16.1157c0-.8679.0605-2.1079.0605-2.9138,0-2.1699-.1206-17.1731-.1807-21.7607h-14.1919c-4.2095,0-5.3521.186-6.4946.4341l-1.022-2.2939c2.7661.248,5.833.3718,8.5991.3718h30.248l2.9463-3.2236c.6016-.6201.7817-.9299,1.0825-.9299s.541.1858,1.1426.6819l4.4502,3.3479c.2402.1858.6011.4958.6011.9299,0,.6199-.541.6819-.9019.6819h-21.2876ZM125.271,10.7874c6.4946,2.6658,11.4258,7.9355,11.4258,12.5232,0,2.356-1.5034,3.5339-2.8862,3.5339-2.4658,0-3.2476-3.0999-3.6685-5.0217-.541-2.2939-1.2026-5.3318-5.292-10.6636l.4209-.3718ZM167.4858,13.5151c.3608.248.481.4341.481.7439,0,1.116-1.6235,1.24-2.3452,1.24-3.2471,4.6497-9.4409,11.1594-12.9287,13.3293l-.3008-.3101c1.3228-1.9839,5.833-8.8655,8.8999-19.343l6.1938,4.3398Z"/>
  <path class="b" d="M226.3032,6.6956c.0601,1.364.1201,5.2698.1201,6.6335,0,.5581,0,2.728-3.127,2.728-1.6235,0-1.8042-.9302-1.6841-2.8521h-31.4502c-.0601,12.9573-.0601,18.103-1.9844,24.2407-1.9243,6.2617-6.1943,14.1353-10.4639,17.6689l-.3608-.3718c3.7886-6.2617,7.6372-14.6934,7.6372-37.384,0-5.2695-.1802-12.5232-1.1426-17.2969l7.0962,3.0999h30.1875l1.6235-1.8601c.3008-.3718.4814-.5579.8423-.5579.3003,0,.4209.062,1.082.5579l3.0669,2.2319c.3608.248.7217.6821.7217,1.054,0,.6819-.9619,1.364-2.1646,2.1079ZM231.9556,53.4409h-38.4263c-4.2095,0-5.3516.248-6.4941.4338l-1.0225-2.2937c2.8862.248,5.7129.3718,8.5991.3718h11.4858v-8.9275h-7.1558c-4.1494,0-5.3521.186-6.4946.3721l-.9624-2.2319c2.8262.248,5.6528.3721,8.5391.3721h6.0737c.0601-6.5098-.1201-7.0676-.7817-9.0515-3.187.8059-8.0581,1.9839-9.6216,2.418-.1201.1858-.7217,1.054-.9019,1.2397-.1206.186-.4209.5581-.7817.5581-.4209,0-.7217-.4961-.8423-.7439l-2.5254-7.0056c1.1426.3098,1.8643.4338,3.8486.4338.9019,0,2.8262,0,3.9688-.062,1.1426-2.0459,2.8267-6.1997,3.5479-8.6174h-3.9688c-4.1494,0-5.292.248-6.4946.4338l-.9619-2.2937c2.8262.2478,5.7129.3718,8.5391.3718h23.8135l2.3452-3.1616c.481-.6821.6616-.7441.9019-.7441.1807,0,.7817.3721,1.1426.6201l4.3901,3.1616c.2402.186.6011.6201.6011.9302,0,.6819-.541.6819-.9019.6819h-22.9116c-1.7437,2.4797-4.7505,5.7036-7.3364,8.4314,2.646-.124,8.4189-.6819,16.2363-1.4258-1.6235-1.7979-2.8262-2.7898-5.2915-4.3398l.3003-.4338c9.2007,1.4258,14.6733,5.5796,14.6733,9.6714,0,2.0459-1.4434,2.9758-2.7666,2.9758-1.2026,0-2.1646-.8059-2.5854-1.6118-1.0225-2.0459-1.2026-2.2939-3.127-4.7739-.5415.186-1.2031.3721-2.2251.6201-3.4277.8679-5.2319,1.3018-10.644,2.6038l5.5327,1.488c.4209.1238,1.5029.4338,1.5029,1.2397,0,.5581-.1802.6821-1.7437,1.7361v4.6497h8.5991l2.0449-3.3479c.1201-.186.481-.8059.9019-.8059.2407,0,.541.124,1.1426.6819l3.8486,3.3479c.2402.186.6011.4961.6011.9299,0,.6199-.6011.6819-.9619.6819h-16.1763v8.9275h12.5078l2.4058-3.5337c.4209-.6199.6611-.8059.9619-.8059s.4209.124,1.0825.6819l4.3296,3.5339c.1807.1858.6016.5579.6016.9299,0,.6819-.6016.6819-.9624.6819ZM221.6123,4.6497h-31.3901c0,.9919-.0601,5.9517-.0601,7.0676h31.4502v-7.0676Z"/>
  <path class="b" d="M286.0825,28.7043c-.481,0-.7817-.062-3.4272-.3101-3.1274-.3101-5.8936-.4338-8.2988-.4338-3.187,0-6.3745.2478-9.5615.5579-.3008,4.8357-.3008,7.1917-.3008,9.6094,0,3.9678.2407,5.8276,4.9312,5.8276,3.4878,0,4.0894-.1238,7.0356-.9299.8423-.2478,1.7441-.3718,2.4058-.3718.481,0,5.0513.6819,5.0513,3.3477,0,2.48-3.187,2.604-9.2607,2.604-9.7422,0-14.4326-.062-14.4326-9.7334,0-2.604.1206-7.1296.1807-9.7336-7.6372,1.302-10.0425,2.604-11.7866,3.5959-1.0825.6199-1.5034.6819-1.8042.6819-1.022,0-3.7881-1.6738-5.1714-3.5957s-1.2627-3.7817-1.2026-5.2698c2.7061,2.5417,3.4878,3.2859,6.0737,3.2859,1.022,0,2.6455-.248,3.4277-.3721,5.6523-.8679,9.2002-1.302,10.5835-1.4878.0601-.9919.1802-5.1458-.1802-8.4937-.1206-1.3638-.4814-2.1699-1.5635-2.8518-1.4434.3101-3.1875.7439-3.9092.9299-1.1426.3101-1.4429.3101-1.8643.3101-1.5635,0-4.6904-3.5959-4.6904-6.0757,0-.3101.0601-.6819.1206-.9919,3.3071,2.1699,3.728,2.4177,5.9531,2.4177,1.3232,0,15.4546-1.0537,18.6421-2.5417,1.5029-.6819,2.1045-.9919,2.8262-.9919s3.127.4961,4.6304,1.6738c.541.3721.8418,1.116.8418,1.8599,0,1.6741-1.2627,1.6741-2.3452,1.6741-9.4414,0-11.7866.3098-15.6953.8679,1.2026.4958,3.6685,1.6118,3.6685,2.6658,0,.5581-.3008,1.054-1.0225,2.1079-.2407.4341-.7217,3.0378-.9619,6.9436,7.6973-.8059,13.3496-1.364,15.9355-2.0459.9624-.248,1.3228-.3721,1.9844-.3721,1.8643,0,5.6528,1.302,5.6528,3.658,0,1.178-1.2026,1.9839-2.4658,1.9839Z"/>
  <path class="b" d="M303.1665,54.5569c8.479-6.8816,14.4326-20.8308,14.4326-26.0386,0-1.6738-.3008-2.0459-1.0225-2.9138-5.2319.7439-7.6372,1.4258-9.5615,2.0459-.8418.3101-3.7886,1.3638-4.3896,1.3638-1.2632,0-5.5327-3.5337-5.5327-7.0674,0-1.116.2407-1.7361.4814-2.418,1.8037,2.6038,2.7061,3.9678,5.9531,3.9678.0601,0,25.7979-2.9138,27.4814-3.2859.6616-.1238,3.3076-1.054,3.9092-1.054.7817,0,7.2764,1.116,7.2764,4.4019,0,2.0459-1.4434,2.0459-2.0449,2.0459-.1802,0-6.0737-.7439-6.7949-.8059-2.105-.248-3.6685-.248-4.5103-.248-2.3452,0-4.5703.124-7.2764.4341,2.4653,1.7979,2.8262,1.8599,2.8262,2.6038,0,.4341-1.022,2.0459-1.2026,2.418-.3008.6819-1.2627,3.7197-1.5034,4.3396-4.3896,11.8413-11.125,18.4131-18.2207,20.4587l-.3008-.2478ZM312.668,10.5393c2.8862,0,7.7573-.8059,10.2227-1.4258.6616-.186,3.4878-1.116,4.0894-1.116.9019,0,5.1714.8679,5.1714,3.0999,0,1.9219-1.2627,1.9839-7.1558,2.2317-3.6084.124-6.4946.4341-9.5615.8679-1.0825.186-4.0894.6201-4.9912.6201-1.8643,0-4.6904-2.356-4.6904-5.2078,0-.3101.0601-.6199.2402-1.5498.5415.6199,2.2251,2.4797,6.6753,2.4797ZM343.998,16.739c0,.9919-.4209,2.0459-1.6235,2.0459-.7817,0-.9619-.186-2.646-2.1079-3.187-3.5339-4.6304-4.6497-5.5923-5.3938,1.6235.062,9.8618.186,9.8618,5.4558ZM348.3276,12.4612c0,1.302-.6011,2.1699-1.5029,2.1699-.7817,0-.9624-.248-2.4058-1.9839-2.4053-2.7898-2.5854-2.9758-6.6748-5.5796,4.8711.3718,10.5835.9919,10.5835,5.3936Z"/>
  <path class="b" d="M367.0352,18.4749c-1.0225,9.7954-1.1426,10.9114-1.8643,13.6392-2.3452,8.5557-8.479,14.7551-13.6509,16.925l-.3604-.3718c9.501-9.9194,10.8242-20.2109,10.8242-29.2625,0-2.8518-.1807-3.9058-1.1426-4.6497-.3608-.3101-3.2476-1.178-3.7886-1.364.541-.248,3.0068-1.3018,3.4878-1.4878.3608-.186.7817-.186,1.0825-.186,1.2026,0,6.1938,1.178,6.1938,3.2239,0,.5579-.7217,2.9758-.7817,3.5337ZM380.8662,43.7695c-.7817.6199-2.7061,2.1697-4.3901,3.9058-.1802.186-.4209.3718-.6611.3718-.9023,0-4.1494-5.3315-4.1494-6.5095,0-.4961.9019-2.418.9619-2.8518.2407-1.116.5415-4.3398.5415-10.8494,0-1.6741-.1206-14.9412-.2407-15.7471-.2407-1.426-2.165-2.1699-4.7505-2.9758,1.1426-.6821,2.4653-1.488,4.0889-1.488,1.9243,0,6.9155,1.5498,6.9155,3.7197,0,.5581-.7817,3.0378-.9019,3.5959-.4209,2.4797-1.0825,20.0247-1.0825,23.1245,0,.6821.1807.9919.6016.9919,1.6235,0,11.4858-7.0056,21.3477-18.5989l.4209.4961c-5.4121,12.2131-14.1313,19.1567-18.7017,22.8147Z"/>
  <path class="b" d="M424.709,21.1406c-.3008.3721-.6016.7441-1.0825,1.7361-4.0288,7.8735-11.0649,18.3508-21.7686,22.3806l-.2407-.4958c13.3501-12.5854,17.1382-23.9927,17.1382-25.9766s-1.8638-3.0999-3.7881-4.0918c.6011-.4341,1.022-.8059,2.7661-.8059,4.3896,0,8.2983,3.7817,8.2983,5.3936,0,.4341-.541.9919-1.3228,1.8599ZM451.9502,41.2896c-.5415.8679-1.3833,1.302-2.2251,1.302-1.9243,0-2.4053-2.1079-2.7061-3.5339-1.9243-9.1753-6.6147-17.4829-13.1694-24.0544,11.0645,5.0837,18.8223,15.375,18.8223,23.1245,0,.5581-.0605,2.1079-.7217,3.1619Z"/>
  <path class="b" d="M500.063,22.1326c-1.3228.8062-1.3828,1.054-1.8037,2.79-2.165,8.8035-5.292,14.8171-11.5459,20.4587-.9624.9299-7.7578,7.0056-13.6509,8.0596l-.1802-.4341c7.6372-4.8357,13.8311-11.7793,17.5591-20.2107,1.7441-3.9678,3.6685-10.6016,3.6685-11.5935,0-.8679-.5415-.9299-1.2026-.9299-5.8936,0-7.0962,0-11.9067.3721-1.6235.124-10.2832,1.116-10.3433,1.116-.3608,0-.5415-.062-2.165-.6201,0,.4961.1807,5.5798.1807,6.3857s.3008,4.2158.3008,4.9597c0,2.1699-.4814,2.7898-1.2031,2.7898-1.082,0-2.9463-1.4878-3.3071-2.2939-.481-.9917-.5415-2.5417-.5415-3.7817,0-9.4233-.7817-10.4773-4.0288-11.9653.8418-.3098,2.165-.7439,3.4277-.7439,1.3828,0,1.8643.248,3.9087,1.302.1802.062,2.0444.8679,3.0669.8679,1.3833,0,7.4565-.6199,8.7197-.7439-.0605-2.2939-.1807-5.7656-.5415-6.7578-.4209-1.1777-.7217-1.2397-5.1714-2.4797,2.2852-2.1079,4.2695-2.1079,4.5098-2.1079,1.5034,0,6.7354,1.24,6.7354,3.2239,0,.4338-.7817,2.356-.8418,2.7278-.0601.4341-.3608,3.8438-.3608,5.0837,1.5635-.186,6.4946-.6199,8.0581-.6199,1.6836,0,1.9844,0,2.9463-.6821,1.624-1.178,1.8042-1.3018,2.0449-1.3018.6011,0,5.2314,4.8977,5.2314,5.5796,0,.5579-.4209.8059-1.5635,1.5498Z"/>
  <path class="b" d="M549.7393,50.3411c-1.6235,0-2.5259-1.6118-3.127-2.6038-4.6304-7.9355-7.3965-11.9033-12.2075-15.8091-9.2007,11.2832-18.3413,17.2969-26.8203,18.8469v-.4961c14.3726-6.8816,29.2256-27.6504,31.2104-36.4539-.1807.062-12.2075,2.2939-15.3945,3.9058-1.7441.9299-1.9849.9919-2.4658.9919-.9019,0-4.6904-2.8518-4.6904-6.8196,0-1.6121.2407-2.0459.541-2.728,2.4658,3.2859,2.9468,3.9678,4.9312,3.9678,1.4434,0,14.6128-1.1777,17.0786-2.7898.4209-.3098,2.3452-1.9839,2.8262-1.9839.7817,0,5.4722,4.5879,5.4722,5.5798,0,.6819-.4209.8679-2.3452,1.6118-.541.248-.7817.6819-1.6836,2.356-3.9692,7.4395-4.6304,8.6794-7.7578,12.8333,7.3369,3.1619,16.7778,10.6013,16.7778,16.1809,0,1.488-.541,3.4099-2.3452,3.4099Z"/>
  <path class="b" d="M568.4702,41.1455c-.6074,3.168-.8682,4.6868-.8682,5.6851,0,.4773.2607,2.5168.2607,2.9507,0,1.3455-.1738,2.2134-1.3887,2.2134-2.5605,0-4.9907-5.251-4.9907-12.8452,0-2.7773.3906-6.3359,1.7358-13.4961.2168-1.2585.3037-2.4302.3037-2.9077,0-1.3887-.3472-2.4736-1.6924-4.166.3037-.1736.6074-.3472,1.1284-.3472,1.562,0,4.8169,2.6472,4.8169,4.2529,0,.781-.4341,1.7793-.6074,2.1697-1.8228,4.1228-3.3418,7.551-3.3418,12.6716,0,2.7773.7378,6.2056,1.519,6.2056.3037,0,.5205-.5205.6509-.8677.3906-1.2153,2.5605-6.9001,3.8188-9.2434h.3037c-.2168,1.2151-1.4321,6.6394-1.6489,7.7244ZM589.2568,48.2625c-10.4585,0-14.668-1.866-14.668-7.3337,0-1.4321.3472-1.8662.6074-2.2568.7378,3.0813,1.4321,5.8586,9.4604,5.8586.9111,0,4.9473-.304,5.7715-.304,3.0815,0,3.6455,1.4756,3.6455,2.1699,0,1.866-2.3867,1.866-4.8169,1.866ZM589.2134,25.5229c-4.6001.7812-7.7681,2.4736-8.5488,3.1245l-.3037-.2603c.564-.6509,3.7319-3.5586,3.7319-3.9058,0-.6074-1.3887-.6074-1.7358-.6074-2.6475,0-6.4663,1.5623-7.5942,1.9961,1.4751-3.4717,7.5508-4.7734,11.7168-4.7734,1.9092,0,5.4678.6074,5.4678,2.6038,0,.9114-.564,1.4753-2.7339,1.8225Z"/>
  <path class="b" d="M629.5757,23.5703c-2.5171,0-5.6851.0432-7.7681.6509-4.5566,1.3887-9.417,7.0735-9.417,13.4961,0,2.083.9116,6.5093,6.8569,8.2886.9546.2605,5.207,1.0415,5.9448,1.519.9985.6074,1.4756,1.3452,1.4756,2.2131,0,1.6924-1.3887,1.6924-2.2134,1.6924-1.041,0-4.4263-.5642-7.6377-2.1265-6.3789-3.0376-6.6826-8.4622-6.6826-10.5886,0-6.6829,3.9922-10.8923,8.7656-14.8848-2.2998-.217-10.1978,2.9075-14.0601,4.6433-2.1699.9983-2.3867,1.1284-3.0376,1.1284-1.1719,0-3.3848-1.3887-3.3848-4.1228,0-1.4753.564-2.2563.9546-2.7339.9111,1.9529,1.9526,2.5605,3.4282,2.5605,1.4321,0,21.481-4.8171,22.4355-5.1208,1.7793-.6077,2.604-.8679,3.3848-.8679,2.04,0,4.0361,1.3018,4.0361,2.6472,0,1.6057-1.3018,1.6057-3.0811,1.6057Z"/>
  <path class="b" d="M47.7344,75.2615c-1.0225,2.542-2.0449,4.9597-3.7285,8.1216l.8418.5581c.481.3098.6016.5579.6016.8059,0,.186-.0601.4958-.2407.7439-.1802.248-1.2026,1.054-1.3828,1.302,0,2.2939.2402,24.9846.2402,25.3564.1201,2.1699.5415,8.6797.5415,10.5396,0,2.9758-1.6841,3.7197-3.5483,3.7197-1.9844,0-2.5254-.7439-2.5254-2.356,0-.9919.3008-5.3315.3608-6.2615.1802-4.2158.1802-4.4019.3003-19.7771,0-3.4717.0605-3.8438.0605-6.9434-3.9692,5.3315-7.6372,8.1213-9.2607,9.3613l-.3608-.3101c4.5098-6.6335,10.7036-19.2808,13.0493-27.1543.3604-1.178.4209-1.9219.7212-4.4019l6.1338,3.6577c.2407.124.7817.4341.7817,1.178,0,.8679-1.022,1.364-2.5854,1.8599ZM83.9956,122.1309h-31.27c-4.2095,0-5.3521.186-6.4946.4341l-1.0225-2.2939c2.8867.248,5.7129.3721,8.5991.3721h7.2764v-18.4751h-4.4497c-4.1494,0-5.3521.186-6.4946.4341l-.9624-2.2939c2.8267.248,5.6528.3721,8.5396.3721h3.3672v-15.4373h-7.0957c-4.1494,0-5.292.186-6.4946.3721l-.9619-2.2319c2.8262.248,5.7124.3721,8.5391.3721h18.2808l2.0449-3.6577c.1802-.3101.541-.9919,1.022-.9919.3008,0,.6616.3718,1.0825.6819l4.7505,3.8438c.2407.186.6016.4958.6016.9299,0,.6199-.6016.6819-.9019.6819h-15.7554v15.4373h5.9531l2.0444-3.1619c.2407-.3721.5415-.8059.9624-.8059.3608,0,.7217.3101,1.0825.6199l4.2095,3.2239c.2402.186.6011.5579.6011.9299,0,.6199-.6011.6819-.9019.6819h-13.9512v18.4751h9.2007l2.7661-3.5339c.2402-.3098.541-.8059.9019-.8059.4209,0,.6616.3101,1.1426.6819l4.0894,3.5339c.2402.186.6011.4958.6011.9299,0,.6199-.6011.6819-.9019.6819ZM64.2715,82.3291c-2.2251,0-2.646-1.5498-3.6685-5.3315-.2407-.9919-1.6836-5.0217-3.0669-7.0676l.3608-.3721c3.2471,1.488,9.2607,4.2158,9.2607,9.2996,0,2.2939-1.3228,3.4717-2.8862,3.4717Z"/>
  <path class="b" d="M127.6582,83.0112c-1.7441.6819-10.7642,2.5417-13.771,3.0996-.1802,3.0999-.1802,4.5879-.1802,8.1216,1.2627-.3098,7.3364-2.4177,7.9976-2.4177,1.2026,0,3.9092.6199,3.9092,2.5417,0,1.116-.7822,1.426-1.2031,1.55-.541.1858-6.314,1.6738-10.6436,2.4797.2402,5.5796.3008,8.1216,1.8037,13.0193,2.4658.3721,6.7354,1.116,10.7041,4.5876.7217.6201,1.8042,1.6121,1.8042,3.4099,0,1.302-.7217,2.7278-2.165,2.7278-1.022,0-1.5034-.3718-3.2471-1.7358-2.646-2.0459-4.3901-3.0378-6.9155-4.2158-.3608,2.2319-1.2627,7.9976-10.8242,7.9976-6.2539,0-10.644-3.4717-10.644-7.0056,0-6.1997,9.2607-6.8196,12.8691-6.8196,1.5029,0,2.5254.062,3.6079.186-.3608-1.6118-.8418-3.5957-.9624-11.4695-1.022.124-3.8486.4341-7.2158.4341-4.6909,0-7.397-.7439-7.397-3.1619,0-1.8599,2.7666-3.8438,4.8711-3.8438-.7817,1.178-1.0825,1.6118-1.0825,2.418,0,.6199.4209.9299,1.9844.9299,2.646,0,6.1338-.3101,8.7798-.7441,0-3.2236,0-3.2856.1807-8.3074-3.7886.4958-6.4946.6819-8.5996.6819-7.0957,0-8.7192-1.24-10.7036-5.5796,2.8262,1.178,4.6904,1.9219,8.8398,1.9219,1.5635,0,4.9307-.186,10.5835-1.116,0-.6819.1201-4.5259.1201-4.8357,0-2.356-.3003-3.658-4.7505-5.0217,1.3228-1.6738,2.5859-1.8599,3.8486-1.8599,2.2251,0,7.0356,1.4258,7.0356,4.4636,0,.5581-.1201.8059-1.022,3.1619-.6016,1.6118-.7217,2.2939-.9023,3.1619.9624-.248,2.5859-.6819,4.9912-1.488.8418-.3098,4.5103-1.7979,5.2319-1.7979,1.7437,0,4.1494,1.24,4.1494,2.8518,0,.8059-.3608,1.364-1.0825,1.6741ZM103.9648,113.8853c-3.0068,0-7.6372,1.24-7.6372,3.4719,0,.8679,1.2632,2.7898,6.0737,2.7898,2.0444,0,4.5703-.4338,6.3745-1.4258,1.6235-.9299,1.8643-2.604,1.9844-4.0918-1.7441-.6821-4.8711-.7441-6.7954-.7441Z"/>
  <path class="b" d="M157.1299,102.7261c-.5415,1.3638-3.4277,7.6875-3.4277,8.7415,0,.5579.6011,3.2239.6011,3.7817,0,1.8599-1.1426,2.7278-2.2852,2.7278-1.6235,0-10.9443-3.0996-11.9067-21.6987-.0601-1.3638-.2402-7.3154-.4209-8.4934-.4209-3.2859-1.1426-4.7737-2.4653-7.5017,3.0068.186,8.4189,2.2319,8.4189,7.4397,0,.3718-.0601.7439-.1807,1.4258-.1201.8682-1.2026,7.1917-1.2026,10.0435,0,6.4478,3.5479,10.4155,4.811,10.4155.541,0,1.0825-.8059,1.4429-1.302,3.2476-4.8357,6.5552-9.6714,9.6216-14.7551l.4214.186c-.3008.7439-.6016,1.6118-3.4277,8.9895ZM182.5068,107.8098c-1.0225,0-1.9243-.9919-3.6084-3.0378-.3608-.3721-2.0444-1.7979-6.1338-2.666v-.3098c.3608-.062,5.0513-.3101,5.2319-.3721.541-.124,1.0825-.6819,1.0825-1.6118,0-1.054-.9624-4.6499-3.2476-8.1216-2.4053-3.5959-5.4121-5.9517-6.8555-7.0056,6.1338-.6819,16.1763,7.9976,16.1763,18.041,0,2.8518-1.3228,5.0837-2.6455,5.0837Z"/>
  <path class="b" d="M212.2222,121.0254c3.6211-1.3889,15.5762-6.1016,15.5762-18.2551,0-6.8953-4.4648-13.2944-14.2866-13.2944-1.4883,0-2.4805.1487-3.125.248,3.3232,1.4385,4.2661,3.522,4.2661,4.2661,0,.6943-3.6709,8.7803-6.3994,13.8896-5.1592,9.7229-6.8457,10.0701-8.2349,10.0701-1.0913,0-1.6367-.7439-3.1748-2.9268-.6943-.9919-.8926-1.1409-1.9839-2.0835-1.4883-1.24-2.2324-3.8691-2.2324-5.7542,0-10.6655,9.2266-19.3464,21.2812-19.3464,10.1689,0,18.5029,5.8535,18.5029,15.6755,0,10.3181-8.9292,16.8662-20.1895,17.8582v-.3472ZM196.2983,106.2922c0,3.1748,1.4883,7.4409,3.3237,7.4409,1.5874,0,3.522-3.6707,4.5635-5.6055,1.5874-3.0259,6.0024-12.0046,6.0024-14.981,0-.3474-.0493-1.6868-1.6865-3.1252-6.7466,1.5378-12.2031,9.8716-12.2031,16.2708Z"/>
  <path class="b" d="M264.5732,86.6069h-9.5615c-.0601,1.8599-.0601,3.7197-.0601,5.5796,3.9087.8062,9.1401,3.782,9.1401,7.4397,0,1.7358-1.2026,3.0378-2.5254,3.0378-2.2251,0-2.8262-2.0459-3.3677-3.7817-.481-1.6121-1.6235-4.1538-3.2471-5.7659.0601,4.6499.2402,25.1086.2402,29.2625,0,1.4258,0,3.9678-3.4277,3.9678-1.6235,0-2.1045-.9919-2.1045-1.6738,0-.5581.3608-5.6418.4209-6.6338.481-9.6094.541-10.6633.6616-20.8308-3.127,6.2617-7.5771,11.7175-13.1694,15.7471l-.3008-.4958c6.2539-8.4937,11.7861-19.9629,13.2295-25.8525h-3.8486c-3.668,0-4.9912.186-6.4946.4341l-.9619-2.2939c3.6079.3721,7.8774.3721,8.5391.3721h3.0669c0-11.0354-.541-13.0193-1.2627-15.6233l6.6748,1.7361c.541.1238,1.2627.4338,1.2627.9917,0,.4961-.2402.6821-2.2852,2.1079,0,1.6741-.1802,9.2375-.1802,10.7876h1.8042l2.4653-3.0999c.6011-.7441.6616-.8062.9619-.8062.3608,0,.7817.3721,1.0825.6821l3.5479,3.0999c.3008.3098.6016.5579.6016.9919,0,.5579-.481.6199-.9019.6199ZM289.5894,78.8574c-.0601,1.7358-.0601,2.9758-.0601,3.7817,0,5.0837.2402,24.3645.541,32.3621.0601.9919.3008,5.1458.3008,6.0137,0,3.4719-2.8867,3.9678-3.8486,3.9678-.6616,0-1.9243,0-1.9243-2.1079v-2.4797h-12.9893c.1201,2.1699.3008,4.9597-3.5479,4.9597-.9624,0-2.0449-.4341-2.0449-2.1079,0-.6199.2407-3.4099.2407-3.9678.2407-9.4233.3608-18.9089.3608-28.3943,0-5.5798,0-14.1973-.6016-19.405l6.4346,3.3479h11.7866l1.9844-2.1079c.481-.5579.6011-.6199.9019-.6199.4209,0,.7817.1858,1.1426.5579l2.9468,2.9138c.481.4961.7817.8059.7817,1.054,0,.4341-.2407.6199-2.4053,2.2319ZM284.6582,76.3154h-13.1094v12.7715h13.1094v-12.7715ZM284.6582,90.5747h-13.1094v12.8333h13.1094v-12.8333ZM284.6582,104.896h-13.1094v14.011h13.1094v-14.011Z"/>
  <path class="b" d="M319,83.0112h-12.5684c-3.668,0-4.9912.1858-6.4946.4338l-.9619-2.2937c3.6079.3718,7.8774.3718,8.5391.3718h5.1714l1.6841-2.6658c.1802-.3101.6011-.8059.9619-.8059s.7817.4338,1.0825.6819l2.8867,2.6658c.4209.4341.6011.6201.6011.9919,0,.5581-.541.6201-.9019.6201ZM316.7749,91.0088h-8.0581c-3.668,0-4.9912.1858-6.4946.4338l-.9619-2.2939c3.668.3721,7.8774.3721,8.5391.3721h1.1426l1.4434-2.5417c.2402-.4341.6011-.7441.9019-.7441.481,0,.7817.248,1.1426.6201l2.7061,2.5417c.4209.3721.6016.5581.6016.9299,0,.6201-.5415.6821-.9624.6821ZM317.8574,108.8018c-.0601,1.6738-.0601,2.0459.0601,5.3315,0,.9299.2407,5.3318.2407,6.0137,0,2.7898-2.7061,3.0999-3.127,3.0999-2.165,0-1.9849-2.4797-1.8643-3.4099h-6.3745c.2407,2.542.5415,6.1997-3.0669,6.1997-1.2627,0-2.3452-.8059-2.3452-1.8599,0-.3101.481-9.1755.481-10.8494,0-3.0378,0-8.2456-.3003-11.0974l5.9531,3.4719h5.2319l1.8037-1.9839c.1807-.186.6016-.6821.7817-.6821.3608,0,.7217.3101,1.0825.5581l2.165,1.6738c.541.3721.9619.9919.9619,1.426,0,.5579-.1802.6819-1.6836,2.1079ZM317.2559,99.0681h-8.2983c-3.6685,0-4.9912.186-6.4946.4341l-.9624-2.2939c3.6685.3721,7.8779.3721,8.5396.3721h1.3228l1.3833-2.2319c.1802-.3098.541-.8059.9019-.8059s.4209.124,1.1426.6819l2.7661,2.2319c.3608.3101.6016.6199.6016.9919,0,.5581-.4814.6199-.9023.6199ZM316.7749,74.9517h-7.5166c-3.6685,0-4.9912.124-6.4946.4338l-.9624-2.2937c3.3076.3098,6.9155.3718,9.3813.3718l1.5635-2.2937c.1802-.248.6011-.8682.9019-.8682.4209,0,.9619.5581,1.1426.7441l2.3452,2.2937c.4209.4341.6016.6201.6016.9299,0,.5581-.5415.6821-.9624.6821ZM313.167,107.1897h-6.4346v11.1594h6.4346v-11.1594ZM348.1655,124.9827c-7.2764-7.7495-9.0806-11.9033-11.0649-21.8228-1.7441,12.5854-6.4946,18.9709-20.5664,22.2568l-.1802-.4961c11.9668-4.8357,16.3564-15.375,16.3564-25.4185,0-3.0999-.4209-5.0837-.6611-6.1377l5.7729,1.55c.2402.062,1.4429.4958,1.4429,1.1157s-1.4429,1.7361-1.6836,1.8601c-.0601.9299.3608,5.3315,2.4053,9.8574.2407-.186,4.3301-4.3398,5.3521-8.7415l4.6304,4.0916c.7217.6821.8418.7441.8418.9919,0,.248-.1201.9299-1.2026.9299q-.6011,0-1.022.062c-2.3452,1.116-6.4946,2.9138-8.2388,3.4719,2.7661,5.8276,8.2388,9.4854,14.252,11.4692v.6201c-1.5635.186-3.3672.4338-6.4341,4.3396ZM348.1655,98.4482c-6.3145-4.6497-9.6216-10.1055-11.3657-18.041-.8418,4.8357-2.8262,15.9951-18.0405,19.033l-.2402-.3721c5.833-2.6658,9.501-7.5635,10.8843-10.0432,1.8042-3.2859,3.0669-7.7498,3.0669-14.6934,0-2.7278-.3008-3.5337-.9624-5.0835l6.6152,1.9839c.7817.2478,1.082.4958,1.082.9299,0,.4958-.1802.6199-1.5635,1.6738-.0601.3101-.1802,1.8599-.1802,2.0459,0,1.116,1.2627,4.7737,1.9243,6.1997,3.0669-3.1619,4.0288-4.1538,5.2314-7.3777l4.6909,3.5337c.4209.3101.7212.5581.7212,1.178,0,.8059-1.3828.8679-1.8638.8679-2.646.9919-6.9756,2.356-8.3589,2.666,2.4053,4.7737,5.6528,7.8735,14.6128,10.1672v.6201c-2.8867.6199-3.3677,1.178-6.2539,4.7117ZM324.1714,113.2654c-.7817,0-2.8262-.4958-2.8262-2.6658,0-1.178.2407-1.426,1.6836-3.0999,3.127-3.5339,3.2476-5.6416,3.3677-6.8816h.6616c.3608,1.4878,1.022,3.7817,1.022,6.3855,0,2.356-1.2026,6.2617-3.9087,6.2617ZM324.8931,88.2808c-.9619,0-2.4653-.6819-2.4653-2.6038,0-1.6118.481-2.1079,2.2852-4.0918,1.4429-1.5498,1.7437-2.6038,2.8262-5.7656h.481c.6016,3.0378.8418,4.3396.8418,5.7656,0,2.5417-.8418,6.6956-3.9688,6.6956Z"/>
  <path class="b" d="M408.2451,96.2163c-5.3516-2.6038-14.6729-7.9976-21.8887-22.2566-4.2095,8.1216-17.1987,20.0867-27.2412,24.3025l-.3008-.3718c12.2676-9.2375,19.9648-22.1948,21.1675-24.2407,1.5635-2.6658,1.8042-3.5337,2.1045-5.0217l6.4946,2.2939c.7817.248.9624.7439.9624.9919,0,.7439-1.4434,1.116-2.165,1.3638,3.8486,6.1377,13.3501,14.6934,26.8804,16.925v.3721c-2.7061,1.178-4.7505,2.9758-6.0137,5.6416ZM408.8467,104.3379h-23.7534c-2.7661,4.8977-7.9976,11.0974-9.9219,13.2673,14.793-1.178,16.4165-1.302,22.4902-2.1699-2.165-3.5339-4.9912-6.7576-6.3745-8.3076l.3008-.3718c3.4878,1.4878,15.3945,7.6875,15.3945,15.313,0,.9919-.6616,3.4719-3.0068,3.4719-1.9243,0-3.127-1.6121-3.9087-4.2158-.6011-1.9839-.8418-2.7898-1.6836-4.5256-6.3745,1.9839-26.2188,6.6956-29.8271,7.3154-.2402.6201-.4209,1.302-1.022,1.302-.6616,0-1.0225-.9299-1.1426-1.302l-2.646-6.8196c1.8643.3721,3.4277.6819,5.8931.6819.6616,0,2.8867-.1858,3.8486-.2478,2.0444-4.5879,3.2476-7.9976,4.5103-13.3914h-8.5991c-4.2095,0-5.3521.248-6.4946.4341l-1.0225-2.2939c2.8867.3101,5.7129.3721,8.5991.3721h28.5645l3.3071-3.782c.6016-.7439.7217-.8059,1.0225-.8059.2402,0,.3608.062,1.0825.6821l4.6904,3.8438c.1802.186.6011.4958.6011.9299,0,.6199-.6011.6199-.9019.6199ZM395.6172,93.5505h-16.0562c-3.6685,0-4.9912.186-6.4946.4341l-.9619-2.2939c3.6079.3718,7.8774.3718,8.5391.3718h6.4946l2.9463-3.4717c.6016-.7439.6616-.8059.9624-.8059.3608,0,.9019.4958,1.0825.6819l3.7881,3.4719c.3608.3718.6016.5579.6016.9919,0,.5579-.541.6199-.9019.6199Z"/>
  <path class="b" d="M454.3535,77.1836c0,2.1077.1807,11.3452.1807,13.2051,0,2.48-3.127,2.604-3.4277,2.604-1.8042,0-1.8042-1.55-1.8042-2.1079,0-.4341,0-.7441.0601-1.054h-10.5835c0,6.4475,0,25.1084.1201,29.8823,0,.7439.2407,3.8438.2407,4.4636,0,2.356-3.3677,2.356-3.4277,2.356-1.3833,0-1.6841-.4961-1.6841-1.6741,0-.6199.1807-4.3396.1807-5.1455,0-7.0676,0-37.5701-.3608-43.2737-.1201-2.4797-.2407-3.5957-.5415-5.2695l5.8936,2.9758h9.7417l1.9243-1.9221c.3008-.3098.6616-.6199.9624-.6199.2402,0,.481.124.9619.4961l2.8867,2.0459c.0601.0618.541.4338.541.8679,0,.5579-.1802.7439-1.8643,2.1699ZM449.4829,75.6335h-10.644v5.2698h10.644v-5.2698ZM449.4829,82.3911h-10.644v5.9517h10.644v-5.9517ZM472.5142,107.3137h-8.7793c0,2.1079.481,11.4695.481,13.5771,0,2.418-2.7061,2.728-3.4277,2.728-1.0825,0-1.6235-.5581-1.6235-1.8599,0-.6201.1802-3.4099.1802-4.0298.1201-5.0837.0601-8.3696,0-10.4155h-4.9912c-.1201,1.55-.6011,6.6335-4.7505,10.6633-3.3677,3.3479-7.0356,4.5259-8.7798,5.0837v-.3098c2.2251-1.302,7.8174-5.5178,8.96-15.4373h-1.022c-3.6685,0-4.9912.124-6.4946.3721l-1.0225-2.2319c3.8486.3101,8.3589.3721,8.6597.3721.1201-2.356.1201-4.8977.0601-7.3157-3.127,0-4.5703.248-5.5327.4341l-.9619-2.2939c3.6079.3101,7.8774.3721,8.5391.3721h11.7266l1.5635-2.2319c.481-.6821.7217-.7441.9019-.7441.3008,0,.9019.4961,1.1426.6821l3.0669,2.1699c.1802.124.541.4958.541.9299,0,.6199-.481.6819-.9019.6819h-6.314v7.3157h1.8037l2.0449-2.356c.541-.6819.6011-.7439.9019-.7439.2407,0,.3008.062,1.0825.6199l3.2471,2.356c.1807.124.6016.4958.6016.9299,0,.5579-.4814.6819-.9023.6819ZM459.2847,98.5103h-4.5103c-.1201,4.0918-.1802,6.0137-.3003,7.3157h4.8706l-.0601-7.3157ZM479.6104,77.5554v12.6472c0,7.9355.1802,20.583.1802,28.4565,0,2.3557-.0601,6.3855-6.7349,7.6875-1.3232-2.9138-2.2852-4.4639-5.9536-6.5715v-.4961c.9624,0,5.1118.186,5.9536.186,1.5635,0,1.8643-.4341,1.8643-2.2319,0-11.3452,0-12.9573-.0605-27.4023h-10.7642c.0605.6819-.1201,1.3018-.541,1.7979-.481.5579-1.8643.9919-2.8262.9919-1.0825,0-1.5635-.5581-1.5635-1.5498,0-.6821.1802-3.782.1802-4.4019,0-1.6118-.0601-8.9275-.0601-10.4155,0-1.5498-.2407-3.1616-.481-5.0835l5.7129,2.9758h9.7417l1.5034-1.6121c.3008-.3101.7217-.7439,1.1426-.7439s.6616.248,1.022.4958l2.9468,2.1699c.3008.186.6016.5581.6016.9919,0,.4341-.1807.6201-1.8643,2.1079ZM474.8594,75.6335h-10.8242v5.2698h10.8242v-5.2698ZM474.8594,82.3911h-10.8242v5.9517h10.8242v-5.9517Z"/>
  <path class="b" d="M543.1182,122.5649h-29.1055c.1802,2.8518-1.9844,3.1619-3.0669,3.1619-.481,0-2.165-.248-2.165-1.9839,0-.3721.0605-1.426.1807-2.418.3608-3.8438.3608-9.7334.3608-11.9653v-8.2456c-2.105,2.356-4.2695,4.5879-6.8555,6.3857l-.2407-.3721c.0601,2.356.3008,12.7092.3008,14.8171,0,.9919,0,3.9058-3.3076,3.9058-2.2847,0-2.4653-1.4258-2.4653-2.5417,0-.3101.0601-1.9839.1201-2.418.3608-5.3936.6616-15.9949.6616-23.9304,0-2.728,0-4.6499-.1802-7.9355-1.624,2.6038-4.6304,6.8816-8.7197,9.8574l-.3008-.3101c1.5034-2.6658,10.9448-19.8389,12.3276-29.8203l5.7729,2.6658c.5415.248.7217.7441.7217,1.178,0,.6819-.7817,1.054-1.9844,1.488l-4.7505,9.2373,2.9463,1.302c.1206.062.7817.5579.7817.8679,0,.9919-1.6235,1.9219-1.9243,2.1079.0601,3.0378-.0601,16.677,0,19.4668,4.2095-5.1455,9.9824-17.3589,10.584-20.1487-.3608.124-.7217.2478-1.5034.2478-.3608,0-2.165,0-2.165-1.7358,0-.6199.2407-3.2859.2407-3.8438,0-2.0459-.1201-5.3318-.1807-7.3157-.0601-1.2397-.2402-1.6738-.541-2.3557l6.0737,1.116c.4209.062.8418.3098.8418.6819,0,.5579-.6616,1.054-1.4434,1.6118,0,5.1458,0,5.7659.1206,7.5017h7.1558c0-9.3616-.3608-10.5396-1.2627-13.2673l6.374,1.364c.4814.124,1.2031.3101,1.2031.9299,0,.4958-1.2632,1.4878-1.624,1.7358v9.2375h6.7954c.0601-3.0378.1802-8.2456-.7217-10.1675l6.1338,1.24c.4209.062.7217.186.7217.6819,0,.9299-.9624,1.488-1.3833,1.7358,0,2.2939.1206,5.8896.0601,8.1836-.0601,1.9219-1.6235,2.9138-2.8862,2.9138-1.0825,0-2.1045-.6199-2.1045-1.6738q0-.3721.1201-1.426h-18.5215c.0601,1.24-.1807,1.7361-.8418,2.2939l4.5098,2.356c.3608.1858.7817.5579.7817.9919,0,.7439-.8418.9299-2.2246,1.3638-.8423,1.364-1.624,2.542-3.1274,4.6499l.5415.3098h6.9756c.481-.9299,3.0068-5.9517,3.2471-10.4153l5.6528,2.8518c.481.248.7217.6819.7217,1.116,0,.6199-.8418.8059-1.9844,1.054-1.2632,1.5498-3.9692,3.7817-6.0737,5.3936h10.8843l2.4058-2.8518c.3003-.3101.6011-.8059.9619-.8059.4209,0,.7217.3101,1.0825.6199l4.0288,3.0378c.2407.186.4814.4961.4814.8679,0,.5581-.4814.6201-.9023.6201h-14.9136v6.6956h4.5103l2.165-2.9758c.2402-.3721.481-.7439.8418-.7439s.6616.3098,1.0825.6199l3.8486,3.0378c.2402.186.541.4961.541.8679,0,.5581-.481.6819-.9019.6819h-12.0874v6.6338h4.5103l2.0444-2.666c.2407-.3718.4814-.7439.9023-.7439.3608,0,.7217.3721,1.0825.6201l3.7881,2.7278c.2407.186.5415.5579.5415.9299,0,.5579-.481.6199-.9019.6199h-11.9673v7.0056h8.1787l2.2246-3.2239c.3008-.3718.6016-.8059.9624-.8059.4209,0,.7217.3721,1.0825.6201l4.5103,3.3477c.1802.124.541.5581.541.8679,0,.5581-.481.6821-.9019.6821ZM521.8901,97.7664h-7.9976v6.6956h7.9976v-6.6956ZM521.8901,105.9497h-7.9976v6.6338h7.9976v-6.6338ZM521.8901,114.0713h-7.9976v7.0056h7.9976v-7.0056Z"/>
  <path class="b" d="M597.7856,87.1648c-.0601,3.72-.0601,9.1755.1802,14.2593,0,.4961.2407,2.7898.2407,3.2239,0,2.6658-3.187,2.9138-3.7886,2.9138-1.9243,0-1.8643-1.054-1.8042-4.2778h-15.3945c0,6.0137.2407,12.2754.4209,18.2271.0605,1.178.0605,1.302.0605,1.4258,0,3.4099-3.4277,3.4099-3.6084,3.4099-1.9243,0-2.3452-1.24-2.3452-2.418,0-.3098.0601-1.1777.0601-1.4878.2407-6.0757.6016-12.5234.6016-15.9331v-3.2239h-14.9736c.1201,1.116.2402,2.6658.2402,3.0378,0,3.3479-3.4878,3.4099-3.668,3.4099-2.0444,0-2.0444-1.488-2.0444-2.48,0-.5579.1802-3.0999.1802-3.5957.2407-5.2698.2407-8.6794.2407-10.9734,0-4.7117-.1206-9.6094-.5415-12.2754l6.3745,3.2239h14.1318c-.0605-1.24-.1206-6.7576-.1807-7.8735-.0601-1.9839-.481-3.9058-1.0825-5.7656l7.2764,2.1079c.5415.1858,1.0825.4338,1.0825.9919,0,.9299-1.5635,1.8599-2.0444,2.1079-.0601,1.3638-.1206,7.1914-.1206,8.4314h14.9136l1.9844-2.2939c.1206-.1858.4209-.4338.8423-.4338.1802,0,.3003,0,.9019.4338l3.0669,2.1699c.8418.6199.9019.9919.9019,1.302,0,.5579-.2402,1.054-2.1045,2.3557ZM572.4087,91.2566c0-.5579-.0601-3.9058-.0601-6.1375h-14.9136v16.677h14.9736v-10.5396ZM592.6138,85.1191h-15.3345c-.0601,4.1536-.0601,5.4556-.0601,16.677h15.3945v-16.677Z"/>
</svg>