<?xml version="1.0" encoding="UTF-8"?>
<svg id="a" data-name="差し替え・追加" xmlns="http://www.w3.org/2000/svg" width="895.5293" height="216.9073" viewBox="0 0 895.5293 216.9073">
  <defs>
    <style>
      .b, .c {
        fill: #202852;
      }

      .d, .e {
        fill: #231f20;
      }

      .c {
        stroke-width: 1.1339px;
      }

      .c, .e, .f {
        stroke-miterlimit: 10;
      }

      .c, .f {
        stroke: #323255;
      }

      .e {
        stroke: #231f20;
        stroke-width: .5763px;
      }

      .f {
        fill: none;
        stroke-width: 1.4173px;
      }
    </style>
  </defs>
  <g>
    <path class="b" d="M337.7925,1.9202c-2.0884,0-2.7842.0479-3.0244.072-.0718,0-.4321.0479-.5039.0479-.0962,0-.144-.0479-.2163-.144l-.4561-.552q-.0957-.1199-.0957-.168c0-.0239.0239-.0481.0718-.0481.168,0,.9121.072,1.0562.072,1.1763.072,2.1602.0962,3.2881.0962h10.5371c.9839,0,1.104,0,1.2959-.1682.1924-.168.9604-1.1279,1.2002-1.1279.312,0,2.2324,1.4641,2.2324,1.6802,0,.24-.1201.24-1.272.24h-7.0811c-.7197,0-.7197.2639-.7197,1.6082,0,.7439.0239,7.2007.0479,7.3445.1201.384.48.384.7441.384h4.6802c1.1045,0,1.2241,0,1.5361-.408.6963-.96.7925-1.0562,1.0083-1.0562.4321,0,1.9922,1.6323,1.9922,1.7761,0,.312-.48.312-1.272.312h-7.9448c-.48,0-.7681.0962-.7681.8162,0,1.0081.0962,5.5444.0962,6.4565,0,1.1282,0,2.4722-1.2002,2.4722-.792,0-.792-.696-.792-.936,0-1.1282.144-6.0725.144-7.0806,0-1.5361,0-1.7283-.7686-1.7283h-4.896c-2.1123,0-2.8086.0481-3.0483.072-.0723,0-.4321.072-.5039.072-.0723,0-.1201-.072-.2163-.168l-.4561-.552c-.0962-.0959-.0962-.1201-.0962-.144,0-.0481.0244-.072.0723-.072.168,0,.9121.072,1.0562.0959,1.1763.0481,2.1841.072,3.312.072h4.8008c.2397,0,.5757,0,.6958-.2639.0962-.2161.0962-1.3201.0962-2.1123,0-.0959,0-6.4084-.0239-6.5044-.0483-.3601-.2881-.4561-.6484-.4561h-3.96ZM335.104,3.6724c.3359,0,3.9604,2.3281,3.9604,4.9443,0,.6721-.4321,1.2241-1.0562,1.2241-.6719,0-.7681-.3359-1.1763-1.9441-.0957-.384-.4077-1.6562-1.2241-3.0723-.0957-.144-.5757-.8401-.624-.9602,0-.072,0-.1919.1201-.1919ZM351.1377,5.2324c-.5283.2881-1.9683,2.5203-2.3042,2.9282-.8643.9841-1.9443,2.0403-2.2324,2.0403-.0718,0-.2158-.0481-.2158-.1921,0-.0239.4316-.72.48-.792,1.3921-2.2083,2.5439-4.6565,2.5439-5.8086,0-.4561,0-.5281.144-.5281.0483,0,2.2803,1.3442,2.2803,1.7522,0,.24-.0479.24-.6958.6001Z"/>
    <path class="b" d="M387.833,1.344c.4805,0,.5522-.1199.7925-.48.1919-.2881.3599-.408.4316-.408.0723,0,2.0884.792,2.0884,1.3682,0,.24-.144.384-.3599.5039-.2881.144-.4082.2642-.4082.5281,0,.072.1201,1.2722.1201,1.5122,0,1.4641-1.0322,1.5601-1.2964,1.5601-.4316,0-.5518-.1921-.7197-.5042-.0962-.168-.2642-.24-.6484-.24h-12.3608c-.792,0-.792.1921-.792,1.4163,0,5.1123-.624,10.1528-3.3364,13.4412-.168.2161-.792.8401-.8882.8401-.0479,0-.1196-.0481-.1196-.1201.0957-.1919.312-.5759.3838-.696,1.2002-2.3281,2.2563-5.1604,2.2563-11.761,0-2.1602-.1924-4.9685-.2881-5.6406-.0239-.24-.2881-1.4399-.2881-1.7041,0-.072.0479-.4319.3838-.4319.144,0,.8643.312,1.4644.5759.4561.1921.6963.24,1.2002.24h12.3848ZM386.1533,15.8413c1.0801,0,1.1997,0,1.5601-.4321.6958-.8398.7681-.9119.9839-.9119.168,0,2.1841,1.3201,2.1841,1.6321,0,.2639-.1919.3359-1.272.3359h-4.8965c-.7681,0-.7681.3601-.7681,1.0801,0,1.9202,0,2.1362.7441,2.1362h2.6162c.8643,0,1.0322-.0481,1.1519-.1919.1685-.1921.8164-1.2722,1.0562-1.2722.144,0,2.5444,1.416,2.5444,1.7522,0,.2639-.2158.3359-1.248.3359h-13.1055c-1.6079,0-2.52.0239-3.0479.072-.0723,0-.4321.0481-.5044.0481-.0718,0-.1196-.0481-.2158-.144l-.4561-.552c-.0718-.072-.0962-.1201-.0962-.1682,0-.0239.0244-.0479.0723-.0479.168,0,.9121.072,1.0562.072,1.1758.072,2.1841.0959,3.2881.0959h3.6963c.7202,0,.7202-.1919.7202-1.8721,0-1.0562,0-1.3442-.6963-1.3442h-1.1279c-1.7764,0-2.4722.0239-3.0244.072-.0718,0-.4316.0481-.5039.0481-.0962,0-.144-.0481-.2158-.144l-.4561-.552c-.0483-.072-.1201-.1201-.1201-.1682,0-.0479.0479-.0479.0957-.0479.1685,0,.9121.072,1.0562.072,1.1763.0479,2.4004.0959,3.2886.0959h.936c.6958,0,.6958-.408.6958-.8401,0-.48,0-2.1121-.8638-2.1121-.0962,0-3.6484.4561-3.9126.5759-.144.0481-.624.5762-.7681.5762-.168,0-.2158-.072-.4321-.5281-.5757-1.2002-1.0078-2.1123-1.0078-2.3523,0-.0959.0718-.1199.144-.1199.0239,0,.3838.1919.4561.24.168.072.6001.144,1.3682.168.3599.0239,1.896.072,2.208.072.7441,0,1.0083-.312,1.3203-.9841.168-.408.7441-1.7283.7441-2.0403,0-.384-.3364-.384-.5762-.384h-.7681c-1.8481,0-2.4722.0242-3.0244.072-.0957,0-.4321.0481-.5278.0481-.0723,0-.0962-.0481-.1924-.144l-.48-.5759c-.0718-.072-.0957-.1201-.0957-.144,0-.0481.0239-.0481.0957-.0481.144,0,.8882.072,1.0562.072,1.1763.0481,2.1602.072,3.2886.072h6.5522c1.1284,0,1.248,0,1.4644-.168.2158-.1921,1.104-1.176,1.3442-1.176.168,0,1.9199,1.344,1.9199,1.656s-.2642.3359-1.272.3359h-7.0327c-.1201,0-.1919,0-.1919.072,0,.0481.6479.6721.6479.8401,0,.144-.6479.312-.7441.4082-.1201.1199-1.4399,1.584-1.4399,1.824,0,.2642.4561.2642.6479.2642.6001,0,4.4165-.144,5.2324-.1921.0962,0,.3843-.0239.3843-.2161,0-.2639-1.4165-1.584-1.4165-1.728,0-.0481.0239-.1201.1201-.1201.2402,0,1.8481.8643,2.2563,1.1042,1.896,1.0801,2.5679,1.488,2.5679,2.6643,0,.7439-.4077,1.2-.96,1.2-.3838,0-.4321-.072-1.1279-1.2241-.624-1.0562-.7441-1.104-1.0801-1.104-.0723,0-3.9844.6001-4.5845.6721-.312.0479-.5762.0718-.5762.1919,0,.24,1.6802.624,1.6802,1.0081,0,.168-.0718.24-.3838.5281-.168.168-.168.24-.168.936,0,.6001.4561.6001.7197.6001h1.4165ZM375.4482,1.968c-.2642,0-.8164,0-.8164.6243,0,1.8721,0,1.9441.8403,1.9441h12.2412c.7437,0,.8638-.168.8638-1.7041,0-.5042-.0239-.8643-.8159-.8643h-12.313Z"/>
    <path class="b" d="M422.105,2.2561c1.2959,0,1.584,0,1.9922,1.0801.1919.5281,1.2241,3.2402,1.2241,3.4805,0,.2639-.2402.3599-.3843.3599-.1919,0-.2642-.0959-.8159-1.0081-1.2725-2.0881-2.6885-3.1201-4.3203-3.1201-.9365,0-1.5122.3838-1.6562,1.2-.0723.4321-.0723,5.8564-.0723,6.8645,0,.6721,0,6.2166.0723,6.6248.2158,1.2241,1.3442,1.248,1.9922,1.248.8882,0,1.0801,0,1.0801.384s-.3359.384-.7202.384h-6.7207c-.3359,0-.6958,0-.6958-.384s.3838-.384.5278-.384c1.416,0,2.3042,0,2.5444-1.248.0718-.384.0718-.4082.0718-6.7927,0-5.9285,0-6.5764-.168-7.0325-.2397-.6482-.8882-.864-1.5361-.864-1.9199,0-3.3364,1.512-4.3203,3.0962-.5762.936-.624,1.032-.8398,1.032-.1685,0-.3843-.144-.3843-.3599,0-.1921,1.0801-3.0723,1.272-3.5525.3843-1.0081.7681-1.0081,1.9683-1.0081h9.8892Z"/>
    <path class="b" d="M449.7759,20.2097c-4.6323,0-7.8486-3.7922-7.8486-9.1929s3.1924-9.2168,7.8486-9.2168c4.6084,0,7.8247,3.7925,7.8247,9.2168,0,5.3765-3.1919,9.1929-7.8247,9.1929ZM455.3203,10.8008c0-2.208-.624-8.2085-5.5444-8.2085-5.3765,0-5.5684,7.0564-5.5684,8.6406,0,2.3042.6963,8.1848,5.5684,8.1848,5.3525,0,5.5444-6.9846,5.5444-8.6169Z"/>
    <path class="b" d="M480.7114,2.2561c.9121,0,6.8408,0,6.8408,4.5364,0,2.4963-1.9204,4.6804-6.2163,4.6804h-2.3047c-.6479,0-.6479.1921-.6479,2.0161,0,4.3926,0,4.4165.2642,4.8245.3838.552.9839.6721,1.6079.6721.5283,0,.8164,0,.8164.384s-.3359.384-.6724.384h-5.9282c-.3604,0-.6963,0-.6963-.384s.3604-.384.6001-.384c.8164,0,1.8481,0,2.0884-1.248.0718-.384.0718-.4082.0718-6.7927,0-1.1279,0-6.2644-.0718-6.6726-.2163-1.1521-1.248-1.2239-1.8242-1.2239-.6001,0-.8643,0-.8643-.3843,0-.408.3359-.408.6963-.408h6.2402ZM480.8555,10.6809c3.1685,0,4.4165-1.7522,4.4165-3.7922,0-2.6404-1.9443-3.8403-4.1284-3.8403h-1.0317c-1.7285,0-1.7285,1.0559-1.7285,3.144,0,.3362,0,3.7444.0239,3.9604.0483.3601.312.5281.624.5281h1.8242Z"/>
    <path class="b" d="M503.7031,19.7537c-.312,0-.6719,0-.6719-.384s.1919-.384,1.1279-.384c.6958,0,1.8481,0,2.0879-1.248.0723-.4082.0723-5.9285.0723-6.6248,0-.9839,0-6.4084-.0723-6.8406-.2397-1.2239-1.104-1.2239-2.688-1.2239-.144,0-.5278,0-.5278-.3843,0-.408.3599-.408.6958-.408h7.0566c.2881,0,.6479,0,.6479.408,0,.3601-.2158.3601-1.104.3601-.7202,0-1.752.0242-2.064,1.1042-.0962.3359-.0962,5.7363-.0962,6.8406,0,6.3604,0,6.3845.0718,6.7686.2163,1.248,1.0801,1.248,2.6885,1.248.1201,0,.5039,0,.5039.384s-.3599.384-.6479.384h-7.0806Z"/>
    <path class="b" d="M539.752,2.0881c0,.0239,1.5601,3.7922,1.5601,4.0564,0,.2639-.2397.4319-.4561.4319-.2158,0-.2637-.072-.7681-.7681-2.04-2.8801-4.1763-3.2161-5.1846-3.2161-3.7681,0-5.7124,4.6084-5.7124,8.7607,0,5.5684,3.2646,7.7527,6.1206,7.7527,1.6802,0,3.6006-.7202,5.1846-3.4084.5518-.936.5518-.96.7441-.96.1919,0,.3599.168.3599.384s-.6001,1.4641-1.3682,2.4241c-2.0161,2.4963-4.5601,2.6643-5.6406,2.6643-5.064,0-7.5366-4.1042-7.5366-8.8088,0-5.6165,3.4805-9.6008,7.5366-9.6008.6001,0,1.2964.0959,2.0405.2881.168.072,1.2959.384,1.4399.384.1919,0,.48-.072.6479-.24.3843-.384.4321-.4321.624-.4321.144,0,.3364.144.4082.2881Z"/>
    <path class="b" d="M558.6147,18.8655c-.168-.4319-1.2002-3.1443-1.2002-3.2881,0-.3601.312-.5042.5283-.5042.2637,0,.312.1201.8882,1.0081,1.0557,1.6562,3.2158,3.2883,5.6401,3.2883,1.6084,0,3.5522-1.0801,3.5522-3.6243,0-2.1843-1.4399-2.9524-4.4883-4.0083-3.3364-1.1521-5.5444-2.4243-5.5444-5.2805,0-2.4963,1.728-4.6565,4.8003-4.6565.48,0,1.0801.072,1.7041.1921.2642.0479,1.2725.2639,1.4404.2639.2158,0,.3838-.0479.5278-.144.3359-.2639.3843-.312.5522-.312.2881,0,.3599.2161.6001.8401.168.384,1.2959,3.2163,1.2959,3.3604,0,.312-.2642.384-.4082.384-.1919,0-.2397-.072-.624-.696-.6479-1.0322-1.9438-3.0962-4.896-3.0962-2.6885,0-3.2646,2.1602-3.2646,3.1682,0,1.9922,1.4404,2.7122,4.5845,3.8162,4.8486,1.6802,5.4966,3.6003,5.4966,5.4485,0,3.2405-2.5444,5.1846-5.2085,5.1846-.8643,0-1.7041-.168-2.5923-.48-.6479-.2161-.8159-.24-.96-.24-.3843,0-.6963.0959-.9121.312-.4082.3599-.4561.408-.6963.408-.312,0-.3599-.144-.8159-1.3442Z"/>
  </g>
  <line class="e" x1="290.7469" y1="53.4147" x2="290.7469" y2="192.2964"/>
  <line class="e" x1="610.7469" y1="53.4147" x2="610.7469" y2="192.2964"/>
  <g>
    <g>
      <g>
        <path class="d" d="M6.748,114.6211c-.168-.252-.1963-.3079-.1963-.3921,0-.1399.1123-.168.252-.168,1.4839,0,3.5562,1.6521,3.5562,2.3801,0,.252-.1401.3359-.5039.5879-.4199.252-.5879.532-1.1479,1.3162-3.3882,4.8438-8.0923,6.6079-8.4839,6.6079-.1685,0-.2241-.1401-.2241-.196,0-.1121.084-.196.7837-.7561,4.312-3.584,6.272-7.4478,6.272-8.4558,0-.448-.1396-.6721-.3076-.9241ZM14.7837,114.425c.1401,0,1.3999.5042,2.8003,1.4561,1.9878,1.3721,4.5078,4.0039,4.5078,5.8799,0,.4202-.1958,1.624-1.3999,1.624-1.0083,0-1.4839-1.0078-1.9321-2.4639-.6157-1.96-.98-2.9121-2.9121-4.9841-.1958-.1958-1.2598-1.1758-1.2598-1.2598,0-.1401.0562-.2522.1958-.2522ZM23.604,112.2971c0,1.4841-1.2324,2.7439-2.6602,2.7439-1.2881,0-2.7158-1.064-2.7158-2.7158,0-1.428,1.064-2.688,2.7158-2.688,2.0439,0,2.6602,1.708,2.6602,2.6599ZM19.1519,112.3811c0,1.176,1.0361,1.708,1.8198,1.708,1.2041,0,1.708-1.064,1.708-1.7361,0-1.064-1.0078-1.7639-1.792-1.7639-.644,0-1.7358.5601-1.7358,1.792Z"/>
        <path class="d" d="M35.7842,117.813c-.5044,0-2.1284.3081-2.688.4202-.6162.1121-3.6963.7839-3.8081.7839-.6719,0-.812-.1399-2.2119-1.512-.728-.728-.7842-.812-.7842-1.0081,0-.0559.0278-.196.1958-.196.1685,0,.9243.2241,1.1201.28.728.196,1.2603.28,2.1279.28,1.3721,0,6.188-.4761,6.832-.7559.3643-.1682.3921-.4202.4482-.9802.084-.7278.1396-2.0718.1396-2.7998,0-1.624-.1396-2.3801-.4478-2.884-.084-.1399-.5039-.7-.5039-.8401,0-.2239.9238-.2239,1.2041-.2239.8398,0,2.688,1.4839,2.688,2.072,0,.1958-.4204.896-.4761,1.0359-.1963.5042-.4761,3.136-.4761,3.5281,0,.5039.168.7839.728.7839.5317,0,2.52-.3081,3.1919-.5601,1.3999-.532,1.7642-.6719,2.3521-.6719.7559,0,2.7441.5039,2.7441,1.7639,0,.8401-1.4844.8401-1.9604.8401-.3916,0-2.1279-.1401-2.4917-.1401-.252,0-3.9482.196-4.48.4202-.3081.1118-.5039.3638-.6719,1.0918-1.2881,5.0962-1.96,7.7842-5.0122,10.6401-.98.896-1.96,1.4839-2.1001,1.4839-.1118,0-.1396-.084-.1396-.1399,0-.084.8677-1.1201,1.3999-1.876,2.1279-2.968,2.7998-5.4041,3.2197-6.916.5044-1.9041.5884-3.1921.5884-3.2761,0-.4199-.2803-.644-.728-.644Z"/>
        <path class="d" d="M57.4277,116.5251c0,1.344-.98,1.512-1.1479,1.512-.6162,0-.728-.168-1.96-2.2959-.6162-1.0361-1.064-1.5122-2.2402-2.7161-.0562-.0559-.168-.168-.168-.252,0-.1121.168-.084.2241-.084,1.1758.252,5.292,1.0359,5.292,3.8359ZM67.8994,114.8452c-.3359.532-1.5679,3.136-1.8477,3.6399-2.0439,3.696-4.7603,7.0559-8.3442,9.2959-1.4839.9241-2.9678,1.54-3.1079,1.54-.084,0-.1401-.084-.1401-.1399,0-.1121,2.52-2.2122,2.9683-2.6321,6.7759-6.188,8.4277-13.1599,8.4277-13.552,0-.4758-.3359-1.0359-.7837-1.428-.0283-.0281-.1401-.1399-.1401-.2239,0-.252.6157-.252.728-.252,1.064,0,1.3721.2239,2.0439.7839.2798.252,1.1758,1.0359,1.1758,1.6519,0,.2522-.8398,1.1201-.98,1.3162Z"/>
        <path class="d" d="M77.1401,123.1331c3.332,0,6.1597-.364,7.9238-.616.7559-.1121,3.9478-.7,4.6201-.7.812,0,4.228.5601,4.228,1.9041,0,.6438-1.0923.812-1.5684.812-.2236,0-.8677-.1121-1.54-.2241-.9238-.1399-1.96-.2241-3.1636-.2241-2.3521,0-8.2603.644-9.8003.896-.3921.0562-2.436.5322-2.4639.5322-.3359,0-1.54-.6162-1.96-1.0361-.5039-.4761-.8398-1.792-.8398-1.8479,0-.196.1118-.252.252-.252.084,0,.2236.0278.3076.0559,1.8203.5879,2.1284.7,4.0044.7ZM78.792,114.145c.896,0,4.8999-.5598,6.02-.7559.3921-.0562,2.1001-.3921,2.436-.3921,1.2881,0,2.4917.644,2.4917,1.4001,0,.7-1.0356.7559-4.0879.896-1.0918.0559-6.4961.7839-6.7197.7839-.7842,0-1.3721-.6721-1.5122-.8679-.084-.1121-.7559-.9521-.7559-1.0081,0-.084.2241-.1401.3921-.1401s1.4556.084,1.7358.084Z"/>
        <path class="d" d="M101.248,121.509c0,.7839-.644,1.064-.9521,1.064-.6157,0-.812-.6438-1.0078-1.26-.252-.7839-.8682-1.876-1.624-2.8279-.1401-.196-.1958-.28-.1958-.364,0-.168.168-.252.3638-.252.6719,0,3.416,1.3999,3.416,3.6399ZM109.8999,115.7412c0-.0281-.0557-.168-.0557-.2522,0-.1399.1118-.1958.1958-.1958.2241,0,1.064.5879,1.2603.7.4478.2239,1.5679.896,1.5679,1.708,0,.2239-.1123.252-.5879.532-.2241.1399-1.2041,2.0439-1.4282,2.408-4.2842,7.1121-11.1719,9.884-11.396,9.884-.084,0-.168-.084-.168-.1682,0-.1399,1.3159-.98,1.5679-1.1758,5.9644-4.564,9.2402-9.8281,9.2402-12.2361,0-.5601-.0562-.8679-.1963-1.2039ZM105.5322,118.457c0,.812-.4482,1.428-.9521,1.428-.6157,0-.7559-.7-.8398-1.176-.1963-.896-.2803-1.1479-1.0361-2.6599-.0562-.1121-.3081-.5039-.3081-.616,0-.084.1401-.168.2803-.1399,1.3159.1958,2.856,1.5959,2.856,3.1638Z"/>
        <path class="d" d="M123.6768,109.9172c0-.28.3921-.28.6157-.28,1.96,0,2.604,1.4561,2.604,1.5679,0,.3359-.2798.7-.8398,1.4001-.1401.1958-.2241.3079-.2241.448,0,.2239.3359.2239.4482.2239.2798,0,2.3521-.3079,4.2559-1.1199.3359-.1401,1.0078-.448,1.3159-.448.252,0,.3921.084,1.54.7559.168.084.896.4761,1.0361.5601.3081.196.5317.4761.5317.7,0,.3921-.1958.5039-1.1196,1.064-.3081.196-.4204.364-1.4004,1.876-1.4277,2.24-4.4517,6.832-10.0239,10.5281-3.0801,2.0159-5.4038,2.688-5.5718,2.688-.1401,0-.252-.1121-.252-.252,0-.1121.084-.1682.9517-.644,8.54-4.7041,13.8604-14.252,13.8604-15.1199,0-.2522-.2241-.3081-.3081-.3081-.0562,0-3.9199.8679-4.5923.8679-.168,0-.9238-.084-1.0918-.084-.5317,0-.5879.0562-1.7642,1.4001-1.708,1.9038-2.4077,2.6318-3.8076,3.6399-1.1479.8401-2.3521,1.4839-2.688,1.4839-.1401,0-.1963-.084-.1963-.168,0-.196,1.876-1.7639,2.2119-2.0999,2.2681-2.2681,4.9282-6.1321,4.7041-7.812-.0278-.1401-.1958-.7561-.1958-.8679Z"/>
        <path class="d" d="M139.4692,124.5332c0-.5322.252-.812,1.064-1.3162,1.0918-.6719,2.52-1.96,2.7437-2.156.1401-.1399.4482-.4199.5601-.4199s.1401.252.1401.3359c0,1.3159-1.3159,4.7041-3.1641,4.7041-.2241,0-.3921-.0562-.5322-.1121-.3638-.1121-.8115-.4761-.8115-1.0359ZM150.4448,126.3811c0,.4199,0,2.2681-1.4839,2.2681-.6162,0-.6719-.1682-1.2598-1.792-.3364-.896-.4761-1.1201-1.0361-1.988-.1123-.196-.168-.252-.168-.3359,0-.0842.0557-.1121.1118-.1121.1963,0,1.1201.364,1.3159.364.3643,0,.5044-.3081.5601-.7561.1401-1.3159.1401-4.116.1401-5.6279,0-1.344-.0562-1.8479-.812-1.8479-.168,0-3.5278.4758-5.1802.896-.168.0559-.9517.3079-1.1196.3079-.6162,0-2.0161-1.9041-2.0161-2.4639,0-.1401.0278-.2522.1958-.2522.1123,0,.168.0281.5322.1682.644.2798,2.0718.2798,2.4917.2798.644,0,3.668-.168,4.5083-.1958,1.064-.0562,1.3438-.2522,1.3438-1.176s-.168-2.772-.5879-3.584c-.0562-.1401-.5322-.5881-.5322-.728,0-.084.3081-.28.9521-.28,1.9321,0,2.6318,1.2319,2.6318,1.4561,0,.168-.4478.7839-.5039.9238-.252.5042-.252,1.8762-.252,2.156,0,.8682.3643,1.0081,1.0923,1.0081.896,0,2.2397-.2239,2.7158-.28.3638-.0559,1.8481-.4199,2.1558-.4199.8403,0,1.792.4199,2.7163.9519.3081.196.6997.4202.6997.896,0,.532-.6157.5601-.728.5601-.4199,0-2.2397-.3079-2.6318-.364-1.064-.1121-3.1079-.1399-3.332-.1399-2.4077,0-2.6597,0-2.6597,1.5959,0,1.344.1396,7.3079.1396,8.512ZM157.1929,124.365c-.4761-1.176-1.3438-2.6318-2.2681-3.4438-.4199-.3921-1.1196-1.0361-1.1196-1.176,0-.1401.1396-.1401.1958-.1401,1.4839,0,5.9917,2.7161,5.9917,5.0681,0,.644-.3359,1.5679-1.2598,1.54-.7842,0-1.0361-.644-1.54-1.8481Z"/>
        <path class="d" d="M184.1289,117.813c.168,0,.4761-.0278.6162-.0278,1.708,0,1.96,1.0359,1.96,1.2319,0,.7839-1.1479.8679-2.3242.8679-.6436,0-3.4438-.0559-4.0039-.0559-3.8638,0-10.2759.364-10.9478.5039-.3359.0562-1.8481.5042-2.1841.5042-1.2041,0-2.4922-1.7361-2.4922-2.688,0-.168.0845-.3362.2241-.3362.1401,0,.812.3081.9521.3362.4761.1399,1.624.252,3.416.252.9238,0,10.6958-.364,14.7837-.5881Z"/>
        <path class="d" d="M196.1416,123.0491c.8677,0,2.7441-.168,6.4399-.812,4.1157-.7,4.1157-.8401,4.1157-1.176s-.252-.8679-.812-1.6519c-.2236-.364-.6436-.98-.6436-1.064s.084-.1682.1958-.1682c.812,0,5.04,3.4441,5.04,6.188,0,1.876-1.3442,1.9602-1.54,1.9602-.9521,0-1.064-.7002-1.4282-2.5481-.252-1.344-.3638-1.5959-.7837-1.5959-.1401,0-6.4683,1.9319-7.6719,2.2678-.7563.196-4.4243,1.0361-4.6763,1.1482-.1958.084-.8677.896-1.064.896-.252,0-.252-.0281-1.4839-1.2322-.3359-.3359-.728-1.96-.728-2.24,0-.084,0-.1958.1118-.1958.1401,0,.7002.2239.812.252.2241.0559.6724.1399,1.0083.1399,1.1758,0,1.7358-.364,3.248-3.1079,1.2319-2.2681,3.752-7.364,3.752-9.4919,0-.1401-.0562-.812-.0562-.9241,0-.1399.0278-.3079.1958-.3079.1963,0,2.772,1.876,2.772,2.856,0,.4758-.3076.7559-.8677,1.2878-.4482.4202-3.668,5.46-4.3682,6.468-.3081.4199-1.9038,2.4919-1.9321,2.604-.0278.28.1123.448.3643.448Z"/>
        <path class="d" d="M225.4575,113.7251c-.1958,0-6.104,1.3999-6.2158,1.428-.1963.0562-1.064.532-1.2603.532-.4199,0-1.7358-.8398-1.876-1.0078-.2236-.196-.6997-1.4282-.6997-1.624,0-.1121.0278-.2241.168-.2241.0278,0,.644.168.728.196.8677.252,1.2036.28,1.5117.28.9243,0,6.188-.448,7.644-1.0361.2803-.1118,1.2881-.8679,1.54-.8679.6719,0,2.3799,1.428,2.3799,2.1279,0,.2522-1.0361,1.0081-1.2041,1.2041-.5596.7-2.7437,3.948-3.2197,4.592-.084.1399-.2241.3359-.2241.5598,0,.2522.0562.3081,1.2319.9521,1.2603.728,6.3003,3.5559,6.3003,6.104,0,.6438-.5044,1.2319-1.1763,1.2319-.644,0-.7559-.196-1.7358-1.9321-1.9321-3.3879-4.396-5.5159-4.9839-5.5159-.3081,0-.3921.084-1.0083.7839-.98,1.0361-3.8359,4.1721-7.4756,5.9641-.7563.3918-1.5122.6719-1.7363.6719-.0557,0-.1958,0-.1958-.168,0-.1121,1.1201-.9241,1.2881-1.0359,7.3359-5.292,10.6396-12.5439,10.5557-12.9919-.0557-.2241-.2798-.2241-.3359-.2241ZM233.9976,112.6611c0,.3921-.3359,1.064-.8398,1.064-.4204,0-.6724-.252-1.4282-1.344-.4761-.7-.7842-.9519-1.8198-1.8201-.1123-.084-.3921-.3359-.3921-.448,0-.1399.2798-.1958.5039-.1958,1.9883,0,3.9761,1.4839,3.9761,2.7439ZM236.4058,110.1692c0,.3079-.2241.8398-.728.8398-.5884,0-.9243-.4199-1.4282-1.064-.4761-.532-1.5679-1.2319-2.4639-1.5679-.2803-.1121-.3643-.2241-.3643-.3081,0-.168.5039-.3359,1.064-.3359,2.4082,0,3.9204,1.26,3.9204,2.436Z"/>
        <path class="d" d="M250.0698,111.0371c0,.084.0562.196.0562.3081.1118.896.2798,1.792.2798,3.0239,0,1.876-.4199,4.48-2.8838,8.2039-2.2402,3.416-3.668,4.0881-4.7881,4.0881-1.8481,0-3.5-2.884-3.5-6.3,0-1.4839.3081-4.312,3.1079-7.1399,3.5562-3.6401,7.3081-3.6401,8.9321-3.6401,2.5479,0,3.7241.5042,4.5078.896,3.0239,1.4841,4.8721,4.48,4.8721,8.1479,0,3.6401-2.1001,8.1201-7.0557,9.856-2.3804.8401-4.228,1.0361-4.6484,1.0361-.1118,0-.2798-.0281-.2798-.196,0-.084.0562-.1121.7559-.3921,2.9121-1.1479,8.9883-3.5559,8.9883-10.5278,0-1.092-.1123-7.7561-7.7563-7.7561-.5596,0-.5879.2241-.5879.3921ZM240.9702,119.6331c0,1.8201.7275,4.312,2.4355,4.312.812,0,1.4844-.3359,3.416-3.248,1.4844-2.2678,2.7441-5.376,2.7441-8.1479,0-1.6799-.1118-1.8198-.4761-1.8198-2.6597,0-8.1196,3.6118-8.1196,8.9038Z"/>
        <path class="d" d="M92.144,161.0374h9.9087v2.9956h-9.9087v7.9629h-3.4053v-7.9629h-10.0112v-2.9956h10.0112v-8.6287h-8.9614v-2.9189h21.2256v2.9189h-8.8589v8.6287ZM84.2578,153.3303c1.127,1.7156,2.2534,4.1992,2.8423,5.8635-.4863.1792-2.5605,1.1008-2.9702,1.3057-.4097-1.2034-1.4595-3.9429-2.8164-5.9912l2.9443-1.178ZM99.4414,154.0986c.1792.0767.5122.1792.5122.4607,0,.2817-.333.3074-.7427.333-.9473,2.6116-1.6133,4.071-2.5347,5.812-.4868-.2305-2.5352-1.0498-3.0474-1.229.8452-1.5105,2.2534-4.6343,2.6372-6.5291l3.1753,1.1523Z"/>
        <path class="d" d="M127.832,149.3105v5.8889h-17.5649c-.1533,7.374-.2305,12.4692-2.4067,16.8989-.7168-.384-1.4595-.6914-3.0723-.9988,1.9971-3.687,2.458-6.9897,2.458-16.105v-5.6841h20.5859ZM120.4321,164.6475h5.812v2.4067h-5.812v1.6899h8.2446v2.458h-18.4863v-2.458h7.0923v-1.6899h-6.0425v-2.4067h6.0425v-1.6387c-.8447.0513-4.5317.2305-5.2998.2817-.1279.1792-.2817.4097-.5122.4097-.2046,0-.3584-.2561-.3843-.4866l-.3584-2.4067c.3076,0,2.5352-.0256,2.9961-.0513.7422-1.1521,1.0493-1.6899,1.3057-2.1506h-4.2759v-2.2534h17.8203v2.2534h-4.0195c1.9712,1.7666,2.6372,2.3555,3.7637,3.8149-.7681.384-1.895,1.5361-2.2788,2.074-.3071-.5378-1.0244-1.3059-1.5874-1.946-.5122.0513-1.4854.1282-3.5078.2561.0767.0513.1792.1279.1792.2817,0,.2815-.2305.3328-.6914.4863v1.0754ZM110.2671,151.5637v1.4338h14.4668v-1.4338h-14.4668ZM121.5073,158.605h-2.7139c.0259.3071-.2305.3584-.8447.4607-.333.5378-.8452,1.3572-1.0244,1.6387,1.4595-.0767,3.7896-.1536,5.5049-.2815-.4609-.3843-.563-.4866-1.6641-1.3059l.7422-.512Z"/>
        <path class="d" d="M136.2515,170.4597v1.5361h-3.1235v-11.7268h10.0879v11.2402h-3.0723v-1.0496h-3.8921ZM140.1436,167.8479v-4.7366h-3.8921v4.7366h3.8921ZM150.897,149.1313v9.3967h-13.3652v-9.3967h13.3652ZM140.7324,151.8452v4.0457h6.9644v-4.0457h-6.9644ZM148.2085,170.4597v1.5361h-3.1235v-11.7268h10.2163v11.7268h-3.0728v-1.5361h-4.02ZM152.2285,167.8479v-4.7366h-4.02v4.7366h4.02Z"/>
        <path class="d" d="M168.6108,157.4014h-2.7656v-2.8164h-1.792c-.5635,2.4324-1.562,3.687-2.3301,4.4807-.896-.845-2.0483-1.2034-2.6626-1.3569,2.4067-2.1252,2.3296-5.4792,2.2529-8.6543l1.9204.3328c1.562-.0254,4.0454-.3584,5.6328-1.0496l1.2803,2.0994c.0254.0513.1025.2305.1025.3074,0,.1279-.1025.2305-.2305.2305s-.1792-.0256-.6401-.2561c-2.2275.4866-3.2773.6401-5.0439.7937-.0259.384-.0259.4866-.0513.9219h6.606v2.1506h-2.2788v2.8164ZM179.4155,157.9136v10.0369h-2.2529c.8706.4609,2.4321,1.2546,5.1206,1.741-.6655.717-1.4082,1.8435-1.792,2.5093-2.3047-.5889-5.3003-1.9204-7.5278-3.3286l1.0244-.9216h-6.3755l1.0498.845c.2559.2048.3325.2559.3325.4097,0,.2305-.2812.2305-.3838.2305-.1792,0-.2817,0-.4868-.0256-1.8179.896-4.1221,2.0483-6.6567,2.7651-.5122-1.2034-1.3828-2.0483-1.7412-2.4067,1.6641-.3584,3.8662-1.1267,5.0952-1.8179h-2.0737v-10.0369h8.9868c-.333-.333-1.2803-1.0754-2.2275-1.3569,2.2021-1.7925,2.4326-3.2007,2.3042-7.4766l1.2036.1536c1.8945.0513,4.8135-.4097,6.606-1.0242l1.5361,2.0483c.0767.0769.1279.2305.1279.333,0,.1279-.1021.2048-.2812.2048-.0771,0-.5894-.1282-.6147-.1538-2.2788.4866-5.3003.717-5.812.7427,0,.4353,0,.6145-.0513,1.0498h8.0396v2.1506h-3.5845v2.8164h-2.9443v-2.8164h-1.8691c-.1284.333-.7427,1.9204-1.9971,3.3286h7.2456ZM165.8965,160.7812h10.4468v-.9219h-10.4468v.9219ZM176.3433,162.343h-10.4468v.9219h10.4468v-.9219ZM176.3433,164.8267h-10.4468v.9473h10.4468v-.9473Z"/>
      </g>
      <g>
        <path class="b" d="M104.3599,61.7966c.6475,0,.7915,0,.9951.5398.0962.2637.6118,1.6189.6118,1.739,0,.1318-.1201.1799-.1919.1799-.0957,0-.1318-.0481-.4077-.5039-.6357-1.0435-1.3433-1.5591-2.1587-1.5591-.4678,0-.7559.1919-.8276.5996-.0361.2158-.0361,2.9265-.0361,3.4302,0,.3359,0,3.1062.0361,3.3101.1079.6118.6714.6238.9956.6238.4434,0,.5396,0,.5396.1919s-.168.1919-.3599.1919h-3.3584c-.1675,0-.3477,0-.3477-.1919s.1919-.1919.2637-.1919c.708,0,1.1514,0,1.2715-.6238.0361-.1919.0361-.2039.0361-3.394,0-2.9624,0-3.2861-.084-3.5142-.1201-.3237-.4438-.4316-.7676-.4316-.9595,0-1.667.7556-2.1587,1.5471-.2881.4678-.312.5159-.4199.5159-.084,0-.1919-.072-.1919-.1799,0-.0959.5396-1.5352.6357-1.7751.1919-.5037.3838-.5037.9834-.5037h4.9414Z"/>
        <path class="b" d="M113.397,70.7676c-2.3149,0-3.9219-1.8948-3.9219-4.5933s1.5952-4.6055,3.9219-4.6055c2.3027,0,3.9097,1.8948,3.9097,4.6055,0,2.6865-1.5952,4.5933-3.9097,4.5933ZM116.1675,66.0662c0-1.1033-.312-4.1016-2.7705-4.1016-2.6865,0-2.7827,3.5259-2.7827,4.3176,0,1.1514.3481,4.0896,2.7827,4.0896,2.6743,0,2.7705-3.49,2.7705-4.3057Z"/>
        <path class="b" d="M124.0649,61.7966c.4561,0,3.4185,0,3.4185,2.2668,0,1.2471-.9595,2.3386-3.1064,2.3386h-1.1514c-.3237,0-.3237.0959-.3237,1.0073,0,2.1948,0,2.2068.1318,2.4109.1919.2756.4917.3357.8037.3357.2637,0,.4077,0,.4077.1919s-.168.1919-.3359.1919h-2.9624c-.1797,0-.3477,0-.3477-.1919s.1797-.1919.2998-.1919c.4077,0,.9233,0,1.0435-.6238.0356-.1919.0356-.2039.0356-3.394,0-.5637,0-3.1304-.0356-3.3342-.1079-.5757-.6235-.6116-.9116-.6116-.2998,0-.4316,0-.4316-.1919,0-.2039.168-.2039.3477-.2039h3.1182ZM124.1372,66.0063c1.583,0,2.2065-.8755,2.2065-1.895,0-1.3193-.9712-1.9189-2.063-1.9189h-.5156c-.8633,0-.8633.5278-.8633,1.571,0,.168,0,1.8711.0117,1.979.0244.1799.1562.2639.312.2639h.9116Z"/>
        <path class="b" d="M130.7627,70.5398c-.1558,0-.3354,0-.3354-.1919s.0957-.1919.5635-.1919c.3477,0,.9233,0,1.0435-.6238.0361-.2039.0361-2.9622.0361-3.3101,0-.4917,0-3.2021-.0361-3.4182-.1201-.6116-.5518-.6116-1.3433-.6116-.0718,0-.2637,0-.2637-.1919,0-.2039.1797-.2039.3477-.2039h3.5259c.144,0,.3237,0,.3237.2039,0,.1799-.1079.1799-.5513.1799-.3599,0-.8755.012-1.0317.5518-.0479.1677-.0479,2.8665-.0479,3.418,0,3.1782,0,3.1902.0361,3.3821.1079.6238.5396.6238,1.3433.6238.0601,0,.2515,0,.2515.1919s-.1797.1919-.3237.1919h-3.5381Z"/>
        <path class="b" d="M143.9834,61.7126c0,.012.7793,1.895.7793,2.0269,0,.1321-.1196.2158-.228.2158-.1079,0-.1318-.0359-.3838-.3838-1.019-1.4392-2.0864-1.6069-2.5903-1.6069-1.8828,0-2.8545,2.3027-2.8545,4.3774,0,2.7825,1.6313,3.874,3.0586,3.874.8394,0,1.7988-.3599,2.5903-1.7031.2759-.4678.2759-.4797.3721-.4797.0957,0,.1797.084.1797.1919s-.2998.7314-.6836,1.2114c-1.0073,1.2471-2.2788,1.3311-2.8184,1.3311-2.5308,0-3.7661-2.0508-3.7661-4.4014,0-2.8066,1.7393-4.7974,3.7661-4.7974.2998,0,.6475.0479,1.0195.1438.0835.0359.6475.1919.7192.1919.0962,0,.2397-.0359.3237-.1199.1919-.1919.2163-.2158.312-.2158.0718,0,.168.0718.2041.1438Z"/>
        <path class="b" d="M156.1235,73.5798c-.4399,0-.46-.26-.46-.3201,0-.3201.2998-.3201,1.02-.3201,1.0801,0,1.6006-.0601,1.8403-.6201.1401-.3401.1401-3.8608.1401-4.561,0-.9602-.04-5.6211-.04-6.6814,0-.9402-.2803-.9402-1.9604-.9402-.48,0-.6802,0-.6802-.26s.2002-.28.8203-.3201c.48-.02,1.4805-.22,2.2603-.5002.1401-.04.8203-.4399.9805-.4399.2197,0,.2197.0601.2197.9602,0,.54-.0396,3.1206-.0396,3.7207,0,.9202.02,8.6018.0796,8.822.1401.5801.4204.8201,1.9004.8201.1802,0,.4805,0,.4805.3601,0,.28-.3203.28-.5005.28h-6.061Z"/>
      </g>
      <line class="c" x1="91.0705" y1="86.6368" x2="170.4229" y2="86.6368"/>
    </g>
    <polyline class="f" points="141.2135 205.4386 130.7471 215.9051 120.2806 205.4386"/>
  </g>
  <g>
    <g>
      <g>
        <path class="d" d="M346.4507,121.0891c.8398-.812,1.2041-1.1479,1.2041-1.512,0-.084-.2241-.7561-.252-.8682-.3643-1.1199-.4761-1.8198-.4761-3.2759,0-.644.1401-3.8921.1401-4.6199,0-1.4001-.4204-1.8201-.8403-2.2681-.5879-.616-.6719-.7-.6719-.7839,0-.1121.644-.1401.728-.1401,1.6802,0,3.0518,1.3162,3.0518,2.1001,0,.252-.3359,1.512-.3916,1.792-.2241,1.2878-.2524,2.6599-.2524,3.052,0,1.512,0,2.6318.1685,3.332.0278.084.1958.616.5596.616.3921,0,.5601-.1121,2.0444-1.0361.3076-.196,2.0718-1.3159,2.9116-1.3159.6162,0,1.0361.532,1.0361,1.0359,0,.812-1.0918,1.26-2.1558,1.6802-6.7764,2.688-7.728,4.76-7.728,6.552,0,1.9878,1.8477,2.5759,4.0039,2.5759,1.3999,0,2.52-.252,3.3877-.5042,1.2603-.3359,1.5684-.3918,2.1001-.3918.9521,0,1.8481.644,1.8481,1.344,0,1.428-5.7119,1.5679-7.168,1.5679-1.3159,0-5.376,0-5.376-4.396,0-.7839.1958-2.7158,2.1279-4.5359ZM357.8188,113.4731c0,.364-.3081,1.064-.8403,1.064-.4199,0-.6157-.2239-1.4277-1.3159-.4761-.616-.7842-.896-1.876-1.7642-.1123-.084-.3921-.3079-.3921-.4199,0-.1399.252-.2239.4761-.2239,2.4077,0,4.0601,1.6238,4.0601,2.6599ZM360.7588,110.6731c0,.3359-.2241.8401-.728.8401-.5884,0-.9521-.4761-1.4282-1.092-.4478-.5879-1.5117-1.2881-2.3799-1.6521-.2798-.1118-.3643-.252-.3643-.3359,0-.1121.2803-.3079,1.0645-.3079,1.7637,0,3.8359,1.064,3.8359,2.5479Z"/>
        <path class="d" d="M374.4785,111.0371c0,.084.0562.196.0562.3081.1118.896.2798,1.792.2798,3.0239,0,1.876-.4199,4.48-2.8838,8.2039-2.2402,3.416-3.668,4.0881-4.7881,4.0881-1.8481,0-3.5-2.884-3.5-6.3,0-1.4839.3081-4.312,3.1079-7.1399,3.5562-3.6401,7.3081-3.6401,8.9321-3.6401,2.5479,0,3.7241.5042,4.5078.896,3.0239,1.4841,4.8721,4.48,4.8721,8.1479,0,3.6401-2.1001,8.1201-7.0557,9.856-2.3804.8401-4.228,1.0361-4.6484,1.0361-.1118,0-.2798-.0281-.2798-.196,0-.084.0562-.1121.7559-.3921,2.9121-1.1479,8.9883-3.5559,8.9883-10.5278,0-1.092-.1123-7.7561-7.7563-7.7561-.5596,0-.5879.2241-.5879.3921ZM365.3789,119.6331c0,1.8201.7275,4.312,2.4355,4.312.812,0,1.4844-.3359,3.416-3.248,1.4844-2.2678,2.7441-5.376,2.7441-8.1479,0-1.6799-.1118-1.8198-.4761-1.8198-2.6597,0-8.1196,3.6118-8.1196,8.9038Z"/>
        <path class="d" d="M398.1108,125.9612c.3638,0,1.4839-.1121,2.6597-.2522.4199-.0559,2.2402-.3359,2.604-.3359.9521,0,1.8198.7,1.8198,1.3159,0,1.5122-4.7598,1.6521-6.3276,1.6521-3.752,0-8.6802-.812-8.6802-4.9839,0-.896.3081-1.2881.3921-1.2881.1118,0,.1118.0559.3081.7.644,2.2119,3.3599,3.136,5.5161,3.136.168,0,1.4277.0562,1.708.0562ZM393.7988,110.645c2.1279,0,4.1436-.4199,4.5078-.5039,1.0078-.2239,1.2319-.2239,1.3999-.2239,1.3159,0,2.604,1.3159,2.604,1.9038,0,.4202-.1958.5042-2.0718.9241-1.4004.3359-2.3521,1.092-3.3042,1.8479-.2241.196-.252.2241-.3638.2241-.0562,0-.084-.0559-.084-.084,0-.2241,1.2319-1.708,1.2319-2.0439,0-.196-.084-.196-.9521-.2241-3.2759-.0559-5.292-1.512-5.292-1.9041,0-.084.1401-.1118.1958-.1118.0845,0,.1685.0278.896.1399.4761.0559.9521.0559,1.2324.0559ZM405.6704,114.1731c.812.532,1.2041,1.176,1.2041,1.5959,0,.532-.3359,1.092-.7837,1.092-.3643,0-.5601-.1121-1.5122-1.1479-.5601-.616-.7842-.7561-2.0439-1.54-.1401-.1121-.4482-.3079-.4482-.4199,0-.084.2241-.252.4761-.252,1.1763,0,2.0723,0,3.1079.6719ZM409.8145,113.5012c0,.3079-.2241.8398-.728.8398-.5879,0-.9238-.4199-1.4561-1.0359-.3638-.448-1.5117-1.2319-2.436-1.5681-.3076-.1118-.3638-.2239-.3638-.3079,0-.196.5601-.3359,1.0361-.3359,2.4917,0,3.9478,1.2878,3.9478,2.408Z"/>
        <path class="d" d="M416.4785,110.7012c-.3638,0-.5879.0559-.728.644-.168.7-.6719,2.9119-2.0718,2.9119-.5879,0-1.2041-.3918-1.2041-1.1479,0-.616.3643-.896,1.1201-1.4839.9521-.728,1.4839-1.7361,1.9038-2.8281.0283-.1121.084-.2239.1401-.3079.084.1399.0562.4758.084.896.0278.5598.3921.5598.812.5598h6.6362c.6719,0,.7837-.196.7837-.896,0-1.2039-.0562-1.4558-.1118-1.6519-.0283-.1121-.252-.644-.252-.7561,0-.2239.1958-.28.3638-.28.0562,0,2.7441.3081,2.7441.812,0,.1401-.5039.5881-.5879.7-.1123.196-.1963.6162-.1963,1.092,0,.8401.168.98.812.98h5.5161c.6997,0,1.1479-.0278,1.6519-.6719.4482-.5881.5322-.5881.644-.5881.2241,0,.3921.1121,1.7642,1.2322.3921.3359.5879.5039.5879.9238,0,.7842-.5879.8401-1.4839.9241-.7842.084-1.624.5039-2.3804,1.0359-.1958.1401-.5596.4202-.6719.4202-.084,0-.168-.1121-.168-.168,0-.1401.1963-.364.3643-.644.4756-.7561.5317-1.2041.5317-1.3159,0-.3921-.3921-.3921-.644-.3921h-15.96ZM426.4746,114.8171c-.2241,0-.5039,0-.5039.3359,0,.98,2.5762,5.9919,3.3599,5.9919.8682,0,3.0522-3.5559,3.1641-3.9199.0562-.1399.1401-.9241.2798-.9241.0283,0,2.52,1.624,2.52,2.0161,0,.252-.3916.3079-.7559.364-.5039.084-.644.168-1.708,1.0081-.4199.3079-2.3237,1.512-2.688,1.792-.1401.084-.2798.2239-.2798.4199,0,.2239,2.4077,3.1079,6.7476,4.844.3081.1121.728.28.8965.4199-.3643.1121-1.0361.3921-1.2041.532-.2803.2241-.7563.7561-.9521,1.064-.084.1401-.1401.196-.252.196-.1401,0-2.7998-1.5679-5.04-4.144-3.248-3.752-4.1157-7.252-4.5918-9.2397-.0562-.2522-.1401-.5881-.3921-.5881-.1963,0-.2803.084-1.2603.98-.2236.196-1.3716.98-1.3716,1.2319,0,.1682.084.2241.6719.644,4.0601,2.9399,4.0601,7.7561,4.0601,8.3999,0,3.22-1.5122,5.1521-3.6401,5.1521-.4199,0-.4482-.084-.644-.728s-1.1201-1.0081-2.4639-1.512c-.4761-.196-.5322-.196-.5322-.28s.1401-.084.168-.084c.2241,0,1.2881.1399,1.5122.168.5317.0562,1.4277.084,1.792.084.5601,0,.9521-.0278,1.4277-.9519.2241-.448.4204-1.2319.4204-2.2961s-.168-1.8479-.5322-1.8479c-.084,0-.812.6721-.9238.7561-4.3682,3.8918-9.4639,4.7319-9.4922,4.7319-.0557,0-.1118,0-.1118-.0562,0-.0278.6997-.4199.812-.4758,3.416-1.96,5.8799-3.3601,8.8198-6.748.2241-.28.5322-.616.5322-1.0081,0-.1958-.2524-.812-.6162-.812-.1118,0-.1958.0562-.896.644-3.5,2.9961-8.064,4.4241-8.5679,4.4241-.0562,0-.1123-.0281-.1123-.0562,0-.0559,1.8765-1.1199,2.2124-1.344,2.772-1.7639,6.104-4.5918,6.104-5.46,0-.2798-.3643-.8398-.7563-.8398-.1396,0-1.064.616-1.2041.728-2.772,1.8198-6.6919,2.688-6.7476,2.688-.0562,0-.1123-.0281-.1123-.084,0-.084.5884-.364.98-.5601,4.564-2.156,7.1963-5.04,7.1963-5.4041,0-.252-.084-.252-.896-.252-1.9321,0-2.9121.0281-3.1924.0559-.084.0281-.5039.084-.5879.084-.1118,0-.168-.1118-.252-.1958l-.5317-.644c-.0562-.0562-.1123-.1401-.1123-.168,0-.0562.0283-.084.084-.084.1963,0,1.064.084,1.2603.1118,1.1196.0281,2.3799.084,3.4717.084h6.6079c1.1201,0,1.2324,0,1.4561-.1958.2241-.2241,1.064-1.3721,1.3164-1.3721.1958,0,2.2676,1.54,2.2676,1.9319,0,.3921-.2798.3921-1.0078.3921h-5.208Z"/>
        <path class="d" d="M448.4546,117.0291c.3359,0,.5879,0,.8398-.3079.1401-.1401.644-.9241.8403-.9241.168,0,1.792,1.2041,1.792,1.5681,0,.1399-.3643.4478-.6162.6719-.1118.1121-.2241.196-.2241,1.064-.0278,1.176-.4761,7.8401-1.5957,10.0239-1.0083,1.96-2.2964,2.156-2.604,2.156-.168,0-.3643-.7559-.4199-.896-.2803-.4758-.6162-.728-1.1763-1.0359-.0562-.0281-.3081-.168-.3081-.196,0-.0559.0562-.084.1123-.084.0278,0,1.064.1121,1.1196.1121,1.3442,0,1.8481-.7561,2.2964-2.156.4756-1.428.9517-7.252.9517-8.54,0-.6721-.4199-.728-.896-.728h-.728c-.728,0-.7837.28-.896,1.26-.168,1.2041-1.0356,7.448-4.3677,10.8359-.084.084-.7002.616-.8403.616-.084,0-.1396-.0278-.1396-.1121,0-.0278.8398-1.2319.9517-1.4839.98-1.6519,2.9961-7.364,2.9961-15.344,0-.7559-.084-1.092-.6997-1.092-.2803,0-1.8203.1401-2.0439.1401-.1123,0-.1685-.084-.2524-.196l-.5317-.644c-.084-.084-.1401-.1399-.1401-.196,0-.0278.084-.0559.1123-.0559.5596,0,3.0239.196,3.5278.196.812,0,.812-.1401.812-3.5281,0-.6438,0-.8679-.084-1.1199-.0562-.084-.3081-.448-.3081-.532,0-.1401.084-.168.1958-.168.1123,0,2.6602.4199,2.6602.896,0,.168-.2241.4199-.4761.7839-.168.196-.252.3921-.252,1.3159,0,2.2681,0,2.3521.8398,2.3521.5601,0,.6724,0,.9243-.252.1958-.168.8677-1.176,1.0918-1.176.3081,0,1.9883,1.26,1.9883,1.708,0,.4758-.3643.4758-.644.4758h-4.6201c-.1118,0-.2241,0-.2241.0842,0,.1118.0562.1399.4199.3359.0562.0281.2803.168.2803.364,0,.168-.5879.7-.644.8398-.1118.28-.252,2.072-.252,2.2681,0,.3359.0562.7.7837.7h.4482ZM461.0264,122.4331c-.1958,0-.6997,0-.6997.4199,0,.7842,2.1001,4.396,5.9639,6.4399.2241.1121,1.4839.7002,1.4839.728,0,.084-.0562.084-.3359.084-.084,0-1.1201,0-2.5762.9521-.0557.0559-.3076.3359-.3916.3359-.1123,0-1.3164-1.0081-2.4644-2.7439-1.4277-2.156-1.876-4.032-2.2119-5.5161-.1401-.5601-.1401-.616-.252-.616-.1401,0-.1958.1399-.1958.2241-.252,1.3159-1.2603,3.304-2.1562,4.5078-2.3799,3.248-5.9639,4.592-6.02,4.592-.0557,0-.1118-.0281-.1118-.084,0-.084.084-.1401.084-.168.98-.7561,2.2681-1.7642,3.7241-3.4719,2.0439-2.3801,2.604-4.9561,2.604-5.2361,0-.4199-.2803-.448-.4761-.448-.8403,0-2.4639,0-3.3599.0559-.084,0-.728.084-.7842.084-.1118,0-.168-.0559-.252-.1958l-.5322-.644c-.1118-.1121-.1396-.1401-.1396-.168,0-.0562.0557-.0562.1118-.0562.1401,0,.8398.0562,1.0078.0562,1.0923.084,2.9121.1399,3.9761.1399.5322,0,.7559-.1121.812-.616.1118-.7561.1401-1.792.1401-2.5481,0-.812-.2241-.896-.812-.896h-.6162c-.5879,0-.728.1401-1.8198,1.3721-.252.28-1.5122,1.6799-1.7642,1.6799-.0557,0-.0557-.0278-.0557-.0559,0-.0559.5601-1.092.644-1.3159.9517-1.9321,2.1836-4.676,2.1836-6.0481,0-.084-.0278-.4761-.0278-.5601,0-.1399.1118-.168.2798-.168.5884.252,1.6523.6721,2.0444.812.0278.0281.1958.2241.1958.3359,0,.1401-.5601.5881-.6719.7002-.3359.4199-1.0361,1.876-1.0361,2.0999,0,.4199.3081.4199.6162.4199h3.6118c1.0078,0,1.064-.084,1.2041-.1958.1396-.196.812-1.3162,1.0918-1.3162.1401,0,2.0718,1.4841,2.0718,1.8481,0,.3918-.4756.3918-1.1758.3918h-3.1357c-.5322,0-.896,0-.9521.6162-.0278.3638-.1963,2.6599-.1963,2.8838,0,.3921.2241.5601.7563.5601h2.9678c.1401,0,.252-.0559.4199-.252.168-.2241.9243-1.2881,1.064-1.2881.168,0,2.1841,1.3721,2.1841,1.8201s-.2798.448-1.9878.448h-4.0322ZM462.1465,110.7571c1.1479,0,1.3159-.0559,1.5122-.252.1958-.196.98-1.428,1.2598-1.428.3643,0,2.1562,1.624,2.1562,2.0161,0,.3918-.1401.3918-1.4282.3918h-9.0439c-.7842,0-.8682.1401-1.7358,1.344-.5884.812-1.624,1.7361-1.6802,1.7361-.0278,0-.084,0-.084-.0562,0-.0559.1118-.252.1401-.28.5879-1.4558,2.4639-5.9919,2.4639-7.0559,0-.1121-.168-.4758-.168-.5598,0-.0842.0278-.196.1401-.196.0278,0,2.9116.7,2.9116,1.3159,0,.196-.8398.728-.98.8401-.4756.5039-1.1479,1.5398-1.1479,1.876,0,.3079.3081.3079.5039.3079h5.1802Z"/>
        <path class="d" d="M474.2988,123.301c.4761,0,.728-.448,1.3442-2.1838.168-.4761.252-.7002.3921-.7002.1396,0,.1396.28.1396.3362,0,.3079-.6436,3.584-.6436,4.2559,0,.4761.3916,1.3162.4478,1.4561.1958.3921.3359.8679.3359,1.2319,0,.5601-.4478.9521-.9238.9521-1.7363,0-3.0239-4.76-3.0239-7.448,0-1.792.2236-2.604,1.1758-6.104.4761-1.708.4761-2.408.4761-2.9121,0-.896-.168-1.6519-.2798-1.9878-.0283-.0842-.1685-.4202-.1685-.5042s.1123-.1399.2241-.1399c1.2881,0,2.4639,2.5479,2.4639,3.5559,0,.3081,0,.3359-.5317,1.2881-.3081.5879-2.1562,4.7039-2.1562,7.2239,0,.8401.2803,1.6799.728,1.6799ZM490.5669,126.1011c0,1.092-.8398,1.428-4.7598,1.428-2.7441,0-3.7803-.7-4.3682-1.26-.1401-.1399-.8682-.8679-.8682-1.3999,0-.0562,0-.28.1401-.28.1118,0,.5601.3359.6719.3918.812.4202,1.96.4761,2.9961.4761.728,0,1.7358,0,2.436-.084.3921-.0281,2.3521-.2239,2.4639-.2239,1.064,0,1.2881.616,1.2881.9519ZM489.251,112.4651c0,1.3721-3.1079,1.3721-3.4438,1.3721-3.1641,0-4.8999-1.708-4.8999-2.072,0-.0559.0278-.1399.1958-.1399.084,0,.4199.1118.7842.1958.6436.1401,1.3999.1682,1.9038.1682,1.3721,0,2.688-.28,3.0801-.4202.8398-.3079.9238-.3359,1.2041-.3079.5039.084,1.1758.5598,1.1758,1.2039Z"/>
        <path class="d" d="M503.0269,109.4131c0,.252-1.3159,2.604-1.3159,3.0801,0,.196.1401.3921.5039.644.6719.4758,1.0078.7839,1.0078,1.2039,0,.448-.3076.6721-2.0718,1.2881-.7559.252-.812.448-1.3438,2.2119-.1685.5881-.5884,1.9321-.5884,2.436,0,.448.1123.448,2.0723.616.6719.0562,1.9878.4761,1.9878,1.176,0,.5039-.7559.812-1.4561.812-.4199,0-2.436-.364-2.5757-.364-.7002,0-.7002,1.3159-.7002,1.9319.0278,1.26.3643,4.1721,3.8643,4.1721,1.1758,0,4.0317-.5039,4.0317-3.8081,0-1.2039-.252-2.7998-2.772-6.3279-.084-.1121-.1118-.196-.1118-.28,0-.252.6157.28.6997.3359,3.2202,2.604,4.48,4.8162,4.48,6.7761,0,2.6599-2.688,5.0398-5.9639,5.0398-.5322,0-5.3481,0-5.3481-5.0679,0-.448.2241-2.3521.2241-2.7439,0-.3362-.0562-.532-.5317-.896-1.0083-.7561-1.5122-1.512-1.5122-2.3801,0-.8398.3081-1.7639,2.0718-3.1919,1.4561-1.176,1.624-1.2881,1.624-1.6799,0-.364-.1396-.4761-.7559-.9521-.812-.644-1.876-1.4839-1.876-2.6599,0-.196.0562-.5039.252-.5039.1401,0,.6162.5879.728.6719.7559.616,1.5679.98,1.9038.98.7842,0,1.0083-2.4919,1.0083-2.884,0-.5598-.1401-1.4839-.2803-1.876-.0557-.1121-.0557-.196-.0557-.28.8398-.084,2.7998,1.7642,2.7998,2.52ZM498.3789,116.4692c-.644,0-2.0439.9519-2.0439,2.0159,0,.8401.8682,1.6799,1.4277,1.6799.1123,0,.2524-.084.3081-.2239.252-.4761.6724-2.856.6724-2.9961,0-.2239,0-.4758-.3643-.4758Z"/>
        <path class="d" d="M530.4082,117.8145h-11.5991v-1.5364c-1.7666,1.4082-3.1748,2.2532-4.4805,2.9446-.6914-1.178-1.0498-1.562-2.2534-2.7141,6.939-2.8677,9.832-7.8862,10.7026-9.3967l3.7642.2815c.1533,0,.5117.0256.5117.3074,0,.1792-.2559.3328-.5376.4863,1.6387,2.6885,6.6826,6.3755,10.7026,7.8862-.8193.7424-1.6641,1.7666-2.0737,2.7908-1.2036-.5889-2.458-1.28-4.7368-2.8933v1.8438ZM519.8848,129.4387v1.229h-3.1494v-10.8049h15.6953v10.8049h-3.1748v-1.229h-9.3711ZM529.2559,126.6221v-3.9685h-9.3711v3.9685h9.3711ZM529.1279,115.0491c-2.1509-1.6387-3.1494-2.6628-4.6343-4.532-1.7158,2.0996-2.3301,2.842-4.2251,4.532h8.8594Z"/>
        <path class="d" d="M538.623,116.022c1.1011-.1023,1.3569-.2048,4.9414-1.5874,1.8184-.6914,4.5322-1.7412,7.3999-1.7412,4.02,0,6.8618,2.7654,6.8618,6.9644,0,7.323-7.6812,10.6514-12.2134,11.4707-.5376-1.0752-1.3311-2.0994-2.2275-2.97,9.6528-1.6643,10.959-6.2986,10.959-8.2957,0-2.4326-1.562-3.9944-3.7383-3.9944-2.6372,0-6.9902,1.8435-10.3442,4.5576l-1.6387-4.4041ZM543.9741,106.7788c1.1782.3843,3.7642,1.2546,7.8096,1.2546.7681,0,1.229-.051,1.7666-.1023-.2305,1.2034-.3843,2.3811-.4609,3.6101-5.5049-.1023-8.27-.8962-9.6016-1.3059l.4863-3.4565Z"/>
        <path class="d" d="M364.4888,162.2371h9.9087v2.9956h-9.9087v7.9629h-3.4053v-7.9629h-10.0112v-2.9956h10.0112v-8.6287h-8.9614v-2.9189h21.2256v2.9189h-8.8589v8.6287ZM356.6025,154.53c1.127,1.7156,2.2534,4.1992,2.8423,5.8635-.4863.1792-2.5605,1.1008-2.9702,1.3057-.4097-1.2034-1.4595-3.9429-2.8164-5.9912l2.9443-1.178ZM371.7861,155.2983c.1792.0767.5117.1792.5117.4607,0,.2817-.3325.3074-.7422.333-.9473,2.6116-1.6133,4.071-2.5352,5.812-.4863-.2305-2.5347-1.0498-3.0469-1.229.8452-1.5105,2.2534-4.6343,2.6377-6.5291l3.1748,1.1523Z"/>
        <path class="d" d="M398.897,150.5103v5.8889h-17.5649c-.1533,7.374-.2305,12.4692-2.4067,16.8989-.7168-.384-1.4595-.6914-3.0723-.9988,1.9971-3.687,2.458-6.9897,2.458-16.105v-5.6841h20.5859ZM391.4971,165.8472h5.812v2.4067h-5.812v1.6899h8.2446v2.458h-18.4863v-2.458h7.0923v-1.6899h-6.0425v-2.4067h6.0425v-1.6387c-.8447.0513-4.5317.2305-5.2998.2817-.1279.1792-.2817.4097-.5122.4097-.2046,0-.3584-.2561-.3843-.4866l-.3584-2.4067c.3076,0,2.5352-.0256,2.9961-.0513.7422-1.1521,1.0493-1.6899,1.3057-2.1506h-4.2759v-2.2534h17.8203v2.2534h-4.0195c1.9712,1.7666,2.6372,2.3555,3.7637,3.8149-.7681.384-1.895,1.5361-2.2788,2.074-.3071-.5378-1.0244-1.3059-1.5874-1.946-.5122.0513-1.4854.1282-3.5078.2561.0767.0513.1792.1279.1792.2817,0,.2815-.2305.3328-.6914.4863v1.0754ZM381.332,152.7634v1.4338h14.4668v-1.4338h-14.4668ZM392.5723,159.8047h-2.7139c.0259.3071-.2305.3584-.8447.4607-.333.5378-.8452,1.3572-1.0244,1.6387,1.4595-.0767,3.7896-.1536,5.5049-.2815-.4609-.3843-.563-.4866-1.6641-1.3059l.7422-.512Z"/>
        <path class="d" d="M419.5039,152.9683c.5117,0,1.2803-.0513,1.7666-.1792l2.5605,2.125c-.4097.5635-.5122.7939-1.4854,2.9958-2.8677,6.5547-5.3257,10.3953-13.5444,14.6968-.6655-.9216-1.4849-1.7156-2.6631-2.6628,3.5337-1.613,9.832-4.4807,13.0073-13.7751h-16.1055v-3.2004h16.4639ZM426.417,151.2017c0,1.3057-1.0752,2.3555-2.3813,2.3555s-2.3813-1.0498-2.3813-2.3555c0-1.3315,1.0757-2.3813,2.3813-2.3813s2.3813,1.0754,2.3813,2.3813ZM422.8579,151.2017c0,.6399.5122,1.1777,1.1777,1.1777.666,0,1.1777-.5378,1.1777-1.1777,0-.6658-.5376-1.2036-1.1777-1.2036s-1.1777.5378-1.1777,1.2036Z"/>
        <path class="d" d="M444.6689,156.988c1.1523,0,1.7158-.1023,2.1768-.2305l2.1504,1.5107c-.4351.8193-2.2529,4.4551-2.6626,5.1721-3.0728,5.4536-6.3755,7.7581-11.4453,9.7551-.6655-1.0754-1.5103-1.9971-2.3809-2.8164,3.9175-1.2546,8.8589-3.4055,11.4707-10.2161h-16.0796v-3.175h16.7705ZM445.8726,150.9712v3.1235h-14.7993v-3.1235h14.7993Z"/>
        <path class="d" d="M453.7041,150.6382c3.7637,1.8948,5.5049,3.3286,6.708,4.4041-.5376.6145-.9219,1.1265-2.125,2.97-3.0215-2.6372-5.5049-3.8149-6.7339-4.3525l2.1509-3.0215ZM451.8857,168.6379c6.1455-1.3057,13.98-5.3767,19.229-13.9031.9219,1.4595,1.229,1.946,2.2275,2.9958-1.6641,2.5603-6.478,9.8064-18.563,14.1589-.0513.2561-.0767.5635-.4355.5635-.1792,0-.3325-.2048-.4604-.4353l-1.9976-3.3799Z"/>
        <path class="d" d="M475.8374,158.3369c0-.1118.1118-.2239.252-.2239.084,0,1.54.3921,1.8477.3921.812,0,4.6479-.812,4.7041-.8401.4761-.3359.5039-3.1641.5039-3.304,0-.728-.0557-1.5681-.6997-2.3801-.4199-.5039-.4761-.5598-.4761-.6438,0-.196.3359-.2241.4478-.2241,1.876,0,2.9683,1.064,2.9683,1.792,0,.0281-1.064,3.6121-1.064,4.144,0,.168.1118.252.3081.252.1396,0,1.4277-.1399,1.6519-.1399,2.1001,0,3.7241,1.0078,3.7241,3.584,0,2.2119-.7842,7.0278-2.4082,8.9878-.7842.9241-1.9038,1.708-2.856,1.708-1.0361,0-1.3159-.98-1.6519-1.9319-.0562-.196-.3643-.8401-.3643-.9241s.0562-.1399.1401-.1399c.1118,0,.6157.168.7002.1958.5879.1401,1.1479.196,1.4277.196.812,0,1.8481-.3918,2.6602-3.416.3076-1.1199.8677-3.3879.8677-4.8718,0-1.96-1.1196-2.1001-1.9316-2.1001-.896,0-2.4922.4202-2.688.6721-.1123.1399-.1401.252-.4204,1.2039-1.1196,3.8081-3.8359,10.696-6.1035,10.696-.6162,0-.896-.3921-.896-.896,0-.5881.1958-.812,1.876-2.6599.7559-.8401,1.9316-2.1282,3.4438-6.3281.1118-.28.3921-1.1199.3921-1.3159,0-.084-.0283-.2241-.1963-.2241-.6157,0-3.2197,1.1201-3.7798,1.1201-1.0923,0-2.3799-1.7639-2.3799-2.3801ZM495.269,164.2729c-.3081,0-1.5957-.728-1.9038-.8398-.1963-.0562-.896-.084-.896-.196,0-.168.9238-.644,1.0918-.7839,1.0361-.7842,1.1479-.8682,1.1479-1.624,0-.4761-.1958-2.2961-2.2681-3.22-.2236-.1121-.6719-.3081-.6719-.4202,0-.168.1123-.168.1963-.168,3.584,0,4.8716,3.5281,4.8999,4.9561,0,.3359-.4199,2.2959-1.5962,2.2959ZM496.5571,154.8931c0,.4761-.3359,1.092-.812,1.092-.3921,0-.6162-.168-1.4839-1.2041-.5601-.6719-.8403-.8679-1.9883-1.6519-.1396-.0842-.4199-.3081-.4199-.4202,0-.084.2241-.252.4761-.252,3.584,0,4.228,2.1001,4.228,2.436ZM498.7969,152.541c0,.3359-.2236.812-.6997.812-.6162,0-.9238-.364-1.4839-1.0081-.4482-.4758-1.5684-1.1479-2.4922-1.4839-.2798-.084-.3638-.196-.3638-.28,0-.2241.6719-.3921,1.0078-.3921,3.4722,0,4.0317,1.8201,4.0317,2.3521Z"/>
        <path class="d" d="M508.1216,168.4729c-1.4277,1.1201-2.856,2.0442-4.1997,2.0442-1.2603,0-1.3721-1.4282-1.3721-1.9321,0-3.0239,2.688-6.2439,6.104-8.5959.8677-.616,1.1479-.8679,1.1479-2.856,0-.448-.084-.5881-.6162-.5881-.0557,0-1.064.0562-1.2598.0562-2.4922,0-3.584-1.792-3.584-2.0439,0-.168.1118-.28.3359-.28.168,0,1.0078.252,1.1758.28.7002.084,1.3721.1118,1.9043.1118.5039,0,2.1279,0,2.2959-.4199.168-.3921.252-1.96.252-2.072,0-.28-.2798-1.708-.2798-1.7639,0-.1401.1396-.168.252-.168.0557,0,2.4639.5039,2.4639,1.1199,0,.0281-.4199.9241-.4478.98-.2803.5881-.3921,1.1201-.3921,1.3721,0,.2239.0278.28.3638.28.5879,0,3.1641-.9241,3.6963-.9241.6719,0,1.1758.448,1.1758.9241,0,.896-1.0078,1.1479-3.3882,1.7358-1.6519.3921-2.0718.5042-2.2397.728-.1401.196-.3081.98-.3081,1.3721,0,.644.1401.7.4761.7.2241,0,.644-.084.812-.1399,1.3438-.3359,2.5479-.532,3.5-.532,4.0879,0,6.356,2.8279,6.356,6.4119,0,6.0759-5.5718,7.644-8.1758,8.344-.168.0559-1.2881.3359-1.9321.3359-.168,0-.2803-.0559-.2803-.196,0-.1118.2241-.1958.5601-.3079,5.6279-1.9041,7.7002-4.844,7.7002-7.98,0-3.5281-2.3521-5.4041-4.6201-5.4041-1.3438,0-1.3999.168-1.9038,1.8201-.4761,1.512-.9243,2.2119-1.9321,3.8079-.2798.4482-.3081.5881-.3081,1.0081,0,.2241.084,1.2322.084,1.428,0,.7561-.2798,1.4001-.896,1.4001-.4761,0-.6719-.3362-.8677-.644-.1963-.3359-.2241-.3921-.3081-.3921-.0562-.0278-.8682.616-1.3442.98ZM509.3818,165.1411c.1118-.28.168-3.2202.168-3.5281,0-.168,0-.644-.1963-.644-1.0356,0-4.9839,4.7041-4.9839,6.804,0,.3921.1401.6721.5879.616.9521-.1121,4.0322-2.24,4.4243-3.2478ZM512.5459,159.541c-1.4561,0-1.4561.9519-1.4561,1.9319,0,.2522,0,1.344.3359,1.344.4199,0,1.54-2.2119,1.54-2.9399,0-.0278-.0283-.2239-.084-.28-.0562-.0559-.252-.0559-.3359-.0559Z"/>
        <path class="d" d="M541.0493,165.6169c0-2.2959-1.9316-4.2559-4.7319-4.2559-3.6958,0-6.0757,3.8359-6.5801,4.7039-.5596.9521-.8398,1.4841-1.5957,1.4841-.6719,0-.812-.5601-.812-.7842,0-.7.2241-1.3159,2.2119-3.6399,1.8198-2.1279,2.1001-2.4919,6.3281-8.428.9238-1.3159,1.3159-1.9041,1.3159-2.2119,0-.196-.1963-.3921-.5322-.3921-1.0356,0-2.688,1.4001-3.1636,1.792-1.1201.9241-1.5122,1.0081-1.9883,1.0081-1.3159,0-2.1841-1.792-2.1841-1.9321,0-.084.084-.084.6724-.084,1.4839,0,3.5557-.6719,4.3398-1.0078,1.7358-.7561,1.9321-.8401,2.5479-.8401,1.1201,0,2.9399.7,2.9399,1.9319,0,.812-.644,1.26-1.9878,2.1841-2.0161,1.428-4.48,5.2639-4.48,5.74,0,.084.084.196.168.196.168-.0562.5317-.196.6997-.252.896-.3362,1.6802-.448,2.4644-.448,3.584,0,6.2998,2.6599,6.2998,5.824,0,3.5559-3.4438,6.0479-7,6.0479-2.772,0-4.7598-1.4839-4.7598-2.884,0-1.0078,1.1758-2.2678,2.772-2.2678,1.3159,0,2.4077.7839,3.1919,1.792.3921.5039.5601.7559.9521.7559.9517,0,2.9116-1.708,2.9116-4.032ZM533.8535,168.137c-.6719,0-1.1758.532-1.1758.98,0,.728,1.2036,1.3159,2.4077,1.3159.2803,0,.4761-.1958.4761-.5039,0-.6719-.6719-1.792-1.708-1.792Z"/>
        <path class="d" d="M547.4053,171.105c0-.8401.6724-1.512,1.5122-1.512.812,0,1.5117.644,1.5117,1.512,0,.8401-.6997,1.512-1.5117,1.512-.8398,0-1.5122-.7-1.5122-1.512ZM550.3735,152.6531c0,.644-.4199,2.968-.5039,3.7239-.3081,2.5762-.4482,6.2441-.4482,10.668,0,.728-.0278,1.1479-.5039,1.1479s-.5039-.3918-.5039-1.0918c0-4.48-.1401-8.092-.4761-10.752-.0562-.5601-.4761-3.1921-.4761-3.696,0-.7839.644-1.4841,1.4561-1.4841.7837,0,1.4561.7002,1.4561,1.4841Z"/>
      </g>
      <g>
        <path class="b" d="M424.3599,61.7966c.6475,0,.7915,0,.9951.5398.0962.2637.6118,1.6189.6118,1.739,0,.1318-.1201.1799-.1919.1799-.0962,0-.1318-.0481-.4077-.5039-.6357-1.0435-1.3433-1.5591-2.1587-1.5591-.4678,0-.7559.1919-.8276.5996-.0361.2158-.0361,2.9265-.0361,3.4302,0,.3359,0,3.1062.0361,3.3101.1079.6118.6714.6238.9951.6238.4438,0,.54,0,.54.1919s-.168.1919-.3599.1919h-3.3584c-.1675,0-.3477,0-.3477-.1919s.1919-.1919.2642-.1919c.7075,0,1.1514,0,1.271-.6238.0361-.1919.0361-.2039.0361-3.394,0-2.9624,0-3.2861-.084-3.5142-.1201-.3237-.4438-.4316-.7676-.4316-.9595,0-1.667.7556-2.1587,1.5471-.2881.4678-.312.5159-.4199.5159-.084,0-.1919-.072-.1919-.1799,0-.0959.5396-1.5352.6357-1.7751.1919-.5037.3838-.5037.9834-.5037h4.9414Z"/>
        <path class="b" d="M433.397,70.7676c-2.3149,0-3.9219-1.8948-3.9219-4.5933s1.5952-4.6055,3.9219-4.6055c2.3027,0,3.9097,1.8948,3.9097,4.6055,0,2.6865-1.5952,4.5933-3.9097,4.5933ZM436.1675,66.0662c0-1.1033-.312-4.1016-2.7705-4.1016-2.6865,0-2.7827,3.5259-2.7827,4.3176,0,1.1514.3481,4.0896,2.7827,4.0896,2.6743,0,2.7705-3.49,2.7705-4.3057Z"/>
        <path class="b" d="M444.0649,61.7966c.4561,0,3.4185,0,3.4185,2.2668,0,1.2471-.9595,2.3386-3.1064,2.3386h-1.1514c-.3237,0-.3237.0959-.3237,1.0073,0,2.1948,0,2.2068.1318,2.4109.1919.2756.4917.3357.8037.3357.2637,0,.4077,0,.4077.1919s-.168.1919-.3359.1919h-2.9624c-.1797,0-.3477,0-.3477-.1919s.1797-.1919.2998-.1919c.4077,0,.9233,0,1.0435-.6238.0361-.1919.0361-.2039.0361-3.394,0-.5637,0-3.1304-.0361-3.3342-.1079-.5757-.6235-.6116-.9116-.6116-.2998,0-.4316,0-.4316-.1919,0-.2039.168-.2039.3477-.2039h3.1182ZM444.1372,66.0063c1.583,0,2.2065-.8755,2.2065-1.895,0-1.3193-.9712-1.9189-2.0625-1.9189h-.5161c-.8633,0-.8633.5278-.8633,1.571,0,.168,0,1.8711.0117,1.979.0239.1799.1562.2639.312.2639h.9116Z"/>
        <path class="b" d="M450.7627,70.5398c-.1558,0-.3354,0-.3354-.1919s.0957-.1919.5635-.1919c.3477,0,.9233,0,1.0435-.6238.0361-.2039.0361-2.9622.0361-3.3101,0-.4917,0-3.2021-.0361-3.4182-.1201-.6116-.5518-.6116-1.3433-.6116-.0718,0-.2637,0-.2637-.1919,0-.2039.1797-.2039.3477-.2039h3.5259c.144,0,.3242,0,.3242.2039,0,.1799-.1084.1799-.5518.1799-.3599,0-.8755.012-1.0317.5518-.0479.1677-.0479,2.8665-.0479,3.418,0,3.1782,0,3.1902.0361,3.3821.1079.6238.5396.6238,1.3433.6238.0596,0,.252,0,.252.1919s-.1802.1919-.3242.1919h-3.5381Z"/>
        <path class="b" d="M463.9834,61.7126c0,.012.7793,1.895.7793,2.0269,0,.1321-.1196.2158-.2275.2158-.1084,0-.1323-.0359-.3838-.3838-1.0195-1.4392-2.0869-1.6069-2.5908-1.6069-1.8828,0-2.8545,2.3027-2.8545,4.3774,0,2.7825,1.6313,3.874,3.0586,3.874.8394,0,1.7988-.3599,2.5903-1.7031.2759-.4678.2759-.4797.3716-.4797.0962,0,.1802.084.1802.1919s-.2998.7314-.6836,1.2114c-1.0073,1.2471-2.2788,1.3311-2.8184,1.3311-2.5308,0-3.7661-2.0508-3.7661-4.4014,0-2.8066,1.7393-4.7974,3.7661-4.7974.2998,0,.6475.0479,1.019.1438.084.0359.6479.1919.7197.1919.0962,0,.2402-.0359.3237-.1199.1919-.1919.2163-.2158.312-.2158.0718,0,.168.0718.2041.1438Z"/>
        <path class="b" d="M475.3433,73.5798c-.1201,0-.5801-.02-.5801-.3,0-1.0603,1.2803-2.6006,1.7402-3.1406,4.7212-5.6213,5.1411-6.1414,5.1411-8.0417,0-1.7805-1.3003-2.8206-2.6606-2.8206-1.2002,0-2.2402.8201-2.2402,1.6802,0,.0601,0,.3201.2002.6003.2598.3799.4199.6001.4199.9602,0,.5801-.48,1.0801-1.0801,1.0801-.6802,0-1.1406-.6001-1.1406-1.3604,0-1.7002,1.7607-3.6206,4.3013-3.6206,2.1602,0,4.001,1.4001,4.001,3.7607,0,2.0605-1.2607,3.2007-2.9609,4.6211-3.0205,2.5205-4.1006,4.3809-4.1006,4.761,0,.3.6401.3.7197.3h2.0605c2.0205,0,3.1807-.5601,3.7407-1.8804.3203-.7402.3203-.7603.4404-.7603.1997,0,.1997.24.1997.28,0,.1602-.6401,2.7407-.7402,3.1606-.1797.7202-.8799.7202-1.2002.7202h-6.2612Z"/>
      </g>
      <line class="c" x1="411.0704" y1="86.6368" x2="490.4229" y2="86.6368"/>
    </g>
    <polyline class="f" points="461.2132 205.4386 450.7468 215.9051 440.2803 205.4386"/>
  </g>
  <g>
    <g>
      <g>
        <path class="d" d="M665.6045,117.6863v2.4067h-6.7339c-.0771.6145-.1284.9731-.1792,1.3059h10.5488v2.4836h-8.8594c2.5864,2.5349,5.8892,3.6101,8.7314,4.0198-.7939.9219-1.1782,1.5874-1.6899,2.8164-1.7925-.3584-6.606-1.741-10.0371-5.8889-1.8433,3.0981-5.6074,5.0952-9.6016,5.9402-.333-.845-1.1011-2.125-1.6899-2.7651,2.5093-.333,6.5293-1.229,8.3726-4.1223h-8.5005v-2.4836h9.5249c.1279-.5122.1533-.8706.2046-1.3059h-6.2729v-2.4067h6.4014c.0254-.512.0254-.6401.0254-1.3569h-6.9131v-.845h-2.8164v-5.9658h9.627v-2.2532l3.4053.1279c.1284,0,.5635,0,.5635.3074,0,.2305-.1279.2817-.5889.512v1.3059h9.6782v5.8379h-2.5859v.9729h-7.1948c0,.4097,0,.512-.0254,1.3569h6.606ZM655.8491,112.0022h-6.6826v1.9202h6.6826v-1.9202ZM659.0239,113.9224h6.7598v-1.9202h-6.2729c.1021.0769.1792.1536.1792.2561,0,.1792-.4868.3584-.666.4097v1.2544Z"/>
        <path class="d" d="M685.1616,114.6138c-.5635,1.1011-.8965,1.7156-1.8184,3.2261-1.1006-.7681-1.459-.9473-2.5601-1.4595.4351-.5632.7681-1.0239,1.2031-1.7922h-1.6641v4.2502c1.9971-.6143,2.2017-.6912,2.8677-.9216-.333,1.2546-.333,1.6643-.4097,3.0469-.3584.1536-2.0996.7424-2.458.845v8.8591h-3.0981v-7.835c-.9219.3328-2.3555.7681-2.9956.9473-.1025.3586-.2563.7683-.5376.7683-.2817,0-.3589-.4097-.4097-.6914l-.5381-3.0212c.8965-.1536,3.4058-.8193,4.481-1.1267v-4.9417h-1.5361c-.3584,1.4851-.6401,2.3301-.7681,2.7397-.666-.3584-1.6133-.7681-2.7656-.9473.9731-2.5349,1.4341-4.7368,1.5366-7.5535l2.7651.2561c.2305.0256.5376.0513.5376.2817,0,.2815-.4351.4353-.6914.5376-.0254.1536-.0513.333-.2305,1.946h1.1523v-4.7881l3.0723.1536c.2051,0,.6401.0256.6401.3074,0,.2305-.3584.4097-.6143.512v3.8152h1.8691v2.1763c1.4595-2.6628,2.2017-5.9146,2.4321-7.0923l3.0215.6401c.333.0767.6401.1279.6401.3584,0,.2817-.3584.3584-.7939.4097-.3071,1.1521-.6143,2.074-1.0752,3.2517h9.3457c.0254,7.9116-.1284,13.7239-1.127,16.3354-.5889,1.5364-1.5103,2.3813-5.4536,2.407-.2817-1.4341-.4097-1.8438-1.3311-3.4055.7681.1282,1.5615.1536,2.3296.1536,1.3315,0,1.6387-.384,2.0483-2.6885.2051-1.0752.4609-2.9187.5635-8.0396-.896,3.0981-2.3042,6.0681-4.1221,8.7566-1.562,2.3044-2.7656,3.5847-4.9932,5.2234-.7681-.9475-1.2544-1.3315-2.4067-2.074,2.2021-1.3315,6.6826-4.9417,9.0894-13.8264h-1.4082c-.9473,3.5591-3.0981,7.9629-5.9399,10.7026-.8452-.9729-1.1265-1.2034-2.3047-2.0227,3.8408-3.4309,4.8394-6.8364,5.377-8.6799h-.9214Z"/>
        <path class="d" d="M713.0659,119.8372h9.9087v2.9956h-9.9087v7.9629h-3.4053v-7.9629h-10.0112v-2.9956h10.0112v-8.6287h-8.9614v-2.9189h21.2256v2.9189h-8.8589v8.6287ZM705.1797,112.1301c1.127,1.7156,2.2534,4.1992,2.8423,5.8635-.4863.1792-2.5605,1.1008-2.9702,1.3057-.4097-1.2034-1.4595-3.9429-2.8164-5.9912l2.9443-1.178ZM720.3633,112.8984c.1792.0767.5122.1792.5122.4607,0,.2817-.333.3074-.7427.333-.9473,2.6116-1.6133,4.071-2.5347,5.812-.4868-.2305-2.5352-1.0498-3.0474-1.229.8452-1.5105,2.2534-4.6343,2.6372-6.5291l3.1753,1.1523Z"/>
        <path class="d" d="M748.7539,108.1104v5.8889h-17.5649c-.1533,7.374-.2305,12.4692-2.4067,16.8989-.7168-.384-1.4595-.6914-3.0723-.9988,1.9971-3.687,2.458-6.9897,2.458-16.105v-5.6841h20.5859ZM741.354,123.4473h5.812v2.4067h-5.812v1.6899h8.2446v2.458h-18.4863v-2.458h7.0923v-1.6899h-6.0425v-2.4067h6.0425v-1.6387c-.8447.0513-4.5317.2305-5.2998.2817-.1279.1792-.2817.4097-.5122.4097-.2046,0-.3584-.2561-.3843-.4866l-.3584-2.4067c.3076,0,2.5352-.0256,2.9961-.0513.7422-1.1521,1.0493-1.6899,1.3057-2.1506h-4.2759v-2.2534h17.8203v2.2534h-4.0195c1.9712,1.7666,2.6372,2.3555,3.7637,3.8149-.7681.384-1.895,1.5361-2.2788,2.074-.3071-.5378-1.0244-1.3059-1.5874-1.946-.5122.0513-1.4854.1282-3.5078.2561.0767.0513.1792.1279.1792.2817,0,.2815-.2305.3328-.6914.4863v1.0754ZM731.189,110.3635v1.4338h14.4668v-1.4338h-14.4668ZM742.4292,117.4048h-2.7139c.0259.3071-.2305.3584-.8447.4607-.333.5378-.8452,1.3572-1.0244,1.6387,1.4595-.0767,3.7896-.1536,5.5049-.2815-.4609-.3843-.563-.4866-1.6641-1.3059l.7422-.512Z"/>
        <path class="d" d="M758.4404,112.6892c4.3682,0,8.1201-.9241,8.6519-1.0361.3643-.084,1.8481-.7,2.1841-.7.2241,0,2.3242.4199,2.3242,1.3721,0,.616-.728.7559-1.792.8398-3.0239.28-4.6201.4202-4.8442.5042-.1958.0559-.2798.28-.2798.3359,0,.3081.4478.7.5317.7839.3921.364.5322.4761.5322.7,0,.2241-.4761,1.0081-.5322,1.2041-.084.252-.168.5039-.168.644,0,.364.2241.5039.5884.5039.7559,0,4.5918-.616,5.4316-.7839.2803-.0559,1.4561-.3359,1.708-.3359.5039,0,2.772.644,2.772,2.2678,0,.3362-.3076.5042-.5601.5042-.1396,0-1.792-.3359-2.1279-.3921-.4761-.084-1.2319-.196-2.3799-.196-2.0161,0-5.0117.448-5.3198.5881-.3643.168-.3921.5601-.3921,1.1199,0,3.584.4199,4.0042.7559,4.3401.9521.98,3.4722,1.064,3.7803,1.064.3638,0,2.0156-.252,2.3521-.252.5879,0,1.792.5039,1.792,1.2319,0,1.092-2.2964,1.092-3.1641,1.092-.7563,0-3.2764,0-5.3481-.8679-1.5679-.644-1.876-1.792-1.876-3.6682,0-.1118.0562-2.5479.0562-3.0239,0-.4758-.1401-.7-.5884-.7-.4478,0-4.0317.728-5.292,1.176-.2236.084-1.2036.5039-1.4277.5039-.7002,0-2.772-1.54-2.772-2.1838,0-.0562.0278-.168.168-.168s1.064.1118,1.2598.1118c1.2603,0,6.6924-.7559,8.0923-1.0359.5317-.1121.6997-.3081.6997-.98,0-1.624-.0278-3.1921-1.064-3.1921-.3076,0-2.436.364-2.52.364-.6157,0-2.0156-1.176-2.0156-1.6799,0-.0559.0557-.1121.084-.1121.1118-.0278.5879.0562.6997.0562Z"/>
        <path class="d" d="M791.4526,119.1292c0,.196-.6719.728-.7559.8679-.084.1121-1.1479,2.688-1.3999,3.1641-2.688,5.4038-7.0562,7.1958-7.4199,7.1958-.1123,0-.1685-.0559-.1685-.1399s1.2603-1.2039,1.4844-1.3999c4.6196-4.4241,5.4878-10.1641,5.4878-10.5559,0-.3362-.0562-.8401-.6719-.8401-.728,0-3.3042.5601-4.4521.8401-.3081.084-1.708.5039-2.0161.5039-1.3999,0-2.2119-1.512-2.2119-2.1279,0-.168.0562-.28.1963-.28.0557,0,.3638.1121.4199.1399.3921.1121,1.2319.196,1.7637.196,1.792,0,9.0444-.7839,11.0044-1.064.3359-.0559,1.792-.5042,2.0996-.5042.3364,0,3.5283.6162,3.5283,1.7642,0,.5039-.4482.6719-.812.6719-.3081,0-1.6802-.2239-1.96-.252-.5884-.0559-1.3721-.1399-1.9883-.1399-.9517,0-2.6318,0-2.8276.084-.1963.1121-.2524.28-.1963.4199.0278.084.896,1.2041.896,1.4561ZM785.2368,110.8972c.8677,0,1.1758-.084,3.9761-.7.728-.1682,1.624-.3362,2.2397-.3362.5879,0,1.5962.1121,1.5962.9241s-.4761.8679-2.1279,1.0359c-1.4282.1682-3.3042.532-3.7241.616-.1401.0281-1.2319.2522-1.3159.2522-1.3721,0-2.2402-1.96-2.1001-2.0161,0,0,1.2319.2241,1.4561.2241ZM800.2446,113.8372c0,.4199-.3359,1.064-.8398,1.064-.3921,0-.644-.2239-1.4282-1.2881-.3359-.448-.5879-.7278-1.9038-1.7358-.1123-.084-.3921-.3362-.3921-.448,0-.1121.252-.2241.4761-.2241,2.52,0,4.0879,1.6521,4.0879,2.6321ZM802.7085,111.0933c0,.3359-.2236.8398-.728.8398-.5879,0-.9517-.4761-1.4277-1.1199-.3643-.532-1.4561-1.3162-2.3521-1.708-.2798-.1121-.3359-.2241-.3359-.3081,0-.28.8398-.28,1.0361-.28,1.5117,0,3.8076.9521,3.8076,2.5762Z"/>
        <path class="d" d="M810.2407,120.5291c-1.6802,3.6401-4.6201,5.3201-5.1802,5.3201-.1118,0-.1396-.084-.1396-.1401,0-.2239.896-1.2039,1.1196-1.4839,3.0801-4.228,3.3882-7.28,3.3882-8.2041,0-.7278-.0278-1.0359-.4761-2.408-.0557-.1958-.1118-.364-.1118-.5039,0-.084.0278-.1399.1401-.1399.1958,0,3.1636.9519,3.1636,2.3799,0,.084-1.4277,4.116-1.9038,5.1799ZM814.7769,123.1331c0-.1399.1396-.8679.168-1.0081.084-.532.1118-2.7439.1118-3.4438,0-3.416-.3359-4.564-.5317-5.2639-.0562-.1401-.3643-.8682-.3643-1.0081,0-.1121.1123-.1401.168-.1401.1401,0,3.0801.5042,3.0801,1.96,0,.3362-.3921,1.792-.4482,2.1001-.1118.7561-.2236,4.144-.2236,5.0679,0,.364.0278.9241.5317.9241.8403,0,3.416-1.8479,6.104-4.564.4761-.4761,2.856-2.9958,2.9683-2.9958.0557,0,.1118.0559.1118.1118,0,.2241-1.624,3.696-6.5239,8.0081-1.4561,1.26-1.7358,1.54-1.9321,1.792-.4761.532-.728.728-.9238.7561-.812.1399-2.2959-1.5122-2.2959-2.2961Z"/>
        <path class="d" d="M835.6929,114.3972c-.168-.2522-.1963-.3081-.1963-.3921,0-.1399.1123-.168.252-.168,1.4844,0,3.5562,1.6519,3.5562,2.3799,0,.2522-.1401.3362-.5039.5881-.4199.252-.5879.532-1.1479,1.3159-3.3882,4.844-8.0923,6.6079-8.4844,6.6079-.168,0-.2236-.1399-.2236-.1958,0-.1121.084-.196.7837-.7561,4.312-3.584,6.272-7.448,6.272-8.4561,0-.3918-.0557-.532-.3076-.9238ZM844.2886,114.2012c.1401,0,1.3999.5039,2.7998,1.4561,1.9883,1.3718,4.5083,4.0039,4.5083,5.8799,0,.4199-.168,1.624-1.3999,1.624-1.0083,0-1.4844-1.0081-1.9321-2.4641-.5879-1.876-1.0361-2.9958-2.9121-4.9839-.1958-.196-1.2598-1.176-1.2598-1.26-.0283-.1121.0278-.252.1958-.252Z"/>
        <path class="d" d="M863.1055,113.7812c.644-.1401.644-.4202.644-1.1482,0-1.344-.0562-1.8198-.2803-2.2119-.1118-.196-.812-.98-.812-1.2041,0-.252.6724-.2798.8682-.2798.4482,0,.7842.0278,1.9878.7278.5884.3362.6724.3921.6724.7561,0,.1399-.2803.728-.3359.8401-.1401.3079-.168,1.064-.168,1.3999,0,.4761.1118.896.812.896.6436,0,2.7158-.084,3.3037-.28.1963-.0559,1.1201-.5601,1.3442-.5601.2798,0,2.436,1.3162,2.436,1.8481,0,.28-.1123.3918-.2803.532-.5039.364-.5601.4199-.6719.7839-.8398,2.3801-3.0801,8.6799-9.0439,12.656-1.5962,1.064-3.0801,1.624-3.2759,1.624-.084,0-.1685-.0562-.1685-.1121s.0283-.1121.2241-.2241c.98-.6719,1.9043-1.3999,2.8003-2.2119,6.0479-5.3479,7.1958-11.8999,7.1958-12.2358,0-.5881-.4761-.5881-.8682-.5881-2.4917,0-6.6079.252-7.9238.4202-2.1001.2798-2.1001.5039-2.1001.9519,0,.084.1123,1.092.1401,1.2319.252,2.1841.3921,3.0801.3921,4.2561,0,.532,0,1.428-.644,1.428-.7002,0-1.1479-.9241-1.2603-1.7642-.0278-.1399-.0278-2.0159-.0278-2.24,0-1.6799-.5317-3.6399-1.54-5.012-.1118-.168-.3359-.4758-.3359-.6438,0-.2241.5039-.364.98-.364.5879,0,1.0361.168,1.54.4758.7002.448.9238.5601,1.3438.5601.4482,0,2.4644-.196,3.0522-.3079Z"/>
        <path class="d" d="M888.7534,113.5012c-.1958,0-6.0762,1.3718-6.2158,1.428-.1963.0559-1.064.532-1.2603.532-.4199,0-1.7358-.8401-1.9038-1.0081-.1963-.196-.6719-1.428-.6719-1.624,0-.1399.0278-.2239.168-.2239.0278,0,.644.168.728.1958.8677.2522,1.2036.28,1.4839.28.9517,0,6.2158-.448,7.6719-1.0359.252-.1121,1.2881-.8679,1.54-.8679.6719,0,2.3799,1.428,2.3799,2.1279,0,.252-1.0361,1.0081-1.2041,1.2039-.5601.6721-2.772,3.948-3.2197,4.592-.1123.1401-.2241.3359-.2241.5601,0,.252.0562.3079,1.2319.9519,1.2603.728,6.272,3.5562,6.272,6.104,0,.644-.5039,1.2319-1.1479,1.2319s-.7559-.1958-1.7358-1.9319c-1.9321-3.3879-4.396-5.5161-5.0122-5.5161-.2798,0-.3638.0842-.98.7842-.98,1.0359-3.8359,4.1719-7.4761,5.9919-.7559.364-1.5117.644-1.7358.644-.0562,0-.1958,0-.1958-.168,0-.1121,1.1196-.9241,1.2881-1.0361,7.3076-5.292,10.6396-12.5439,10.5557-12.9919-.0562-.2239-.2798-.2239-.3359-.2239Z"/>
        <path class="d" d="M710.9668,148.8171c.5317,0,.7837.168.7837.5879s-.2236.616-.7837.616h-6.6919c-.7563,0-.7563.168-.7563,3.5281,0,3.136.0283,17.052.0283,19.908,0,.644-.1401.896-.5884.896-.6157,0-.6157-.196-.6157-1.8481v-22.5398c0-.7839.4478-1.1479,1.2041-1.1479h7.4199Z"/>
        <path class="d" d="M715.4746,160.2129c-.084-.1118-.1401-.168-.1401-.2239s.084-.0559.1123-.0559c.5601,0,3.3599.1958,4.0039.1958s.812-.1399,1.0361-.3918c.1396-.168.728-1.2041.98-1.2041.1118,0,1.792,1.54,1.792,1.876,0,.168-.5884.728-.7002.8682-.252.448-.252,2.9119-.252,3.6399,0,2.2119,0,3.584,1.792,4.8721,1.2598.9238,3.1357,1.3159,8.4277,1.3159,1.6802,0,3.2202,0,6.3281-.3081.3643-.0278,2.1841-.3359,2.3521-.3359.0562,0,.3081,0,.3081.168,0,.0562-.2803.3921-.3359.4761-.4204.4761-.4482.5601-1.0083,1.8201-.1396.3359-.2798.3359-1.5957.3359-2.3521,0-8.6523-.084-10.8081-.5042-3.2759-.6438-4.0601-1.9319-4.7598-3.1079-.812-1.428-.9243-1.5959-1.2041-1.5959-.252,0-.4482.1399-.5601.252-.4199.364-.6719.644-2.856,3.2761-.1963.2239-.9243,1.624-1.2319,1.624-.2803,0-1.7363-2.072-1.7363-2.1282,0-.3079.1123-.3359,1.1763-.7.98-.3081,3.2759-1.9041,3.4438-2.1279.3081-.364.3359-.364.3359-6.5239,0-.8682-.3081-.8682-1.54-.8682-.4199,0-2.52.1401-2.5757.1401-.1123,0-.1401-.0562-.252-.168l-.5322-.6162ZM721.5225,152.2891c.5322.6719.7842,1.512.7842,2.0439,0,.7-.5601,1.2319-1.0361,1.2319-.644,0-1.0356-.728-1.3721-1.3159-.5879-1.092-1.7358-2.688-3.4438-4.2,0-.0281-.3359-.3081-.3359-.364,0-.1121.168-.1121.252-.1121.1118,0,.2803.0281.3921.0562,2.3521.8398,3.7798,1.3718,4.7598,2.6599ZM735.6626,158.2529c-.8398,0-.8398.5042-.8398,1.092,0,1.344.1118,7.98.1118,9.4919,0,.644-.1118,1.344-1.2881,1.344-.6997,0-.8677-.2239-.8677-.728,0-.252.2236-5.656.2236-6.72,0-.3359-.1118-3.8638-.1396-4.0039-.1401-.4761-.4761-.4761-.7842-.4761h-2.6602c-.3921,0-.896,0-.9238.7561-.0562.98-.084,2.2119-.1958,3.136-.5884,5.04-3.7803,7.1399-3.9761,7.1399-.1123,0-.1401-.1121-.1401-.168,0-.2239.728-1.2319.8682-1.4561,1.6519-2.9399,1.6519-6.552,1.6519-10.4438,0-1.3721,0-3.332-.168-4.592-.0562-.196-.3081-1.1199-.3081-1.344,0-.1121,0-.3918.3359-.3918.2803,0,.4482.1118,1.1201.4758s.98.3921,1.1758.3921c.8682,0,6.4961-1.792,7.7002-2.5759.1118-.084.6157-.5042.7559-.5042.3643,0,2.4082,1.7361,2.4082,2.072,0,.4199-.6719.4199-1.5962.4199-.2798,0-.7837-.0278-1.4277.1121-1.3164.252-2.3521.5042-6.5801.9241-1.1479.1121-1.2881.1121-1.4282.28-.1958.196-.1958.5879-.1958,4.2,0,.532.1401.8398.896.8398h5.8237c.9521,0,1.3442,0,1.708-.2798.2241-.1401,1.0361-1.344,1.3442-1.344s2.4639,1.6799,2.4639,1.9878c0,.3081-.252.364-1.4839.364h-3.584Z"/>
        <path class="d" d="M745.7983,156.5171c2.436,0,4.0044,1.0078,4.0044,2.324,0,.728-.4204,1.092-.9521,1.092-.3921,0-.5039-.1121-1.4282-1.176-.084-.084-1.3716-1.512-2.3237-1.8481-.084-.0559-.2803-.1118-.2803-.168,0-.2239.728-.2239.98-.2239ZM746.9468,166.905c1.5117-.5881,4.7876-9.408,5.1235-9.408.0562,0,.084.084.084.1121,0,.3918-1.6235,5.7119-1.96,6.804-.5596,1.8198-.812,3.1079-.812,4.0598,0,.728.0283.9241.644,2.7161.084.28.1401.5601.1401.8401,0,.5879-.1958,1.6238-1.1758,1.6238-1.1479,0-1.2881-1.2319-1.3164-1.7078-.252-3.0242-.3076-3.5562-2.0156-4.3682-.0562-.0278-.5322-.28-.5322-.3079,0-.1401,1.54-.252,1.8203-.364ZM747.0308,148.957c1.792,0,4.3677,1.064,4.3677,3.0801,0,.728-.6997,1.0359-1.0361,1.0359-.6719,0-.896-.364-1.5396-1.5959-.168-.3081-.5044-.98-1.9321-2.2119-.0562-.0562-.1401-.1401-.1123-.2241.0283-.0559.1963-.084.2524-.084ZM765.7065,171.3569c1.2319,0,1.3721,0,1.6519-.3079.1963-.2241,1.0361-1.5122,1.3159-1.5122.3359,0,2.4922,1.7361,2.4922,2.1841,0,.3081-.3359.364-1.5122.364h-13.356c-1.708,0-2.772.0281-3.5557.084-.084,0-.5039.0559-.5884.0559-.084,0-.168-.084-.252-.168l-.5317-.6438c-.1123-.1121-.1123-.1401-.1123-.196,0-.0281.0283-.0562.084-.0562.1963,0,1.0645.084,1.2324.084,1.3716.084,2.52.1121,3.8359.1121h2.4639c.252,0,.7002,0,.812-.448.0562-.168.252-6.7759.252-14.28,0-.5039,0-3.9758-.0562-4.1438-.084-.3081-.3916-.448-.7837-.448h-1.2041c-2.2119,0-3.1362,0-3.4438.0559-.1123,0-.4761.084-.5601.084s-.1963-.0559-.2803-.168l-.5317-.644c-.084-.084-.1401-.168-.1401-.196,0-.0559.0562-.084.1118-.084.1963,0,1.0361.1121,1.2324.1121,1.3716.084,2.52.084,3.8359.084h6.0757c1.3159,0,1.4561,0,1.792-.4758.8403-1.26.9521-1.4001,1.2041-1.4001.3921,0,2.2959,1.7361,2.2959,2.2119,0,.4202-.5317.4202-1.5117.4202h-5.1523c-.3359,0-.6436.084-.7559.4199-.1118.3081-.168,7.9519-.168,11.032,0,4.0879.0278,7.196.0278,7.28.0562.4199.4204.5879.812.5879h2.9683Z"/>
        <path class="d" d="M785.4746,153.437c0,.084.0562.196.0562.3081.1118.896.2798,1.792.2798,3.0239,0,1.876-.4199,4.48-2.8838,8.2039-2.2402,3.416-3.668,4.0881-4.7881,4.0881-1.8481,0-3.5-2.884-3.5-6.3,0-1.4839.3081-4.312,3.1079-7.1399,3.5562-3.6401,7.3081-3.6401,8.9321-3.6401,2.5479,0,3.7241.5042,4.5078.896,3.0239,1.4841,4.8721,4.48,4.8721,8.1479,0,3.6401-2.1001,8.1201-7.0557,9.856-2.3804.8401-4.228,1.0361-4.6484,1.0361-.1118,0-.2798-.0281-.2798-.196,0-.084.0562-.1121.7559-.3921,2.9121-1.1479,8.9883-3.5559,8.9883-10.5278,0-1.092-.1123-7.7561-7.7563-7.7561-.5596,0-.5879.2241-.5879.3921ZM776.3745,162.033c0,1.8201.728,4.312,2.436,4.312.812,0,1.4844-.3359,3.416-3.248,1.4844-2.2678,2.7441-5.376,2.7441-8.1479,0-1.6799-.1118-1.8198-.4761-1.8198-2.6597,0-8.1201,3.6118-8.1201,8.9038Z"/>
        <path class="d" d="M804.5708,153.1011c-.3638,0-.5879.0559-.728.644-.168.7-.6719,2.9119-2.0718,2.9119-.5879,0-1.2041-.3918-1.2041-1.1479,0-.616.3643-.896,1.1201-1.4839.9521-.728,1.4839-1.7361,1.9038-2.8281.0283-.1121.084-.2239.1401-.3079.084.1399.0562.4758.084.896.0278.5598.3921.5598.812.5598h6.6362c.6719,0,.7837-.196.7837-.896,0-1.2039-.0562-1.4558-.1118-1.6519-.0283-.1121-.252-.644-.252-.7561,0-.2239.1958-.28.3638-.28.0562,0,2.7441.3081,2.7441.812,0,.1401-.5039.5881-.5879.7-.1123.196-.1963.6162-.1963,1.092,0,.8401.168.98.812.98h5.5161c.6997,0,1.1479-.0278,1.6519-.6719.4482-.5881.5322-.5881.644-.5881.2241,0,.3921.1121,1.7642,1.2322.3921.3359.5879.5039.5879.9238,0,.7842-.5879.8401-1.4839.9241-.7842.084-1.624.5039-2.3804,1.0359-.1958.1401-.5596.4202-.6719.4202-.084,0-.168-.1121-.168-.168,0-.1401.1963-.364.3643-.644.4756-.7561.5317-1.2041.5317-1.3159,0-.3921-.3921-.3921-.644-.3921h-15.96ZM814.5669,157.217c-.2241,0-.5039,0-.5039.3359,0,.98,2.5762,5.9919,3.3599,5.9919.8682,0,3.0522-3.5559,3.1641-3.9199.0562-.1399.1401-.9241.2798-.9241.0283,0,2.52,1.624,2.52,2.0161,0,.252-.3916.3079-.7559.364-.5039.084-.644.168-1.708,1.0081-.4199.3079-2.3237,1.512-2.688,1.792-.1401.084-.2798.2239-.2798.4199,0,.2239,2.4077,3.1079,6.7476,4.844.3081.1121.728.28.8965.4199-.3643.1121-1.0361.3921-1.2041.532-.2803.2241-.7563.7561-.9521,1.064-.084.1401-.1401.196-.252.196-.1401,0-2.7998-1.5679-5.04-4.144-3.248-3.752-4.1157-7.252-4.5918-9.2397-.0562-.2522-.1401-.5881-.3921-.5881-.1963,0-.2803.084-1.2603.98-.2236.196-1.3716.98-1.3716,1.2319,0,.1682.084.2241.6719.644,4.0601,2.9399,4.0601,7.7561,4.0601,8.3999,0,3.22-1.5122,5.1521-3.6401,5.1521-.4199,0-.4482-.084-.644-.728s-1.1201-1.0081-2.4639-1.512c-.4761-.196-.5322-.196-.5322-.28s.1401-.084.168-.084c.2241,0,1.2881.1399,1.5122.168.5317.0562,1.4277.084,1.792.084.5601,0,.9521-.0278,1.4277-.9519.2241-.448.4204-1.2319.4204-2.2961s-.168-1.8479-.5322-1.8479c-.084,0-.812.6721-.9238.7561-4.3682,3.8918-9.4639,4.7319-9.4922,4.7319-.0557,0-.1118,0-.1118-.0562,0-.0278.6997-.4199.812-.4758,3.416-1.96,5.8799-3.3601,8.8198-6.748.2241-.28.5322-.616.5322-1.0081,0-.1958-.2524-.812-.6162-.812-.1118,0-.1958.0562-.896.644-3.5,2.9961-8.064,4.4241-8.5679,4.4241-.0562,0-.1123-.0281-.1123-.0562,0-.0559,1.8765-1.1199,2.2124-1.344,2.772-1.7639,6.104-4.5918,6.104-5.46,0-.2798-.3643-.8398-.7563-.8398-.1396,0-1.064.616-1.2041.728-2.772,1.8198-6.6919,2.688-6.7476,2.688-.0562,0-.1123-.0281-.1123-.084,0-.084.5884-.364.98-.5601,4.564-2.156,7.1963-5.04,7.1963-5.4041,0-.252-.084-.252-.896-.252-1.9321,0-2.9121.0281-3.1924.0559-.084.0281-.5039.084-.5879.084-.1118,0-.168-.1118-.252-.1958l-.5317-.644c-.0562-.0562-.1123-.1401-.1123-.168,0-.0562.0283-.084.084-.084.1963,0,1.064.084,1.2603.1118,1.1196.0281,2.3799.084,3.4717.084h6.6079c1.1201,0,1.2324,0,1.4561-.1958.2241-.2241,1.064-1.3721,1.3164-1.3721.1958,0,2.2676,1.54,2.2676,1.9319,0,.3921-.2798.3921-1.0078.3921h-5.208Z"/>
        <path class="d" d="M830.5269,174.073c-.5317,0-.7842-.168-.7842-.5881,0-.4199.2241-.616.7842-.616h6.6919c.7563,0,.7563-.168.7563-3.5278,0-3.136-.0283-17.052-.0283-19.908,0-.644.1401-.896.5879-.896.5884,0,.5884.196.5884,1.8479v22.54c0,.7839-.4204,1.1479-1.1763,1.1479h-7.4199Z"/>
      </g>
      <g>
        <path class="b" d="M744.3594,61.7966c.6475,0,.7915,0,.9951.5398.0962.2637.6118,1.6189.6118,1.739,0,.1318-.1201.1799-.1919.1799-.0962,0-.1318-.0481-.4077-.5039-.6357-1.0435-1.3433-1.5591-2.1587-1.5591-.4678,0-.7559.1919-.8276.5996-.0361.2158-.0361,2.9265-.0361,3.4302,0,.3359,0,3.1062.0361,3.3101.1079.6118.6714.6238.9951.6238.4438,0,.54,0,.54.1919s-.168.1919-.3599.1919h-3.3584c-.1675,0-.3477,0-.3477-.1919s.1919-.1919.2642-.1919c.7075,0,1.1514,0,1.271-.6238.0361-.1919.0361-.2039.0361-3.394,0-2.9624,0-3.2861-.084-3.5142-.1201-.3237-.4438-.4316-.7676-.4316-.9595,0-1.667.7556-2.1587,1.5471-.2881.4678-.312.5159-.4199.5159-.084,0-.1919-.072-.1919-.1799,0-.0959.5396-1.5352.6357-1.7751.1919-.5037.3838-.5037.9834-.5037h4.9414Z"/>
        <path class="b" d="M753.3965,70.7676c-2.3149,0-3.9219-1.8948-3.9219-4.5933s1.5952-4.6055,3.9219-4.6055c2.3027,0,3.9097,1.8948,3.9097,4.6055,0,2.6865-1.5952,4.5933-3.9097,4.5933ZM756.167,66.0662c0-1.1033-.312-4.1016-2.7705-4.1016-2.6865,0-2.7827,3.5259-2.7827,4.3176,0,1.1514.3481,4.0896,2.7827,4.0896,2.6743,0,2.7705-3.49,2.7705-4.3057Z"/>
        <path class="b" d="M764.0645,61.7966c.4561,0,3.4185,0,3.4185,2.2668,0,1.2471-.9595,2.3386-3.1064,2.3386h-1.1514c-.3237,0-.3237.0959-.3237,1.0073,0,2.1948,0,2.2068.1318,2.4109.1919.2756.4917.3357.8037.3357.2637,0,.4077,0,.4077.1919s-.168.1919-.3359.1919h-2.9624c-.1797,0-.3477,0-.3477-.1919s.1797-.1919.2998-.1919c.4077,0,.9233,0,1.0435-.6238.0361-.1919.0361-.2039.0361-3.394,0-.5637,0-3.1304-.0361-3.3342-.1079-.5757-.6235-.6116-.9116-.6116-.2998,0-.4316,0-.4316-.1919,0-.2039.168-.2039.3477-.2039h3.1182ZM764.1367,66.0063c1.583,0,2.2065-.8755,2.2065-1.895,0-1.3193-.9712-1.9189-2.0625-1.9189h-.5161c-.8633,0-.8633.5278-.8633,1.571,0,.168,0,1.8711.0117,1.979.0239.1799.1562.2639.312.2639h.9116Z"/>
        <path class="b" d="M770.7622,70.5398c-.1558,0-.3354,0-.3354-.1919s.0957-.1919.5635-.1919c.3477,0,.9233,0,1.0435-.6238.0361-.2039.0361-2.9622.0361-3.3101,0-.4917,0-3.2021-.0361-3.4182-.1201-.6116-.5518-.6116-1.3433-.6116-.0718,0-.2637,0-.2637-.1919,0-.2039.1797-.2039.3477-.2039h3.5259c.144,0,.3242,0,.3242.2039,0,.1799-.1084.1799-.5518.1799-.3599,0-.8755.012-1.0317.5518-.0479.1677-.0479,2.8665-.0479,3.418,0,3.1782,0,3.1902.0361,3.3821.1079.6238.5396.6238,1.3433.6238.0596,0,.252,0,.252.1919s-.1802.1919-.3242.1919h-3.5381Z"/>
        <path class="b" d="M783.9829,61.7126c0,.012.7793,1.895.7793,2.0269,0,.1321-.1196.2158-.2275.2158-.1084,0-.1323-.0359-.3838-.3838-1.0195-1.4392-2.0869-1.6069-2.5908-1.6069-1.8828,0-2.8545,2.3027-2.8545,4.3774,0,2.7825,1.6313,3.874,3.0586,3.874.8394,0,1.7988-.3599,2.5903-1.7031.2759-.4678.2759-.4797.3716-.4797.0962,0,.1802.084.1802.1919s-.2998.7314-.6836,1.2114c-1.0073,1.2471-2.2788,1.3311-2.8184,1.3311-2.5308,0-3.7661-2.0508-3.7661-4.4014,0-2.8066,1.7393-4.7974,3.7661-4.7974.2998,0,.6475.0479,1.019.1438.084.0359.6479.1919.7197.1919.0962,0,.2402-.0359.3237-.1199.1919-.1919.2163-.2158.312-.2158.0718,0,.168.0718.2041.1438Z"/>
        <path class="b" d="M803.1445,61.9973c0,1.1804-.6802,2.2405-1.7803,3.0408-.1602.0999-1.0405.5801-1.0405.7002,0,.1799.9404.5,1.1006.6001.9399.5801,2.0205,1.6401,2.0205,3.4006,0,2.5605-2.2007,4.2209-4.7212,4.2209-2.0005,0-3.9209-1.1204-3.9209-2.7207,0-.8201.5601-1.2002,1.1401-1.2002.6802,0,.9805.54.9805.9402,0,.1602-.1802.9001-.1802,1.0603,0,.7402.8604,1.2803,1.8003,1.2803,1.6006,0,3.1006-1.6204,3.1006-3.5608,0-1.9004-1.3804-3.6609-3.1406-3.6609-.1001,0-.6602.0801-.7803.0801-.2998,0-.4399-.1799-.4399-.4001,0-.24.2002-.4199.46-.4199.1201,0,.7202.0999.8604.0999,1.3604,0,2.7407-1.2402,2.7407-3.1606,0-1.5403-.9404-3.0205-2.5205-3.0205-1.0605,0-1.6006.7002-1.6006,1.2803,0,.0999.1001.6201.1001.74,0,.6003-.46,1.0603-1.02,1.0603-.6401,0-1.0005-.54-1.0005-1.0603,0-.9602,1.1802-2.6804,3.9009-2.6804,1.9805,0,3.9409,1.3403,3.9409,3.3806Z"/>
      </g>
      <line class="c" x1="731.0703" y1="86.6368" x2="810.4227" y2="86.6368"/>
    </g>
    <polyline class="f" points="781.2134 205.4386 770.747 215.9051 760.2806 205.4386"/>
  </g>
</svg>