<?xml version="1.0" encoding="UTF-8"?>
<svg id="a" data-name="差し替え・追加" xmlns="http://www.w3.org/2000/svg" width="669.6826" height="317.9658" viewBox="0 0 669.6826 317.9658">
  <defs>
    <style>
      .b, .c {
        fill: #202852;
      }

      .d, .e {
        fill: #231f20;
      }

      .c, .e, .f {
        stroke-miterlimit: 10;
      }

      .c, .f {
        stroke: #323255;
        stroke-width: 1.4173px;
      }

      .e {
        stroke: #231f20;
        stroke-width: .8504px;
      }

      .f {
        fill: none;
      }
    </style>
  </defs>
  <g>
    <path class="b" d="M165.5977,2.8796c-3.1313,0-4.1753.072-4.5352.1079-.1084,0-.6479.072-.7559.072-.144,0-.2163-.072-.3242-.2158l-.6841-.8281q-.1436-.1799-.1436-.252c0-.0359.0356-.0718.1079-.0718.252,0,1.3677.1079,1.5835.1079,1.7642.1079,3.2397.144,4.9316.144h15.8018c1.4761,0,1.6558,0,1.9438-.252.2881-.2522,1.4399-1.6919,1.7998-1.6919.4678,0,3.3477,2.1958,3.3477,2.5198,0,.3599-.1802.3599-1.9077.3599h-10.6187c-1.0801,0-1.0801.396-1.0801,2.4116,0,1.116.0361,10.7986.0723,11.0146.1797.5759.7197.5759,1.1157.5759h7.019c1.6558,0,1.8359,0,2.3037-.6118,1.0439-1.4399,1.188-1.584,1.5117-1.584.6479,0,2.9878,2.4478,2.9878,2.6638,0,.468-.7197.468-1.9077.468h-11.9146c-.7197,0-1.1519.1438-1.1519,1.2236,0,1.512.144,8.3149.144,9.6829,0,1.6919,0,3.7075-1.7998,3.7075-1.188,0-1.188-1.0439-1.188-1.4038,0-1.6917.2158-9.1069.2158-10.6187,0-2.3037,0-2.5916-1.1514-2.5916h-7.3433c-3.1675,0-4.2114.0718-4.5713.1079-.1084,0-.6479.1079-.7563.1079-.1079,0-.1797-.1079-.3237-.252l-.6841-.8279c-.1436-.144-.1436-.1799-.1436-.2161,0-.0718.0356-.1079.1079-.1079.252,0,1.3677.1079,1.5835.144,1.7637.072,3.2759.1079,4.9673.1079h7.1992c.3599,0,.8638,0,1.0439-.396.144-.324.144-1.9797.144-3.1675,0-.144,0-9.6108-.0361-9.7549-.0718-.5398-.4316-.6838-.9717-.6838h-5.9395ZM161.5664,5.5073c.5039,0,5.939,3.4915,5.939,7.415,0,1.0078-.6479,1.8357-1.5835,1.8357-1.0078,0-1.1519-.5039-1.7642-2.9155-.1436-.5759-.6118-2.4836-1.8354-4.6074-.144-.2161-.8638-1.2598-.936-1.4399,0-.1079,0-.2878.1802-.2878ZM185.6113,7.8469c-.792.4321-2.9517,3.7795-3.4556,4.3916-1.2959,1.4758-2.9155,3.0596-3.3477,3.0596-.1079,0-.3237-.072-.3237-.2881,0-.0359.6475-1.0798.7197-1.1877,2.0879-3.3115,3.8154-6.9832,3.8154-8.7109,0-.6838,0-.792.2158-.792.0723,0,3.4199,2.0159,3.4199,2.6277,0,.3601-.0723.3601-1.0439.8999Z"/>
    <path class="b" d="M240.6558,2.0156c.7197,0,.8276-.1799,1.188-.7197.2876-.4321.5396-.6121.6475-.6121.1084,0,3.1318,1.188,3.1318,2.0518,0,.3601-.2158.5759-.54.7559-.4316.2161-.6118.396-.6118.792,0,.1079.1802,1.9077.1802,2.2678,0,2.1956-1.5479,2.3396-1.9438,2.3396-.6479,0-.8281-.2878-1.0801-.7559-.144-.252-.396-.3601-.9717-.3601h-18.5376c-1.188,0-1.188.2881-1.188,2.1238,0,7.667-.936,15.2261-5.0034,20.1575-.252.324-1.188,1.26-1.332,1.26-.0718,0-.1797-.072-.1797-.1802.144-.2878.4678-.8638.5757-1.0437,1.7998-3.4917,3.3838-7.739,3.3838-17.6379,0-3.2395-.2881-7.4509-.4321-8.4587-.0356-.3601-.4316-2.1599-.4316-2.5559,0-.1079.0718-.6477.5757-.6477.2158,0,1.2959.4678,2.1958.8638.6841.2881,1.0439.3599,1.7998.3599h18.5737ZM238.1357,23.7571c1.6201,0,1.7998,0,2.3398-.6479,1.0439-1.26,1.1519-1.3679,1.4761-1.3679.252,0,3.2754,1.9797,3.2754,2.4478,0,.396-.2881.5039-1.9077.5039h-7.3433c-1.1519,0-1.1519.54-1.1519,1.6199,0,2.8796,0,3.2036,1.1162,3.2036h3.9233c1.2959,0,1.5479-.072,1.728-.2881.252-.2878,1.2236-1.9077,1.5835-1.9077.2158,0,3.8154,2.1238,3.8154,2.6277,0,.396-.3237.5039-1.8716.5039h-19.6533c-2.4121,0-3.7798.0361-4.5718.1079-.1079,0-.6479.072-.7559.072s-.1797-.072-.3237-.2158l-.6841-.8279c-.1079-.1082-.144-.1802-.144-.252,0-.0361.0361-.072.1079-.072.252,0,1.3682.1079,1.584.1079,1.7637.1079,3.2754.144,4.9312.144h5.5435c1.0801,0,1.0801-.2881,1.0801-2.8076,0-1.584,0-2.0159-1.0439-2.0159h-1.6919c-2.6636,0-3.7075.0361-4.5356.1079-.1079,0-.6479.072-.7559.072-.144,0-.2158-.072-.3237-.2158l-.6841-.8279c-.0718-.1082-.1797-.1802-.1797-.252,0-.072.0718-.072.144-.072.252,0,1.3677.1079,1.5835.1079,1.7637.072,3.5996.144,4.9316.144h1.4038c1.0435,0,1.0435-.6121,1.0435-1.26,0-.7197,0-3.1675-1.2954-3.1675-.144,0-5.4717.6838-5.8677.8638-.2158.072-.9355.864-1.1519.864-.252,0-.3237-.1079-.6475-.792-.8643-1.7998-1.5122-3.1675-1.5122-3.5276,0-.1438.1079-.1799.2163-.1799.0356,0,.5757.2881.6836.3601.252.1079.8999.2158,2.0518.252.54.0359,2.8438.1079,3.3115.1079,1.1162,0,1.5122-.468,1.98-1.4758.252-.6118,1.1157-2.5916,1.1157-3.0596,0-.5759-.5039-.5759-.8638-.5759h-1.1519c-2.7715,0-3.7075.0359-4.5356.1079-.144,0-.6479.072-.7915.072-.1084,0-.144-.072-.2881-.2161l-.7202-.8638c-.1079-.1079-.1436-.1799-.1436-.2161,0-.072.0356-.072.1436-.072.2163,0,1.332.1082,1.584.1082,1.7637.072,3.2397.1079,4.9316.1079h9.8267c1.6919,0,1.8716,0,2.1958-.252.3237-.2881,1.6558-1.7639,2.0156-1.7639.252,0,2.8794,2.0159,2.8794,2.4839,0,.4678-.396.5039-1.9077.5039h-10.5464c-.1802,0-.2881,0-.2881.1079,0,.072.9717,1.0078.9717,1.2598,0,.2161-.9717.468-1.1157.6121-.1802.1799-2.1597,2.3757-2.1597,2.7356,0,.396.6841.396.9717.396.8999,0,6.6235-.2161,7.8472-.2881.144,0,.5757-.0359.5757-.3237,0-.396-2.1235-2.3757-2.1235-2.5918,0-.072.0361-.1799.1802-.1799.3599,0,2.7715,1.2959,3.3833,1.6558,2.8438,1.6199,3.8516,2.2317,3.8516,3.9954,0,1.116-.6118,1.7998-1.4399,1.7998-.5757,0-.6479-.1079-1.6914-1.8357-.936-1.5837-1.1162-1.6558-1.6201-1.6558-.1079,0-5.9751.8999-6.875,1.0078-.4678.072-.8638.1082-.8638.2881,0,.3599,2.5195.9358,2.5195,1.5117,0,.252-.1079.3599-.5757.792-.252.252-.252.3599-.252,1.4038,0,.8999.6836.8999,1.0796.8999h2.1235ZM222.082,2.9517c-.396,0-1.2236,0-1.2236.9358,0,2.8076,0,2.9158,1.2598,2.9158h18.3574c1.1162,0,1.2959-.252,1.2959-2.5557,0-.7561-.0361-1.2959-1.2236-1.2959h-18.4658Z"/>
    <path class="b" d="M292.0645,3.3835c1.9438,0,2.376,0,2.9878,1.6199.2881.7917,1.8354,4.8594,1.8354,5.2192,0,.396-.3599.54-.5757.54-.2881,0-.396-.144-1.2236-1.512-1.9082-3.1316-4.0317-4.6794-6.4795-4.6794-1.4038,0-2.2676.5762-2.4834,1.7998-.1084.6479-.1084,8.783-.1084,10.2949,0,1.0078,0,9.3228.1084,9.9346.3237,1.8359,2.0156,1.8718,2.9873,1.8718,1.332,0,1.6201,0,1.6201.5759s-.5039.5759-1.0801.5759h-10.0786c-.5039,0-1.0439,0-1.0439-.5759s.5757-.5759.792-.5759c2.1235,0,3.4556,0,3.8154-1.8718.1079-.5759.1079-.6118.1079-10.1868,0-8.8909,0-9.8625-.252-10.5466-.3599-.9719-1.332-1.2959-2.3037-1.2959-2.8794,0-5.0034,2.2678-6.479,4.6436-.8643,1.4038-.936,1.5479-1.2598,1.5479-.252,0-.5762-.2161-.5762-.54,0-.2878,1.6196-4.6074,1.9077-5.3274.5762-1.5117,1.1519-1.5117,2.9517-1.5117h14.8301Z"/>
    <path class="b" d="M333.5728,30.3081c-6.9473,0-11.7705-5.6873-11.7705-13.7861s4.7876-13.8223,11.7705-13.8223c6.9111,0,11.7344,5.6873,11.7344,13.8223,0,8.063-4.7871,13.7861-11.7344,13.7861ZM341.8877,16.198c0-3.3115-.936-12.3105-8.3149-12.3105-8.063,0-8.3511,10.5828-8.3511,12.9585,0,3.4556,1.0439,12.2744,8.3511,12.2744,8.0269,0,8.3149-10.4746,8.3149-12.9224Z"/>
    <path class="b" d="M379.9766,3.3835c1.3677,0,10.2588,0,10.2588,6.8032,0,3.7434-2.8799,7.019-9.3232,7.019h-3.4551c-.9722,0-.9722.2881-.9722,3.0237,0,6.5872,0,6.623.396,7.2351.5762.8279,1.4756,1.0078,2.4116,1.0078.792,0,1.2241,0,1.2241.5759s-.5039.5759-1.0083.5759h-8.8906c-.54,0-1.0439,0-1.0439-.5759s.54-.5759.8999-.5759c1.2236,0,2.7715,0,3.1318-1.8718.1079-.5759.1079-.6118.1079-10.1868,0-1.6917,0-9.3948-.1079-10.0066-.3242-1.7278-1.8721-1.8359-2.7358-1.8359-.8999,0-1.2959,0-1.2959-.5757,0-.6121.5039-.6121,1.0439-.6121h9.3589ZM380.1924,16.0181c4.7515,0,6.623-2.6277,6.623-5.6875,0-3.9595-2.9155-5.7593-6.1909-5.7593h-1.5479c-2.5918,0-2.5918,1.584-2.5918,4.7156,0,.5039,0,5.6152.0361,5.9392.0718.54.4678.792.936.792h2.7354Z"/>
    <path class="b" d="M414.4653,29.6243c-.4678,0-1.0078,0-1.0078-.5759s.2881-.5759,1.6919-.5759c1.0439,0,2.7715,0,3.1318-1.8718.1079-.6118.1079-8.8909.1079-9.9346,0-1.4758,0-9.6108-.1079-10.2588-.3604-1.8359-1.6562-1.8359-4.0317-1.8359-.2158,0-.792,0-.792-.5757,0-.6121.54-.6121,1.0439-.6121h10.5825c.4321,0,.9722,0,.9722.6121,0,.5398-.3242.5398-1.6558.5398-1.0801,0-2.6279.0359-3.0957,1.6558-.144.5039-.144,8.603-.144,10.2588,0,9.5388,0,9.5747.1079,10.1506.3242,1.8718,1.6201,1.8718,4.0317,1.8718.1797,0,.7559,0,.7559.5759s-.54.5759-.9722.5759h-10.6187Z"/>
    <path class="b" d="M468.5352,3.1316c0,.0359,2.3394,5.6873,2.3394,6.0833s-.3599.6479-.6836.6479c-.3242,0-.396-.1079-1.1519-1.1519-3.0596-4.3196-6.2632-4.8235-7.7754-4.8235-5.6509,0-8.5669,6.9111-8.5669,13.1384,0,8.3508,4.8955,11.6265,9.1792,11.6265,2.5195,0,5.3994-1.0798,7.7749-5.1113.8276-1.4038.8276-1.4397,1.1157-1.4397s.54.252.54.5759c0,.3237-.8999,2.1956-2.0518,3.6355-3.0234,3.7434-6.8389,3.9954-8.459,3.9954-7.5947,0-11.3027-6.1553-11.3027-13.2102,0-8.4231,5.2197-14.3982,11.3027-14.3982.8999,0,1.9438.144,3.0596.4319.252.1079,1.9438.5759,2.1597.5759.2881,0,.7202-.1079.9722-.3599.5757-.5759.6479-.6479.9355-.6479.2163,0,.5044.2158.6123.4319Z"/>
    <path class="b" d="M496.833,28.2925c-.252-.6479-1.7998-4.7153-1.7998-4.9314,0-.54.4678-.7559.792-.7559.396,0,.4678.1799,1.332,1.5117,1.5835,2.4836,4.8232,4.9314,8.4585,4.9314,2.4121,0,5.3276-1.6199,5.3276-5.4353,0-3.2756-2.1597-4.4275-6.7314-6.0112-5.0034-1.7278-8.3149-3.6355-8.3149-7.9189,0-3.7437,2.5918-6.9832,7.1992-6.9832.7197,0,1.6196.1079,2.5557.2878.396.072,1.9077.396,2.1597.396.3242,0,.5762-.072.792-.2161.5039-.3958.5762-.4678.8281-.4678.4316,0,.5396.324.8999,1.2598.252.5759,1.9434,4.8235,1.9434,5.0393,0,.468-.396.5759-.6118.5759-.2881,0-.3599-.1079-.936-1.0437-.9717-1.5479-2.9155-4.6436-7.3428-4.6436-4.0317,0-4.8955,3.2397-4.8955,4.7515,0,2.9875,2.1597,4.0674,6.875,5.7234,7.2715,2.5195,8.2432,5.3992,8.2432,8.1709,0,4.8594-3.8154,7.7749-7.811,7.7749-1.2959,0-2.5557-.252-3.8877-.7197-.9717-.324-1.2236-.3601-1.4395-.3601-.5762,0-1.0439.144-1.3682.468-.6118.5398-.6836.6118-1.0439.6118-.4678,0-.5396-.2158-1.2236-2.0156Z"/>
  </g>
  <g>
    <g>
      <path class="d" d="M8.436,143.9023c-.21-.3149-.2451-.385-.2451-.49,0-.175.1401-.21.3154-.21,1.855,0,4.4453,2.0652,4.4453,2.9753,0,.3149-.1753.4199-.6304.7351-.5249.3149-.7349.665-1.4351,1.645-4.2354,6.0557-10.1157,8.261-10.606,8.261-.21,0-.2803-.175-.2803-.2451,0-.1399.1055-.2451.9805-.9451,5.3906-4.4805,7.8408-9.311,7.8408-10.571,0-.5601-.1753-.8401-.3853-1.1553ZM18.4824,143.6575c.1748,0,1.75.6299,3.5,1.8201,2.4854,1.7151,5.6357,5.0056,5.6357,7.3508,0,.5249-.2451,2.0303-1.75,2.0303-1.2603,0-1.8555-1.2603-2.4155-3.0803-.77-2.4504-1.2251-3.6404-3.6401-6.2307-.2451-.2451-1.5752-1.4702-1.5752-1.5752,0-.175.0698-.3149.2451-.3149ZM29.5083,140.9971c0,1.8552-1.54,3.4304-3.3252,3.4304-1.6104,0-3.3955-1.3301-3.3955-3.3955,0-1.7852,1.3301-3.3604,3.3955-3.3604,2.5552,0,3.3252,2.1353,3.3252,3.3254ZM23.9429,141.1021c0,1.4702,1.2949,2.1353,2.2749,2.1353,1.5054,0,2.1353-1.3301,2.1353-2.1702,0-1.3301-1.2598-2.2053-2.2402-2.2053-.8047,0-2.1699.7002-2.1699,2.2402Z"/>
      <path class="d" d="M44.7314,147.8928c-.6299,0-2.6602.385-3.3604.5251-.77.1399-4.6201.98-4.7603.98-.8403,0-1.0151-.175-2.7656-1.8901-.9097-.9102-.98-1.0151-.98-1.2603,0-.0698.0352-.2449.2451-.2449s1.1553.28,1.4004.3501c.9097.2449,1.5747.3499,2.6602.3499,1.7148,0,7.7358-.595,8.541-.9451.4546-.21.4897-.5249.5596-1.2251.1055-.9102.1753-2.5903.1753-3.5005,0-2.03-.1753-2.9751-.5601-3.6052-.105-.175-.6299-.8752-.6299-1.05,0-.28,1.1548-.28,1.5049-.28,1.0503,0,3.3604,1.8552,3.3604,2.5901,0,.2451-.5249,1.1201-.5952,1.2952-.2446.6301-.5947,3.9204-.5947,4.4104,0,.6301.21.9802.9102.9802.665,0,3.1499-.385,3.9902-.7,1.75-.6653,2.2051-.8403,2.9404-.8403.9448,0,3.4302.6301,3.4302,2.2053,0,1.05-1.855,1.05-2.4502,1.05-.4902,0-2.6602-.1748-3.1152-.1748-.3149,0-4.9355.2449-5.6006.5249-.3853.1401-.6304.4551-.8403,1.3652-1.6099,6.3706-2.4502,9.731-6.2656,13.3013-1.2251,1.1201-2.4502,1.8552-2.625,1.8552-.1401,0-.1753-.105-.1753-.175,0-.105,1.0854-1.4001,1.7505-2.3452,2.6602-3.7104,3.5-6.7556,4.0254-8.646.6299-2.3801.7349-3.9902.7349-4.0952,0-.5251-.3501-.8052-.9102-.8052Z"/>
      <path class="d" d="M71.7866,146.2827c0,1.6802-1.2251,1.8901-1.4355,1.8901-.77,0-.9097-.21-2.4502-2.8704-.77-1.2952-1.3301-1.8901-2.8003-3.3953-.0698-.0701-.21-.21-.21-.3152,0-.1399.21-.105.2803-.105,1.4702.3152,6.6157,1.2952,6.6157,4.7957ZM84.8779,144.1824c-.4199.665-1.9604,3.9204-2.3105,4.5505-2.5552,4.6204-5.9502,8.821-10.4307,11.6213-1.8555,1.155-3.7104,1.925-3.8857,1.925-.105,0-.1748-.105-.1748-.175,0-.1399,3.1504-2.7651,3.7104-3.2903,8.4707-7.7358,10.5361-16.4517,10.5361-16.9417,0-.5952-.4204-1.2952-.9805-1.7854-.0347-.0349-.1748-.175-.1748-.28,0-.3149.77-.3149.9102-.3149,1.3301,0,1.7148.28,2.5552.98.3501.3152,1.4702,1.2952,1.4702,2.0654,0,.3149-1.0503,1.4001-1.2251,1.645Z"/>
      <path class="d" d="M96.4263,154.5435c4.1655,0,7.7007-.4551,9.9062-.77.9448-.1399,4.9355-.875,5.7754-.875,1.0151,0,5.2856.7,5.2856,2.3801,0,.8052-1.3652,1.0151-1.96,1.0151-.2803,0-1.0854-.1401-1.9253-.28-1.1553-.175-2.4502-.28-3.9556-.28-2.9404,0-10.3262.8052-12.2515,1.1201-.4897.0701-3.0449.665-3.0801.665-.4199,0-1.9253-.77-2.4502-1.2952-.6304-.595-1.0503-2.2402-1.0503-2.3103,0-.2449.1401-.3149.3149-.3149.105,0,.2803.0352.3853.0701,2.2754.7351,2.6602.875,5.0054.875ZM98.4917,143.3074c1.1201,0,6.1255-.7002,7.5259-.9451.4897-.0701,2.625-.49,3.0449-.49,1.6104,0,3.1157.8049,3.1157,1.75,0,.8752-1.2954.9451-5.1108,1.1201-1.3652.0701-8.1206.9802-8.4009.9802-.98,0-1.7148-.8401-1.8901-1.0852-.105-.1399-.9448-1.1902-.9448-1.26,0-.1052.2798-.175.4897-.175s1.8203.105,2.1704.105Z"/>
      <path class="d" d="M126.562,152.5134c0,.98-.8052,1.3301-1.1899,1.3301-.77,0-1.0151-.8052-1.2603-1.5752-.3149-.9802-1.085-2.3452-2.0303-3.5354-.1748-.2451-.2446-.3501-.2446-.4551,0-.21.21-.3149.4546-.3149.8403,0,4.2705,1.7502,4.2705,4.5505ZM137.3784,145.3025c0-.0349-.0703-.21-.0703-.3149,0-.175.1401-.2451.2451-.2451.2803,0,1.3301.7351,1.5752.8752.5601.28,1.9604,1.1201,1.9604,2.135,0,.2803-.1401.3152-.7354.6653-.2798.175-1.5049,2.5552-1.7852,3.0103-5.3555,8.8909-13.9663,12.3562-14.2466,12.3562-.105,0-.21-.105-.21-.21,0-.175,1.645-1.2251,1.9604-1.4702,7.4556-5.7056,11.5513-12.2861,11.5513-15.2966,0-.7-.0703-1.085-.2451-1.5051ZM131.918,148.698c0,1.0151-.5605,1.7852-1.1904,1.7852-.77,0-.9448-.8752-1.0498-1.4702-.2451-1.1201-.3501-1.4351-1.2954-3.3254-.0698-.1399-.3853-.6299-.3853-.77,0-.105.1753-.21.3501-.175,1.6455.2451,3.5708,1.9954,3.5708,3.9556Z"/>
      <path class="d" d="M154.5977,138.0217c0-.3501.4897-.3501.77-.3501,2.4502,0,3.2554,1.8203,3.2554,1.9604,0,.4199-.3501.875-1.0503,1.75-.1748.2451-.2798.385-.2798.5601,0,.28.4199.28.5596.28.3501,0,2.9404-.385,5.3208-1.4001.4199-.175,1.2603-.5601,1.645-.5601.3154,0,.4902.105,1.9253.9451.21.1052,1.1201.5952,1.2954.7002.3848.2449.665.595.665.875,0,.49-.2451.6301-1.4004,1.3303-.3848.2449-.5249.4548-1.75,2.3452-1.7852,2.8003-5.5659,8.5408-12.5312,13.1614-3.8506,2.5203-6.7559,3.3604-6.9658,3.3604-.1753,0-.3149-.1401-.3149-.3152,0-.1399.105-.21,1.1899-.8049,10.6763-5.8806,17.3267-17.8169,17.3267-18.9021,0-.3149-.2798-.385-.3848-.385-.0703,0-4.9009,1.0852-5.7407,1.0852-.21,0-1.1553-.105-1.3652-.105-.665,0-.7349.0698-2.2051,1.75-2.1353,2.3804-3.0103,3.2905-4.7607,4.5505-1.4351,1.05-2.9399,1.8552-3.3604,1.8552-.1748,0-.2446-.105-.2446-.21,0-.2451,2.3452-2.2053,2.7651-2.6255,2.8354-2.8352,6.1606-7.6658,5.8804-9.7659-.0347-.175-.2446-.9451-.2446-1.0852Z"/>
      <path class="d" d="M8.9429,209.2937c0-.665.3149-1.0151,1.3301-1.6453,1.3652-.8401,3.1504-2.4502,3.4302-2.6951.1753-.175.5605-.5251.7002-.5251.1401,0,.1753.3149.1753.4199,0,1.6453-1.6455,5.8806-3.9556,5.8806-.2803,0-.4902-.0698-.665-.1399-.4551-.1401-1.0151-.595-1.0151-1.2952ZM22.6641,211.604c0,.5249,0,2.8352-1.855,2.8352-.77,0-.8398-.21-1.5752-2.2402-.4199-1.1201-.5952-1.4001-1.2949-2.4854-.1401-.2449-.21-.3149-.21-.4199s.0698-.1401.1396-.1401c.2451,0,1.4004.4551,1.6455.4551.4551,0,.6299-.385.6997-.9451.1753-1.645.1753-5.1455.1753-7.0356,0-1.6802-.0703-2.3103-1.0151-2.3103-.21,0-4.4106.5952-6.4756,1.1201-.21.0701-1.1904.385-1.4004.385-.77,0-2.52-2.3801-2.52-3.0803,0-.175.0347-.3149.2446-.3149.1401,0,.2104.0349.6655.21.8047.3501,2.5898.3501,3.1152.3501.8052,0,4.5854-.21,5.6353-.2451,1.3306-.0698,1.6802-.3149,1.6802-1.4702s-.21-3.4653-.7349-4.4805c-.0698-.1748-.665-.7349-.665-.9099,0-.105.3848-.3501,1.1899-.3501,2.4155,0,3.2905,1.5403,3.2905,1.8201,0,.2102-.5601.9802-.6299,1.1553-.3154.6301-.3154,2.3452-.3154,2.6953,0,1.085.4551,1.26,1.3652,1.26,1.1201,0,2.8003-.28,3.3955-.3499.4551-.0701,2.3101-.5251,2.6953-.5251,1.0498,0,2.2402.5251,3.3955,1.1902.3848.2449.875.5249.875,1.1201,0,.665-.77.7-.9102.7-.5254,0-2.8003-.385-3.2905-.4551-1.3301-.1399-3.8853-.175-4.1655-.175-3.0103,0-3.3252,0-3.3252,1.9954,0,1.6802.1748,9.136.1748,10.6411ZM31.1001,209.0837c-.5952-1.4702-1.6802-3.2905-2.8354-4.3054-.5249-.4902-1.3999-1.2952-1.3999-1.4702s.1748-.175.2451-.175c1.855,0,7.4907,3.3953,7.4907,6.3357,0,.8049-.4199,1.9602-1.5752,1.925-.98,0-1.2949-.8049-1.9253-2.3101Z"/>
      <path class="d" d="M64.771,200.8928c.21,0,.5947-.0349.77-.0349,2.1353,0,2.4502,1.2952,2.4502,1.54,0,.9802-1.4351,1.0852-2.9053,1.0852-.8052,0-4.3057-.0701-5.0054-.0701-4.8306,0-12.8467.4551-13.6865.6301-.4204.0698-2.3105.6299-2.7305.6299-1.5049,0-3.1152-2.1702-3.1152-3.3604,0-.21.105-.4199.2798-.4199.1753,0,1.0151.385,1.1904.4199.5947.175,2.0303.3152,4.2705.3152,1.1548,0,13.3711-.4551,18.4819-.7351Z"/>
      <path class="d" d="M79.7842,207.4385c1.085,0,3.4302-.21,8.0508-1.0151,5.1455-.875,5.1455-1.05,5.1455-1.47,0-.4202-.3149-1.0852-1.0151-2.0654-.2803-.4551-.8052-1.2251-.8052-1.3301s.105-.21.2451-.21c1.0151,0,6.3008,4.3054,6.3008,7.7358,0,2.3452-1.6802,2.4502-1.9253,2.4502-1.1899,0-1.3301-.875-1.7852-3.1853-.3149-1.6802-.4551-1.9954-.98-1.9954-.1753,0-8.0859,2.4153-9.5913,2.8354-.9448.2451-5.5303,1.2952-5.8457,1.4351-.2446.105-1.085,1.1201-1.3301,1.1201-.3149,0-.3149-.0349-1.855-1.54-.4199-.4202-.9102-2.4502-.9102-2.8003,0-.105,0-.2451.1401-.2451.1748,0,.875.28,1.0151.3149.2798.0701.8398.175,1.2598.175,1.4702,0,2.1704-.4548,4.0605-3.8853,1.54-2.8354,4.6904-9.2061,4.6904-11.8662,0-.175-.0698-1.0151-.0698-1.1553,0-.175.0352-.385.2451-.385.2446,0,3.4653,2.3452,3.4653,3.5703,0,.5952-.3853.9453-1.0854,1.6104-.5601.5249-4.5854,6.8257-5.4604,8.0857-.3848.5251-2.3804,3.1155-2.415,3.2554-.0352.3501.1396.5601.4551.5601Z"/>
      <path class="d" d="M116.4302,195.7822c-.2451,0-7.6309,1.7502-7.7705,1.7852-.2451.0701-1.3306.6653-1.5752.6653-.5254,0-2.1704-1.0503-2.3452-1.2603-.2803-.2451-.8755-1.7852-.8755-2.0303,0-.1399.0352-.28.2104-.28.0347,0,.8047.2102.9097.2451,1.0854.3149,1.5054.3501,1.8901.3501,1.1553,0,7.7358-.5601,9.5562-1.2952.3501-.1401,1.6104-1.0852,1.9253-1.0852.8398,0,2.9751,1.7852,2.9751,2.6604,0,.3149-1.2949,1.26-1.5049,1.5051-.7002.875-3.4302,4.9355-4.0254,5.7405-.105.175-.2803.4202-.2803.7002,0,.3149.0703.385,1.5405,1.1899,1.5752.9102,7.8755,4.4456,7.8755,7.6309,0,.8052-.6299,1.5403-1.4702,1.5403-.8047,0-.9448-.2451-2.1699-2.4153-2.4155-4.2354-5.4956-6.8958-6.231-6.8958-.3848,0-.4897.105-1.2598.9802-1.2251,1.2949-4.7959,5.2153-9.3462,7.4556-.9453.4902-1.8901.8401-2.1704.8401-.0698,0-.2446,0-.2446-.21,0-.1399,1.3999-1.155,1.6099-1.2952,9.1709-6.6157,13.3013-15.6816,13.1963-16.2417-.0698-.28-.3496-.28-.4199-.28ZM127.1064,194.4521c0,.49-.4199,1.3301-1.0503,1.3301-.5249,0-.8398-.3149-1.7852-1.6802-.5952-.875-.98-1.1902-2.2749-2.2751-.1401-.105-.4902-.4202-.4902-.5601,0-.175.3501-.2451.6299-.2451,2.4854,0,4.9707,1.8552,4.9707,3.4304ZM130.1167,191.3369c0,.385-.2798,1.05-.9102,1.05-.7349,0-1.1553-.5251-1.7852-1.3301-.5952-.665-1.96-1.5403-3.0801-1.9602-.3501-.1401-.4551-.28-.4551-.385,0-.2102.6299-.4202,1.3301-.4202,3.0103,0,4.9004,1.5752,4.9004,3.0454Z"/>
      <path class="d" d="M147.1953,192.4219c0,.105.0703.2451.0703.385.1401,1.1201.3501,2.2402.3501,3.7805,0,2.3452-.5254,5.6006-3.6055,10.2561-2.8003,4.2705-4.5854,5.1104-5.9858,5.1104-2.3101,0-4.3755-3.6052-4.3755-7.8757,0-1.8552.3853-5.3906,3.8857-8.926,4.4453-4.5503,9.1357-4.5503,11.166-4.5503,3.1855,0,4.6553.6299,5.6357,1.1201,3.7803,1.8552,6.0903,5.6006,6.0903,10.186,0,4.5505-2.625,10.1511-8.8208,12.3213-2.9751,1.05-5.2856,1.2952-5.8105,1.2952-.1401,0-.3501-.0352-.3501-.2451,0-.105.0698-.1399.9453-.49,3.6401-1.4351,11.2358-4.4456,11.2358-13.1614,0-1.3652-.1396-9.696-9.6958-9.696-.7002,0-.7354.28-.7354.49ZM135.8193,203.168c0,2.2754.9102,5.3906,3.0454,5.3906,1.0151,0,1.855-.4199,4.2705-4.0603,1.855-2.8354,3.4302-6.7207,3.4302-10.186,0-2.1003-.1401-2.2754-.5952-2.2754-3.3252,0-10.1509,4.5156-10.1509,11.1311Z"/>
      <path class="d" d="M36.5654,254.9272h12.3833v3.7439h-12.3833v9.9512h-4.2554v-9.9512h-12.5112v-3.7439h12.5112v-10.7832h-11.1992v-3.6477h26.5259v3.6477h-11.0713v10.7832ZM26.7104,245.2959c1.4077,2.144,2.8154,5.2478,3.5518,7.3276-.6084.2239-3.2002,1.3757-3.7119,1.6318-.5122-1.5039-1.8237-4.9277-3.52-7.4875l3.6802-1.4719ZM45.6851,246.2559c.2236.0959.6396.2241.6396.5759,0,.3521-.416.384-.9277.416-1.1841,3.2639-2.0161,5.0876-3.168,7.2634-.6079-.2878-3.1675-1.3118-3.8076-1.5359,1.0562-1.8877,2.8159-5.7915,3.2959-8.1594l3.9678,1.4399Z"/>
      <path class="d" d="M81.1729,240.2725v7.3594h-21.9502c-.1924,9.2153-.2881,15.5828-3.0078,21.1184-.896-.48-1.8242-.8638-3.8398-1.2478,2.4956-4.6077,3.0718-8.7354,3.0718-20.1267v-7.1033h25.7261ZM71.9253,259.439h7.2637v3.0078h-7.2637v2.1118h10.3032v3.0718h-23.1021v-3.0718h8.8633v-2.1118h-7.5513v-3.0078h7.5513v-2.0479c-1.0557.064-5.6636.2881-6.6235.3521-.1602.2239-.3521.512-.6396.512-.2563,0-.4482-.3201-.48-.6079l-.4482-3.0078c.3838,0,3.168-.032,3.7437-.064.9282-1.4399,1.312-2.1121,1.6318-2.688h-5.3433v-2.8157h22.27v2.8157h-5.0234c2.4639,2.208,3.2959,2.9438,4.7036,4.7678-.96.4797-2.3677,1.9197-2.8477,2.5918-.3843-.6721-1.2798-1.6321-1.9839-2.4319-.6401.064-1.856.1599-4.3838.3198.0962.0642.2241.1602.2241.3521,0,.3521-.2881.416-.8643.6079v1.344ZM59.2227,243.0881v1.792h18.0786v-1.792h-18.0786ZM73.2695,251.8875h-3.3921c.0322.384-.2876.448-1.0557.5759-.416.6721-1.0562,1.696-1.2798,2.0479,1.8237-.0959,4.7354-.1919,6.8794-.3518-.5762-.48-.7041-.6079-2.0801-1.6318l.9282-.6401Z"/>
      <path class="d" d="M91.7026,266.7024v1.9199h-3.9038v-14.655h12.6069v14.0471h-3.8394v-1.312h-4.8638ZM96.5664,263.4387v-5.9197h-4.8638v5.9197h4.8638ZM110.0054,240.0483v11.7432h-16.7026v-11.7432h16.7026ZM97.3022,243.4402v5.0557h8.7031v-5.0557h-8.7031ZM106.6455,266.7024v1.9199h-3.9038v-14.655h12.7671v14.655h-3.8398v-1.9199h-5.0234ZM111.6689,263.4387v-5.9197h-5.0234v5.9197h5.0234Z"/>
      <path class="d" d="M132.1499,250.3835h-3.4561v-3.5198h-2.2397c-.7041,3.0398-1.9517,4.6077-2.9116,5.5996-1.1201-1.0559-2.5601-1.5039-3.3281-1.6958,3.0078-2.6558,2.9121-6.8474,2.8159-10.8152l2.3999.416c1.9517-.032,5.0557-.448,7.0396-1.312l1.5996,2.6238c.0322.064.1284.2881.1284.384,0,.1599-.1284.2881-.2881.2881-.1602,0-.2241-.032-.7998-.3201-2.7842.6079-4.0957.8-6.3037.9919-.0322.48-.0322.6079-.064,1.1519h8.2554v2.6877h-2.8477v3.5198ZM145.6528,251.0237v12.543h-2.8159c1.0879.5759,3.04,1.5679,6.3994,2.1758-.832.896-1.7598,2.304-2.2397,3.1357-2.8799-.7358-6.6235-2.3997-9.4072-4.1597l1.2798-1.1519h-7.9673l1.312,1.0559c.3198.2561.416.3201.416.512,0,.2881-.3521.2881-.48.2881-.2241,0-.3521,0-.6079-.032-2.272,1.1199-5.1519,2.5598-8.3198,3.4556-.6396-1.5039-1.7275-2.5598-2.1758-3.0076,2.0801-.448,4.8315-1.408,6.3677-2.272h-2.5918v-12.543h11.231c-.4155-.416-1.5996-1.344-2.7837-1.696,2.752-2.2397,3.04-3.9998,2.8799-9.3433l1.5039.1919c2.3677.0642,6.0156-.512,8.2554-1.2798l1.9199,2.5598c.0962.0959.1602.2878.1602.416,0,.1599-.1284.2559-.3521.2559-.0962,0-.7358-.1599-.7681-.1919-2.8477.6079-6.6235.896-7.2637.928,0,.5439,0,.7678-.064,1.3118h10.0474v2.6877h-4.4795v3.5198h-3.6797v-3.5198h-2.3359c-.1602.416-.9282,2.3999-2.4961,4.1599h9.0557ZM128.7578,254.6074h13.0552v-1.1521h-13.0552v1.1521ZM141.813,256.5591h-13.0552v1.1521h13.0552v-1.1521ZM141.813,259.6628h-13.0552v1.1841h13.0552v-1.1841Z"/>
    </g>
    <g>
      <path class="b" d="M51.8433,77.8684c.8101,0,.9902,0,1.2451.675.1201.3298.7651,2.0249.7651,2.1748,0,.165-.1504.2251-.2402.2251-.1201,0-.165-.0601-.5098-.6301-.7954-1.3049-1.6802-1.95-2.7002-1.95-.585,0-.9448.2402-1.0347.75-.0454.27-.0454,3.6599-.0454,4.29,0,.4199,0,3.8848.0454,4.1396.1348.7651.8398.78,1.2446.78.5552,0,.6753,0,.6753.24s-.21.24-.4502.24h-4.1997c-.21,0-.4351,0-.4351-.24s.2397-.24.3301-.24c.8848,0,1.4399,0,1.5898-.78.0449-.24.0449-.2549.0449-4.2449,0-3.7048,0-4.1096-.105-4.3948-.1499-.405-.5552-.54-.96-.54-1.1997,0-2.085.9451-2.6997,1.9351-.3604.585-.3901.645-.5249.645-.1055,0-.2402-.0901-.2402-.2251,0-.1199.6748-1.9199.7949-2.22.2402-.6299.48-.6299,1.23-.6299h6.1797Z"/>
      <path class="b" d="M63.1382,89.0879c-2.895,0-4.9048-2.3699-4.9048-5.7446s1.9951-5.7598,4.9048-5.7598c2.8799,0,4.8896,2.3699,4.8896,5.7598,0,3.3599-1.9946,5.7446-4.8896,5.7446ZM66.603,83.2083c0-1.3799-.3901-5.1299-3.4648-5.1299-3.3599,0-3.48,4.4099-3.48,5.3999,0,1.4399.4351,5.1147,3.48,5.1147,3.3447,0,3.4648-4.3647,3.4648-5.3848Z"/>
      <path class="b" d="M76.4731,77.8684c.5698,0,4.2749,0,4.2749,2.835,0,1.5598-1.2002,2.9248-3.8848,2.9248h-1.4404c-.4048,0-.4048.1201-.4048,1.26,0,2.7449,0,2.7598.165,3.0149.2397.345.6147.4199,1.0049.4199.3301,0,.5103,0,.5103.24s-.21.24-.4204.24h-3.7046c-.2251,0-.4351,0-.4351-.24s.2251-.24.375-.24c.5103,0,1.1548,0,1.3052-.78.0449-.24.0449-.2549.0449-4.2449,0-.7048,0-3.9148-.0449-4.1697-.1353-.72-.7803-.7651-1.1401-.7651-.375,0-.54,0-.54-.2397,0-.2551.21-.2551.4351-.2551h3.8999ZM76.563,83.1333c1.98,0,2.7598-1.095,2.7598-2.3701,0-1.6499-1.2148-2.3999-2.5796-2.3999h-.645c-1.0801,0-1.0801.6602-1.0801,1.9651,0,.21,0,2.3398.0151,2.4749.0298.2251.1948.3301.3896.3301h1.1401Z"/>
      <path class="b" d="M84.8428,88.803c-.1948,0-.4199,0-.4199-.24s.1201-.24.7051-.24c.4351,0,1.1548,0,1.3047-.78.0454-.2549.0454-3.7048.0454-4.1396,0-.615,0-4.0049-.0454-4.2749-.1499-.7651-.6899-.7651-1.6797-.7651-.0898,0-.3301,0-.3301-.2397,0-.2551.2251-.2551.4351-.2551h4.4097c.1802,0,.4053,0,.4053.2551,0,.2249-.1353.2249-.6899.2249-.4502,0-1.0952.0149-1.29.6899-.0601.21-.0601,3.585-.0601,4.2749,0,3.9749,0,3.9897.0449,4.2297.1353.78.6748.78,1.6802.78.0747,0,.3149,0,.3149.24s-.2251.24-.4053.24h-4.4248Z"/>
      <path class="b" d="M101.373,77.7634c0,.0149.9746,2.3699.9746,2.5349s-.1499.27-.2847.27c-.1353,0-.165-.0449-.48-.48-1.2749-1.8-2.6099-2.01-3.2402-2.01-2.3545,0-3.5698,2.8799-3.5698,5.4749,0,3.4797,2.04,4.8447,3.8252,4.8447,1.0498,0,2.25-.45,3.2397-2.1299.3447-.585.3447-.5999.4648-.5999s.2251.105.2251.24c0,.1348-.375.9148-.855,1.5149-1.2598,1.5598-2.8496,1.6648-3.5249,1.6648-3.1646,0-4.71-2.5649-4.71-5.5046,0-3.51,2.1753-5.9998,4.71-5.9998.375,0,.8101.0601,1.2749.1799.105.0449.8101.24.8999.24.1201,0,.3003-.0449.4053-.1499.2397-.24.27-.27.3896-.27.0903,0,.2104.0898.2554.1799Z"/>
      <path class="b" d="M116.542,92.603c-.5498,0-.5747-.325-.5747-.3999,0-.3999.375-.3999,1.2749-.3999,1.3496,0,1.9995-.075,2.2993-.7749.1748-.4248.1748-4.8237.1748-5.6985,0-1.1997-.0498-7.0232-.0498-8.3479,0-1.1748-.3501-1.1748-2.4497-1.1748-.5996,0-.8496,0-.8496-.325s.25-.3499,1.0249-.3999c.5996-.0249,1.8496-.2749,2.8242-.6248.1748-.05,1.0249-.5498,1.2246-.5498.2749,0,.2749.075.2749,1.1997,0,.6748-.0498,3.8989-.0498,4.6487,0,1.1497.0249,10.7473.1001,11.0225.1748.7249.5249,1.0247,2.374,1.0247.2251,0,.6001,0,.6001.45,0,.3499-.3999.3499-.625.3499h-7.5732Z"/>
    </g>
    <line class="c" x1="35.2276" y1="108.9246" x2="134.4182" y2="108.9246"/>
  </g>
  <g>
    <g>
      <path class="d" d="M231.1182,151.9883c1.0503-1.0151,1.5054-1.4353,1.5054-1.8901,0-.1052-.2803-.9451-.3154-1.0852-.4551-1.4001-.5947-2.2751-.5947-4.0955,0-.8049.1748-4.8655.1748-5.7756,0-1.75-.5249-2.2751-1.0498-2.8352-.7354-.77-.8403-.8752-.8403-.9802,0-.1399.8052-.1748.9102-.1748,2.1001,0,3.8154,1.645,3.8154,2.6252,0,.3149-.4199,1.8901-.4902,2.2402-.2798,1.6101-.3149,3.3252-.3149,3.8152,0,1.8904,0,3.2905.21,4.1655.0352.105.2451.77.7002.77.4902,0,.7002-.1399,2.5552-1.2949.3853-.2451,2.5903-1.6453,3.6406-1.6453.77,0,1.2949.665,1.2949,1.2952,0,1.0151-1.3652,1.5752-2.6953,2.1001-8.4707,3.3604-9.6611,5.9507-9.6611,8.1909,0,2.4854,2.3105,3.2202,5.0059,3.2202,1.75,0,3.1499-.3149,4.2354-.6299,1.5752-.4202,1.96-.4902,2.625-.4902,1.1904,0,2.3105.8052,2.3105,1.6802,0,1.7854-7.1411,1.9604-8.9609,1.9604-1.6455,0-6.7207,0-6.7207-5.4956,0-.9802.2451-3.3955,2.6602-5.6707ZM245.3296,142.4673c0,.4551-.3848,1.3301-1.0498,1.3301-.5254,0-.7705-.28-1.7856-1.6453-.5947-.77-.98-1.1201-2.3452-2.2051-.1396-.105-.4897-.385-.4897-.5251,0-.175.3149-.28.5947-.28,3.0107,0,5.0757,2.0303,5.0757,3.3254ZM249.0049,138.9668c0,.4202-.2798,1.0503-.9102,1.0503-.7349,0-1.1899-.5952-1.7852-1.3652-.5601-.7351-1.8901-1.6101-2.9751-2.0652-.3501-.1401-.4551-.3149-.4551-.4202,0-.1399.3501-.385,1.3301-.385,2.2051,0,4.7954,1.3301,4.7954,3.1853Z"/>
      <path class="d" d="M266.1538,139.4219c0,.105.0703.2451.0703.385.1401,1.1201.3501,2.2402.3501,3.7805,0,2.3452-.5254,5.6006-3.6055,10.2561-2.8003,4.2705-4.5854,5.1104-5.9858,5.1104-2.3101,0-4.3755-3.6052-4.3755-7.8757,0-1.8552.3853-5.3906,3.8857-8.926,4.4453-4.5503,9.1357-4.5503,11.166-4.5503,3.1855,0,4.6553.6299,5.6357,1.1201,3.7803,1.8552,6.0903,5.6006,6.0903,10.186,0,4.5505-2.625,10.1511-8.8208,12.3213-2.9751,1.05-5.2856,1.2952-5.8105,1.2952-.1401,0-.3501-.0352-.3501-.2451,0-.105.0698-.1399.9453-.49,3.6401-1.4351,11.2358-4.4456,11.2358-13.1614,0-1.3652-.1396-9.696-9.6958-9.696-.7002,0-.7354.28-.7354.49ZM254.7778,150.168c0,2.2754.9102,5.3906,3.0454,5.3906,1.0151,0,1.855-.4199,4.2705-4.0603,1.855-2.8354,3.4302-6.7207,3.4302-10.186,0-2.1003-.1401-2.2754-.5952-2.2754-3.3252,0-10.1509,4.5156-10.1509,11.1311Z"/>
      <path class="d" d="M295.6938,158.0789c.4551,0,1.8555-.1399,3.3252-.3149.5254-.0701,2.8003-.4202,3.2554-.4202,1.1904,0,2.2754.8752,2.2754,1.6453,0,1.8901-5.9507,2.0652-7.9106,2.0652-4.6904,0-10.8516-1.0151-10.8516-6.2307,0-1.1201.3853-1.6101.4902-1.6101.1401,0,.1401.0701.3853.875.8052,2.7654,4.2002,3.9204,6.8955,3.9204.21,0,1.7852.0701,2.1353.0701ZM290.3032,138.9319c2.6602,0,5.1807-.5251,5.6357-.6301,1.2603-.28,1.54-.28,1.75-.28,1.6455,0,3.2554,1.6453,3.2554,2.3804,0,.5249-.2451.6299-2.5903,1.155-1.75.4202-2.9399,1.3652-4.1304,2.3103-.2798.2451-.3149.28-.4551.28-.0698,0-.105-.0701-.105-.105,0-.28,1.54-2.1353,1.54-2.5554,0-.2449-.105-.2449-1.1899-.28-4.0952-.0698-6.6157-1.8901-6.6157-2.3801,0-.105.1753-.1401.2451-.1401.105,0,.21.0352,1.1201.175.5952.0701,1.1899.0701,1.54.0701ZM305.145,143.3423c1.0151.665,1.5049,1.4702,1.5049,1.9954,0,.665-.4199,1.365-.98,1.365-.4551,0-.7002-.1399-1.8901-1.4351-.7002-.77-.98-.9451-2.5552-1.9253-.1753-.1399-.5601-.385-.5601-.5249,0-.1052.2798-.3152.5947-.3152,1.4702,0,2.5903,0,3.8857.8401ZM310.3252,142.5022c0,.385-.2798,1.0503-.9097,1.0503-.7354,0-1.1553-.5251-1.8203-1.2952-.4551-.5601-1.8901-1.5403-3.0454-1.9602-.3853-.1401-.4551-.28-.4551-.3853,0-.2449.7002-.4199,1.2954-.4199,3.1152,0,4.9351,1.6101,4.9351,3.0103Z"/>
      <path class="d" d="M318.6533,139.002c-.4551,0-.7354.0701-.9102.8049-.21.8752-.8403,3.6404-2.5903,3.6404-.7354,0-1.5054-.49-1.5054-1.4351,0-.77.4551-1.1201,1.4004-1.8552,1.1899-.9102,1.855-2.1702,2.3804-3.5354.0347-.1399.105-.28.1748-.385.105.175.0698.5952.105,1.1201.0352.7002.4902.7002,1.0151.7002h8.2959c.8398,0,.98-.2451.98-1.1201,0-1.5054-.0698-1.8203-.1401-2.0654-.0347-.1399-.3149-.8049-.3149-.9451,0-.28.2451-.3499.4551-.3499.0703,0,3.4307.385,3.4307,1.0151,0,.1748-.6304.7349-.7354.875-.1401.2451-.2451.77-.2451,1.3652,0,1.05.2104,1.2251,1.0151,1.2251h6.896c.875,0,1.4351-.0352,2.0649-.8401.5601-.7351.665-.7351.8052-.7351.2803,0,.4902.1399,2.2051,1.54.4902.4202.7354.6301.7354,1.1553,0,.98-.7354,1.05-1.8555,1.155-.98.105-2.0298.6301-2.9751,1.2952-.2451.175-.7002.5249-.8398.5249-.1055,0-.2104-.1399-.2104-.21,0-.175.2451-.4551.4551-.8049.5952-.9451.665-1.5051.665-1.6453,0-.49-.4897-.49-.8047-.49h-19.9521ZM331.1494,144.1475c-.2798,0-.6299,0-.6299.4199,0,1.2253,3.2202,7.491,4.2002,7.491,1.0854,0,3.8154-4.4456,3.9556-4.9006.0698-.175.1748-1.155.3501-1.155.0347,0,3.1504,2.0303,3.1504,2.5203,0,.3149-.4902.385-.9453.4551-.6299.105-.8052.21-2.1353,1.26-.5249.385-2.9053,1.8901-3.3604,2.2402-.1748.105-.3501.28-.3501.5251,0,.28,3.0103,3.8853,8.436,6.0557.3853.1399.9102.3499,1.1201.5249-.4551.1401-1.2949.49-1.5054.665-.3496.28-.9448.9451-1.1899,1.3303-.105.1748-.1748.2449-.3149.2449-.1753,0-3.5005-1.9602-6.3008-5.1804-4.0605-4.6904-5.1455-9.0659-5.7407-11.5513-.0698-.3149-.1748-.7351-.4897-.7351-.2451,0-.3501.105-1.5752,1.2251-.2803.2451-1.7153,1.2251-1.7153,1.5403,0,.21.105.28.8403.8049,5.0752,3.6755,5.0752,9.696,5.0752,10.5012,0,4.0254-1.8901,6.4407-4.5503,6.4407-.5249,0-.5601-.105-.8052-.9102-.2451-.8049-1.3999-1.26-3.0801-1.8901-.5952-.2451-.665-.2451-.665-.3501s.1748-.105.21-.105c.2798,0,1.6099.175,1.8901.21.665.0701,1.7852.105,2.2402.105.7002,0,1.1899-.0349,1.7852-1.1899.2798-.5601.5249-1.5403.5249-2.8704s-.21-2.3103-.665-2.3103c-.105,0-1.0151.8401-1.1553.9451-5.4604,4.8655-11.8311,5.9158-11.8662,5.9158-.0698,0-.1396,0-.1396-.0701,0-.0352.875-.5251,1.0151-.5952,4.27-2.4502,7.3506-4.2002,11.0259-8.4358.2803-.3501.665-.77.665-1.26,0-.2451-.3149-1.0151-.77-1.0151-.1401,0-.2451.0698-1.1201.8049-4.3755,3.7454-10.0811,5.5308-10.7109,5.5308-.0703,0-.1401-.0352-.1401-.0701,0-.0701,2.3452-1.4001,2.7651-1.6802,3.4653-2.2053,7.6309-5.7407,7.6309-6.8257,0-.3501-.4551-1.0503-.9448-1.0503-.1753,0-1.3306.7703-1.5054.9102-3.4653,2.2754-8.3657,3.3604-8.436,3.3604-.0698,0-.1396-.0349-.1396-.105,0-.105.7349-.4551,1.2251-.7,5.7056-2.6953,8.9956-6.3008,8.9956-6.7559,0-.3149-.105-.3149-1.1201-.3149-2.415,0-3.6401.0349-3.9902.0701-.105.0349-.6299.105-.7349.105-.1401,0-.2104-.1401-.3154-.2451l-.665-.8052c-.0698-.0698-.1396-.1748-.1396-.21,0-.0698.0347-.105.105-.105.2446,0,1.3301.105,1.5747.1401,1.4004.0349,2.9756.105,4.3408.105h8.2607c1.4004,0,1.54,0,1.8203-.2451.2798-.28,1.3301-1.7151,1.645-1.7151.2451,0,2.8354,1.925,2.8354,2.4153s-.3501.49-1.2603.49h-6.5107Z"/>
      <path class="d" d="M358.6235,146.9128c.4199,0,.7349,0,1.0503-.3853.1748-.1748.8047-1.155,1.0498-1.155.21,0,2.2402,1.5051,2.2402,1.9602,0,.175-.4551.5601-.77.8401-.1401.1399-.2798.2451-.2798,1.3301-.0352,1.4702-.5952,9.801-1.9956,12.5315-1.2598,2.4502-2.8701,2.6951-3.2554,2.6951-.21,0-.4546-.9451-.5249-1.1201-.3501-.595-.77-.9099-1.4702-1.2952-.0698-.0349-.3848-.21-.3848-.2449,0-.0701.0698-.105.1396-.105.0352,0,1.3306.1399,1.4004.1399,1.6802,0,2.3101-.9451,2.8701-2.6953.5952-1.7852,1.1904-9.0659,1.1904-10.676,0-.8401-.5254-.9102-1.1201-.9102h-.9102c-.9102,0-.98.3501-1.1201,1.5752-.21,1.5051-1.2954,9.311-5.4604,13.5464-.1055.105-.8755.7703-1.0503.7703-.105,0-.1753-.0352-.1753-.1401,0-.0349,1.0503-1.54,1.1904-1.8552,1.2251-2.0652,3.7451-9.2058,3.7451-19.1819,0-.9453-.105-1.3652-.875-1.3652-.3501,0-2.2749.175-2.5552.175-.1401,0-.21-.105-.3149-.2451l-.665-.8049c-.105-.105-.1753-.175-.1753-.2451,0-.0349.105-.0701.1401-.0701.7002,0,3.7803.2451,4.4106.2451,1.0151,0,1.0151-.175,1.0151-4.4104,0-.8052,0-1.0852-.105-1.4001-.0703-.1052-.3853-.5601-.3853-.6653,0-.1748.105-.21.2451-.21s3.3252.5251,3.3252,1.1201c0,.21-.2798.5251-.5947.9802-.2104.2449-.3154.49-.3154,1.645,0,2.8354,0,2.9404,1.0503,2.9404.7002,0,.8398,0,1.1553-.3152.2446-.21,1.085-1.47,1.3647-1.47.3853,0,2.4854,1.5752,2.4854,2.1353,0,.595-.4551.595-.8052.595h-5.7754c-.1401,0-.2798,0-.2798.105,0,.1401.0698.175.5249.4202.0698.0349.3501.21.3501.4548,0,.2102-.7354.8752-.8052,1.0503-.1401.3501-.3149,2.5903-.3149,2.8352,0,.4202.0698.8752.98.8752h.5601ZM374.3403,153.6685c-.2451,0-.8755,0-.8755.5251,0,.98,2.6255,5.4954,7.4561,8.0508.2798.1399,1.855.875,1.855.9102,0,.105-.0698.105-.4199.105-.105,0-1.3999,0-3.2202,1.1899-.0703.0701-.3853.4202-.4902.4202-.1401,0-1.645-1.2603-3.0801-3.4304-1.7852-2.6953-2.3452-5.0405-2.7656-6.8958-.1748-.7-.1748-.77-.3149-.77-.1748,0-.2451.175-.2451.28-.3149,1.6453-1.5752,4.1304-2.6953,5.6355-2.9751,4.0605-7.4556,5.7407-7.5254,5.7407-.0703,0-.1401-.0349-.1401-.105,0-.105.105-.175.105-.2102,1.2251-.9451,2.8354-2.2051,4.6553-4.3403,2.5557-2.9753,3.2554-6.1956,3.2554-6.5457,0-.5251-.3501-.5601-.5947-.5601-1.0503,0-3.0806,0-4.2007.0701-.105,0-.9102.105-.98.105-.1401,0-.21-.0701-.3149-.2451l-.665-.8052c-.1401-.1399-.1753-.1748-.1753-.21,0-.0698.0703-.0698.1401-.0698.1748,0,1.0503.0698,1.2603.0698,1.3647.105,3.6401.175,4.9702.175.665,0,.9453-.1399,1.0151-.77.1401-.9451.1753-2.2402.1753-3.1853,0-1.0151-.2803-1.1201-1.0151-1.1201h-.77c-.7354,0-.9102.175-2.2754,1.7151-.3149.3501-1.8901,2.1003-2.2051,2.1003-.0703,0-.0703-.0352-.0703-.0701,0-.0701.7002-1.3652.8052-1.6453,1.1899-2.4153,2.7305-5.8455,2.7305-7.5608,0-.105-.0352-.595-.0352-.7,0-.175.1401-.21.3501-.21.7349.3149,2.0649.8398,2.5552,1.0149.0352.0352.2451.28.2451.4202,0,.175-.7002.7351-.8403.875-.4199.5251-1.2949,2.3452-1.2949,2.6252,0,.5251.3848.5251.77.5251h4.5156c1.2603,0,1.3301-.105,1.5049-.2451.1753-.2449,1.0151-1.645,1.3652-1.645.1753,0,2.5903,1.8552,2.5903,2.3101,0,.4902-.5952.4902-1.4702.4902h-3.9204c-.665,0-1.1201,0-1.1899.77-.0352.4551-.2451,3.3254-.2451,3.6055,0,.49.2798.7.9448.7h3.7104c.1753,0,.3154-.0701.5254-.3149.21-.28,1.1548-1.6101,1.3301-1.6101.21,0,2.73,1.7151,2.73,2.2751s-.3496.5601-2.4849.5601h-5.0405ZM375.7402,139.072c1.4351,0,1.645-.0701,1.8901-.3152.2451-.2449,1.2251-1.7852,1.5752-1.7852.4551,0,2.6953,2.0303,2.6953,2.5203s-.1748.49-1.7852.49h-11.3062c-.98,0-1.085.175-2.1704,1.6802-.7349,1.0151-2.0303,2.1702-2.1001,2.1702-.0352,0-.105,0-.105-.0698,0-.0701.1401-.3152.1748-.3501.7354-1.8203,3.0806-7.4907,3.0806-8.8208,0-.1401-.21-.5952-.21-.7002s.0352-.2451.1748-.2451c.0352,0,3.6406.8752,3.6406,1.6453,0,.2451-1.0503.9102-1.2251,1.05-.5952.6301-1.4351,1.9253-1.4351,2.3452,0,.3853.3848.3853.6299.3853h6.4756Z"/>
      <path class="d" d="M390.9287,154.7537c.5947,0,.9102-.5601,1.6802-2.7305.21-.595.3149-.875.4897-.875.1753,0,.1753.3501.1753.4199,0,.3853-.8052,4.4805-.8052,5.3206,0,.5952.4902,1.6453.5601,1.8203.2451.49.4199,1.0852.4199,1.54,0,.7002-.5601,1.1902-1.1548,1.1902-2.1704,0-3.7808-5.9507-3.7808-9.311,0-2.2402.2803-3.2554,1.4702-7.6306.5952-2.1353.5952-3.0105.5952-3.6404,0-1.1201-.21-2.0654-.3501-2.4854-.0352-.105-.21-.5251-.21-.6301s.1401-.175.2798-.175c1.6104,0,3.0806,3.1855,3.0806,4.4456,0,.385,0,.4202-.665,1.6101-.3853.7351-2.6953,5.8806-2.6953,9.031,0,1.05.3501,2.1003.9102,2.1003ZM411.2656,158.2539c0,1.3652-1.0498,1.7852-5.9507,1.7852-3.4302,0-4.7256-.875-5.4604-1.5752-.1748-.175-1.085-1.085-1.085-1.7502,0-.0698,0-.3499.1748-.3499.1401,0,.7002.4199.8403.49,1.0151.5251,2.4502.595,3.7451.595.9102,0,2.1704,0,3.0454-.105.4902-.0349,2.9404-.28,3.0806-.28,1.3301,0,1.6099.77,1.6099,1.1902ZM409.6206,141.207c0,1.7153-3.8853,1.7153-4.3057,1.7153-3.9551,0-6.1255-2.1353-6.1255-2.5903,0-.0701.0352-.175.2451-.175.105,0,.5249.1401.98.2451.8052.175,1.75.21,2.3804.21,1.7153,0,3.3604-.3501,3.8501-.5251,1.0503-.385,1.1553-.4199,1.5054-.385.6299.105,1.4702.7002,1.4702,1.5051Z"/>
      <path class="d" d="M426.8398,137.3918c0,.3149-1.645,3.2551-1.645,3.8503,0,.2449.1748.49.6299.8049.8403.5952,1.2603.9802,1.2603,1.5054,0,.5601-.3853.8398-2.5903,1.6101-.9448.3149-1.0151.5601-1.6802,2.7651-.21.7351-.7349,2.4153-.7349,3.0454,0,.5601.1396.5601,2.5903.77.8398.0701,2.4849.5952,2.4849,1.4702,0,.6301-.9448,1.0151-1.8198,1.0151-.5254,0-3.0454-.4551-3.2207-.4551-.875,0-.875,1.6453-.875,2.4153.0352,1.5752.4551,5.2156,4.8306,5.2156,1.4702,0,5.0405-.6301,5.0405-4.7605,0-1.5051-.3149-3.5005-3.4653-7.9109-.105-.1399-.1401-.2451-.1401-.3501,0-.3149.77.3501.875.4202,4.0259,3.2554,5.6006,6.0205,5.6006,8.4707,0,3.3254-3.3604,6.3008-7.4556,6.3008-.665,0-6.6855,0-6.6855-6.3357,0-.5601.2798-2.9402.2798-3.4304,0-.4199-.0698-.665-.665-1.1201-1.2603-.9451-1.8901-1.8901-1.8901-2.9751,0-1.0503.3853-2.2053,2.5903-3.9905,1.8203-1.4702,2.0303-1.6101,2.0303-2.1003,0-.4551-.1753-.595-.9453-1.1899-1.0151-.8052-2.3452-1.8552-2.3452-3.3254,0-.2451.0703-.6301.3149-.6301.1753,0,.77.7351.9102.8401.9453.77,1.9604,1.2251,2.3804,1.2251.98,0,1.2603-3.1152,1.2603-3.6052,0-.7002-.1753-1.8552-.3501-2.3452-.0703-.1401-.0703-.2451-.0703-.3501,1.0503-.105,3.5005,2.2051,3.5005,3.1504ZM421.0293,146.2126c-.8052,0-2.5552,1.1902-2.5552,2.5203,0,1.05,1.085,2.1003,1.7852,2.1003.1401,0,.3149-.1052.3848-.2803.3154-.595.8403-3.5703.8403-3.7454,0-.28,0-.595-.4551-.595Z"/>
      <path class="d" d="M246.3862,199.3994h-14.4951v-1.9197c-2.208,1.7598-3.9678,2.8157-5.5996,3.6797-.8638-1.4719-1.312-1.9519-2.8159-3.3918,8.6714-3.5837,12.2871-9.8552,13.375-11.7432l4.7036.3521c.1924,0,.6401.032.6401.384,0,.2239-.3198.4158-.6719.6079,2.0479,3.3596,8.3516,7.9673,13.375,9.8552-1.0239.928-2.0801,2.2078-2.5918,3.4878-1.5039-.7361-3.0718-1.5999-5.9194-3.6157v2.3037ZM233.2349,213.9265v1.5359h-3.9355v-13.5032h19.6147v13.5032h-3.9678v-1.5359h-11.7114ZM244.9463,210.4067v-4.9597h-11.7114v4.9597h11.7114ZM244.7861,195.9436c-2.688-2.0479-3.9355-3.3276-5.7915-5.6636-2.144,2.624-2.9116,3.5518-5.2798,5.6636h11.0713Z"/>
      <path class="d" d="M256.6597,197.1597c1.376-.1279,1.6963-.2561,6.1758-1.9839,2.272-.864,5.6636-2.1758,9.2476-2.1758,5.0234,0,8.5752,3.4558,8.5752,8.7034,0,9.1514-9.5991,13.311-15.2627,14.335-.6724-1.344-1.6641-2.6238-2.7842-3.7119,12.0635-2.0798,13.6953-7.8713,13.6953-10.3672,0-3.0398-1.9521-4.9917-4.6719-4.9917-3.2959,0-8.7354,2.304-12.9272,5.6958l-2.0479-5.5037ZM263.3477,185.6084c1.4717.48,4.7036,1.5679,9.7593,1.5679.96,0,1.5356-.064,2.2075-.1279-.2881,1.5039-.48,2.9758-.5757,4.5117-6.8799-.1279-10.3354-1.1199-11.9995-1.6318l.6084-4.3198Z"/>
      <path class="d" d="M301.1387,201.9272h12.3833v3.7439h-12.3833v9.9512h-4.2554v-9.9512h-12.5112v-3.7439h12.5112v-10.7832h-11.1992v-3.6477h26.5259v3.6477h-11.0713v10.7832ZM291.2837,192.2959c1.4077,2.144,2.8154,5.2478,3.5518,7.3276-.6084.2239-3.2002,1.3757-3.7119,1.6318-.5122-1.5039-1.8237-4.9277-3.5195-7.4875l3.6797-1.4719ZM310.2583,193.2559c.2236.0959.6396.2241.6396.5759,0,.3521-.416.384-.9277.416-1.1841,3.2639-2.0161,5.0876-3.168,7.2634-.6079-.2878-3.1675-1.3118-3.8076-1.5359,1.0562-1.8877,2.8159-5.7915,3.2959-8.1594l3.9678,1.4399Z"/>
      <path class="d" d="M344.146,187.2725v7.3594h-21.9502c-.1924,9.2153-.2881,15.5828-3.0078,21.1184-.896-.48-1.8242-.8638-3.8398-1.2478,2.4956-4.6077,3.0718-8.7354,3.0718-20.1267v-7.1033h25.7261ZM334.8984,206.439h7.2637v3.0078h-7.2637v2.1118h10.3032v3.0718h-23.1021v-3.0718h8.8633v-2.1118h-7.5513v-3.0078h7.5513v-2.0479c-1.0557.064-5.6636.2881-6.6235.3521-.1602.2239-.3521.512-.6396.512-.2563,0-.4482-.3201-.48-.6079l-.4482-3.0078c.3838,0,3.168-.032,3.7437-.064.9282-1.4399,1.312-2.1121,1.6318-2.688h-5.3433v-2.8157h22.27v2.8157h-5.0234c2.4639,2.208,3.2959,2.9438,4.7036,4.7678-.96.4797-2.3677,1.9197-2.8477,2.5918-.3843-.6721-1.2798-1.6321-1.9839-2.4319-.6401.064-1.856.1599-4.3838.3198.0962.0642.2241.1602.2241.3521,0,.3521-.2881.416-.8643.6079v1.344ZM322.1958,190.0881v1.792h18.0786v-1.792h-18.0786ZM336.2427,198.8875h-3.3921c.0322.384-.2876.448-1.0557.5759-.416.6721-1.0562,1.696-1.2798,2.0479,1.8237-.0959,4.7354-.1919,6.8794-.3518-.5762-.48-.7041-.6079-2.0801-1.6318l.9282-.6401Z"/>
      <path class="d" d="M369.9067,190.3442c.6396,0,1.5996-.0642,2.2075-.2241l3.1997,2.6558c-.5117.7041-.6396.9919-1.8555,3.7439-3.584,8.1914-6.6558,12.991-16.9268,18.3667-.832-1.1521-1.856-2.144-3.3281-3.3279,4.416-2.0159,12.2871-5.5996,16.2549-17.2148h-20.1265v-3.9995h20.5747ZM378.5459,188.1362c0,1.6318-1.3438,2.9438-2.9756,2.9438s-2.9761-1.312-2.9761-2.9438c0-1.6638,1.3442-2.9758,2.9761-2.9758s2.9756,1.344,2.9756,2.9758ZM374.0981,188.1362c0,.8.6401,1.4719,1.4722,1.4719.8315,0,1.4717-.6719,1.4717-1.4719,0-.8318-.6719-1.5039-1.4717-1.5039-.8003,0-1.4722.6721-1.4722,1.5039Z"/>
      <path class="d" d="M401.3628,195.3677c1.4399,0,2.144-.1279,2.7197-.2878l2.688,1.8877c-.5439,1.0239-2.8159,5.5676-3.3276,6.4636-3.8398,6.8154-7.9678,9.6953-14.3032,12.1912-.832-1.344-1.8877-2.4958-2.9756-3.5198,4.8955-1.5679,11.0708-4.2556,14.335-12.7671h-20.0947v-3.9678h20.9585ZM402.8667,187.8484v3.9036h-18.4946v-3.9036h18.4946Z"/>
      <path class="d" d="M412.6602,187.4324c4.7041,2.3677,6.8799,4.1597,8.3838,5.5037-.6724.7678-1.1519,1.4077-2.6558,3.7117-3.7759-3.2959-6.8799-4.7676-8.4155-5.4397l2.6875-3.7756ZM410.3887,209.9268c7.6792-1.6318,17.4707-6.7195,24.0303-17.3748,1.1519,1.8237,1.5356,2.4319,2.7837,3.7437-2.0801,3.1997-8.0952,12.2551-23.1982,17.6948-.064.3198-.0962.7039-.5439.7039-.2241,0-.416-.2559-.5762-.5439l-2.4956-4.2236Z"/>
      <path class="d" d="M284.4399,251.5476c0-.1401.1401-.28.3149-.28.105,0,1.9253.49,2.3105.49,1.0151,0,5.8105-1.0151,5.8804-1.05.5952-.4202.6304-3.9553.6304-4.1304,0-.9102-.0703-1.9602-.8755-2.9753-.5249-.6301-.5947-.7002-.5947-.8052,0-.2451.4199-.28.5601-.28,2.3452,0,3.7104,1.3301,3.7104,2.2402,0,.0349-1.3301,4.5154-1.3301,5.1807,0,.21.1396.3149.3848.3149.1753,0,1.7852-.175,2.0654-.175,2.625,0,4.6553,1.2603,4.6553,4.4805,0,2.7654-.98,8.7859-3.0103,11.2363-.98,1.155-2.3804,2.135-3.5703,2.135-1.2954,0-1.645-1.2251-2.0654-2.4153-.0698-.2449-.4551-1.05-.4551-1.155s.0703-.175.1753-.175c.1401,0,.77.21.875.2451.7349.175,1.4351.2451,1.7852.2451,1.0151,0,2.3101-.4902,3.3252-4.2705.3853-1.4001,1.0854-4.2356,1.0854-6.0908,0-2.4502-1.4004-2.6252-2.4155-2.6252-1.1201,0-3.1152.5251-3.3604.8401-.1396.175-.1748.3152-.5249,1.5054-1.4004,4.7603-4.7954,13.3713-7.6309,13.3713-.77,0-1.1201-.49-1.1201-1.1201,0-.7351.2451-1.0151,2.3452-3.3254.9453-1.05,2.4155-2.6602,4.3057-7.9109.1396-.3499.4897-1.4001.4897-1.645,0-.105-.0347-.28-.2446-.28-.7705,0-4.0259,1.4001-4.7256,1.4001-1.3652,0-2.9756-2.2053-2.9756-2.9753ZM308.7324,258.9683c-.3848,0-1.9951-.9099-2.3799-1.05-.2451-.0701-1.1201-.105-1.1201-.2451,0-.21,1.1548-.8049,1.3647-.98,1.2954-.98,1.4355-1.0852,1.4355-2.0303,0-.595-.2451-2.8701-2.8354-4.0254-.2803-.1399-.8403-.385-.8403-.5249,0-.2102.1401-.2102.2451-.2102,4.4805,0,6.0908,4.4104,6.126,6.1958,0,.4199-.5254,2.8701-1.9956,2.8701ZM310.3428,247.2422c0,.595-.4199,1.365-1.0151,1.365-.4902,0-.77-.21-1.855-1.5051-.7002-.8401-1.0503-1.085-2.4854-2.0652-.1753-.105-.5249-.385-.5249-.5249,0-.1052.2798-.3152.5947-.3152,4.4805,0,5.2856,2.6252,5.2856,3.0454ZM313.1431,244.3018c0,.4202-.2803,1.0151-.875,1.0151-.77,0-1.1553-.4551-1.8555-1.26-.5601-.5952-1.96-1.4353-3.1152-1.8552-.3501-.105-.4551-.2451-.4551-.3501,0-.28.8403-.49,1.2603-.49,4.3403,0,5.0405,2.2751,5.0405,2.9402Z"/>
      <path class="d" d="M324.7964,264.219c-1.7852,1.4001-3.5703,2.5552-5.251,2.5552-1.5747,0-1.7148-1.7852-1.7148-2.4153,0-3.7803,3.3604-7.8059,7.6309-10.7461,1.085-.77,1.4351-1.0852,1.4351-3.5703,0-.5601-.105-.7351-.77-.7351-.0703,0-1.3301.0701-1.5752.0701-3.1152,0-4.4805-2.2402-4.4805-2.5554,0-.21.1401-.3501.4199-.3501.21,0,1.2603.3152,1.4702.3501.875.105,1.7153.1401,2.3804.1401.6299,0,2.6602,0,2.8701-.5251.21-.49.3149-2.4502.3149-2.5903,0-.3499-.3501-2.135-.3501-2.2051,0-.175.1753-.2102.3154-.2102.0698,0,3.0801.6301,3.0801,1.4004,0,.0349-.5249,1.155-.5601,1.2251-.3501.7349-.4902,1.4001-.4902,1.7151,0,.28.0352.3501.4551.3501.7354,0,3.9556-1.1553,4.6206-1.1553.8403,0,1.4702.5601,1.4702,1.1553,0,1.1201-1.2603,1.4351-4.2354,2.1702-2.0654.49-2.5903.6301-2.8003.9102-.1753.2449-.3853,1.2251-.3853,1.7151,0,.8052.1753.8752.5952.8752.2798,0,.8052-.1052,1.0151-.175,1.6802-.4202,3.1851-.6653,4.3755-.6653,5.1104,0,7.9458,3.5354,7.9458,8.0159,0,7.5959-6.9658,9.5562-10.2212,10.4312-.21.0701-1.6104.4202-2.415.4202-.21,0-.3501-.0701-.3501-.2451,0-.1401.2798-.2451.7002-.385,7.0356-2.3804,9.626-6.0557,9.626-9.9761,0-4.4104-2.9404-6.7556-5.7759-6.7556-1.6802,0-1.75.21-2.3804,2.2751-.5947,1.8901-1.1548,2.7654-2.415,4.7605-.3501.5601-.3853.7351-.3853,1.2603,0,.2798.1055,1.54.1055,1.7852,0,.9451-.3501,1.75-1.1201,1.75-.5952,0-.8403-.4199-1.0854-.8049-.2451-.4202-.2798-.49-.3848-.49-.0703-.0352-1.0854.77-1.6802,1.2251ZM326.3716,260.0535c.1396-.3501.21-4.0254.21-4.4104,0-.2102,0-.8052-.2451-.8052-1.2954,0-6.2305,5.8806-6.2305,8.5059,0,.49.1748.8401.7349.7703,1.1899-.1401,5.0405-2.8003,5.5308-4.0605ZM330.3267,253.0527c-1.8203,0-1.8203,1.1902-1.8203,2.4153,0,.3149,0,1.6802.4204,1.6802.5249,0,1.9253-2.7654,1.9253-3.6753,0-.0352-.0352-.2803-.1055-.3501-.0698-.0701-.3149-.0701-.4199-.0701Z"/>
      <path class="d" d="M365.9575,260.6484c0-2.8701-2.4155-5.3206-5.916-5.3206-4.6201,0-7.5957,4.7957-8.2256,5.8806-.7002,1.1902-1.0503,1.8552-1.9951,1.8552-.8403,0-1.0151-.7-1.0151-.98,0-.8752.2798-1.6453,2.7651-4.5505,2.2754-2.6604,2.6255-3.1152,7.9111-10.5361,1.1548-1.6453,1.645-2.3801,1.645-2.7654,0-.2449-.2451-.49-.665-.49-1.2954,0-3.3604,1.7502-3.9556,2.2402-1.3999,1.1553-1.8901,1.2603-2.4854,1.2603-1.645,0-2.73-2.2402-2.73-2.4153,0-.105.105-.105.8398-.105,1.8555,0,4.4453-.8401,5.4258-1.2603,2.1699-.9451,2.415-1.05,3.1851-1.05,1.4004,0,3.6753.875,3.6753,2.4153,0,1.0151-.8047,1.5752-2.4849,2.7302-2.5205,1.7852-5.6006,6.5808-5.6006,7.1758,0,.105.105.2451.21.2451.21-.0701.665-.2451.875-.3152,1.1201-.4199,2.1001-.5601,3.0801-.5601,4.4805,0,7.876,3.3254,7.876,7.2808,0,4.4456-4.3052,7.5608-8.751,7.5608-3.4653,0-5.9507-1.8552-5.9507-3.6052,0-1.2603,1.4702-2.8354,3.4653-2.8354,1.6455,0,3.0107.9802,3.9907,2.2402.4897.6301.7002.9451,1.1899.9451,1.1904,0,3.6406-2.135,3.6406-5.0405ZM356.9614,263.7988c-.8398,0-1.4702.665-1.4702,1.2251,0,.9102,1.5054,1.6453,3.0103,1.6453.3501,0,.5952-.2451.5952-.6301,0-.8401-.8403-2.2402-2.1353-2.2402Z"/>
      <path class="d" d="M373.9019,267.5093c0-1.05.8398-1.8901,1.8901-1.8901,1.0151,0,1.8901.8049,1.8901,1.8901,0,1.05-.875,1.8901-1.8901,1.8901-1.0503,0-1.8901-.875-1.8901-1.8901ZM377.6118,244.4419c0,.8049-.5249,3.7102-.6299,4.6555-.3848,3.2202-.5601,7.8057-.5601,13.3364,0,.9099-.0352,1.4351-.6299,1.4351-.5952,0-.6304-.49-.6304-1.3652,0-5.6006-.1748-10.116-.5947-13.4414-.0703-.7-.5952-3.9902-.5952-4.6204,0-.9802.8052-1.8552,1.8203-1.8552.98,0,1.8198.875,1.8198,1.8552Z"/>
    </g>
    <g>
      <path class="b" d="M297.7124,77.8684c.8101,0,.9902,0,1.2451.675.1201.3298.7651,2.0249.7651,2.1748,0,.165-.1504.2251-.2402.2251-.1201,0-.165-.0601-.5098-.6301-.7954-1.3049-1.6802-1.95-2.7002-1.95-.585,0-.9448.2402-1.0347.75-.0454.27-.0454,3.6599-.0454,4.29,0,.4199,0,3.8848.0454,4.1396.1348.7651.8398.78,1.2446.78.5552,0,.6753,0,.6753.24s-.21.24-.4502.24h-4.1997c-.21,0-.4351,0-.4351-.24s.2397-.24.3301-.24c.8848,0,1.4399,0,1.5898-.78.0449-.24.0449-.2549.0449-4.2449,0-3.7048,0-4.1096-.105-4.3948-.1499-.405-.5552-.54-.96-.54-1.1997,0-2.085.9451-2.6997,1.9351-.3604.585-.3901.645-.5249.645-.1055,0-.2402-.0901-.2402-.2251,0-.1199.6748-1.9199.7949-2.22.2402-.6299.48-.6299,1.23-.6299h6.1797Z"/>
      <path class="b" d="M309.0073,89.0879c-2.895,0-4.9048-2.3699-4.9048-5.7446s1.9951-5.7598,4.9048-5.7598c2.8799,0,4.8896,2.3699,4.8896,5.7598,0,3.3599-1.9946,5.7446-4.8896,5.7446ZM312.4722,83.2083c0-1.3799-.3901-5.1299-3.4648-5.1299-3.3599,0-3.48,4.4099-3.48,5.3999,0,1.4399.4351,5.1147,3.48,5.1147,3.3447,0,3.4648-4.3647,3.4648-5.3848Z"/>
      <path class="b" d="M322.3423,77.8684c.5698,0,4.2749,0,4.2749,2.835,0,1.5598-1.2002,2.9248-3.8848,2.9248h-1.4404c-.4048,0-.4048.1201-.4048,1.26,0,2.7449,0,2.7598.165,3.0149.2397.345.6147.4199,1.0049.4199.3301,0,.5103,0,.5103.24s-.21.24-.4204.24h-3.7046c-.2251,0-.4351,0-.4351-.24s.2251-.24.375-.24c.5103,0,1.1548,0,1.3052-.78.0449-.24.0449-.2549.0449-4.2449,0-.7048,0-3.9148-.0449-4.1697-.1353-.72-.7803-.7651-1.1401-.7651-.375,0-.54,0-.54-.2397,0-.2551.21-.2551.4351-.2551h3.8999ZM322.4321,83.1333c1.98,0,2.7598-1.095,2.7598-2.3701,0-1.6499-1.2148-2.3999-2.5796-2.3999h-.645c-1.0801,0-1.0801.6602-1.0801,1.9651,0,.21,0,2.3398.0151,2.4749.0298.2251.1948.3301.3896.3301h1.1401Z"/>
      <path class="b" d="M330.7119,88.803c-.1948,0-.4199,0-.4199-.24s.1201-.24.7051-.24c.4351,0,1.1548,0,1.3047-.78.0454-.2549.0454-3.7048.0454-4.1396,0-.615,0-4.0049-.0454-4.2749-.1499-.7651-.6899-.7651-1.6797-.7651-.0898,0-.3301,0-.3301-.2397,0-.2551.2251-.2551.4351-.2551h4.4097c.1802,0,.4053,0,.4053.2551,0,.2249-.1353.2249-.6899.2249-.4502,0-1.0952.0149-1.29.6899-.0601.21-.0601,3.585-.0601,4.2749,0,3.9749,0,3.9897.0449,4.2297.1353.78.6748.78,1.6802.78.0747,0,.3149,0,.3149.24s-.2251.24-.4053.24h-4.4248Z"/>
      <path class="b" d="M347.2422,77.7634c0,.0149.9746,2.3699.9746,2.5349s-.1499.27-.2847.27c-.1353,0-.165-.0449-.48-.48-1.2749-1.8-2.6099-2.01-3.2402-2.01-2.3545,0-3.5698,2.8799-3.5698,5.4749,0,3.4797,2.04,4.8447,3.8252,4.8447,1.0498,0,2.25-.45,3.2397-2.1299.3447-.585.3447-.5999.4648-.5999s.2251.105.2251.24c0,.1348-.375.9148-.855,1.5149-1.2598,1.5598-2.8496,1.6648-3.5249,1.6648-3.1646,0-4.71-2.5649-4.71-5.5046,0-3.51,2.1753-5.9998,4.71-5.9998.375,0,.8101.0601,1.2749.1799.105.0449.8101.24.8999.24.1201,0,.3003-.0449.4053-.1499.2397-.24.27-.27.3896-.27.0903,0,.2104.0898.2554.1799Z"/>
      <path class="b" d="M361.4365,92.603c-.1499,0-.7246-.0249-.7246-.375,0-1.3247,1.5996-3.249,2.1743-3.9238,5.8984-7.0234,6.4233-7.6733,6.4233-10.0476,0-2.2246-1.6245-3.5242-3.3242-3.5242-1.4995,0-2.7993,1.0247-2.7993,2.0994,0,.075,0,.3999.25.75.3247.4749.5249.7498.5249,1.1997,0,.7249-.5996,1.3496-1.3496,1.3496-.8496,0-1.4248-.7498-1.4248-1.6997,0-2.1243,2.1997-4.5237,5.374-4.5237,2.6992,0,4.9985,1.7495,4.9985,4.6987,0,2.5745-1.5747,3.999-3.6992,5.7737-3.7739,3.1492-5.1235,5.4736-5.1235,5.9485,0,.375.7998.375.8999.375h2.5742c2.5244,0,3.9741-.7,4.6738-2.3496.3999-.9248.3999-.9497.5498-.9497.25,0,.25.2998.25.3499,0,.2-.7998,3.4243-.9248,3.949-.2251.8999-1.0996.8999-1.4995.8999h-7.8232Z"/>
    </g>
    <line class="c" x1="281.0972" y1="108.9246" x2="380.2877" y2="108.9246"/>
  </g>
  <g>
    <g>
      <path class="d" d="M540.5156,148.8794v3.0078h-8.4155c-.0957.7678-.1597,1.2158-.2241,1.6318h13.1831v3.1038h-11.0708c3.2314,3.1677,7.3594,4.5117,10.9111,5.0237-.9922,1.1519-1.4722,1.9839-2.1118,3.5198-2.2402-.448-8.2554-2.1758-12.5435-7.3596-2.3037,3.8718-7.0073,6.3677-11.999,7.4236-.416-1.0559-1.376-2.6558-2.1118-3.4558,3.1357-.416,8.1597-1.5359,10.4634-5.1516h-10.6235v-3.1038h11.9033c.1602-.6399.1919-1.0879.2559-1.6318h-7.8394v-3.0078h7.9995c.0322-.6399.0322-.8.0322-1.6958h-8.6396v-1.0559h-3.5195v-7.4556h12.0308v-2.8159l4.2559.1602c.1602,0,.7041,0,.7041.384,0,.2878-.1602.3518-.7358.6399v1.6318h12.0947v7.2954h-3.2314v1.2161h-8.9917c0,.512,0,.6399-.0317,1.6958h8.2554ZM528.3247,141.7759h-8.3516v2.3999h8.3516v-2.3999ZM532.292,144.1758h8.4478v-2.3999h-7.8398c.1284.0959.2241.1919.2241.3201,0,.2239-.6079.448-.832.512v1.5679Z"/>
      <path class="d" d="M564.9644,145.0396c-.7041,1.376-1.1201,2.144-2.272,4.0317-1.376-.96-1.8237-1.1838-3.1997-1.8237.5439-.7041.96-1.28,1.5039-2.24h-2.0796v5.3118c2.4956-.7681,2.7515-.864,3.5835-1.1521-.416,1.5681-.416,2.0801-.5117,3.8079-.4482.1919-2.624.928-3.0718,1.0559v11.0713h-3.8721v-9.7915c-1.1519.416-2.9438.96-3.7437,1.1841-.1279.448-.3198.96-.6719.96s-.4478-.512-.5122-.864l-.6719-3.7756c1.1201-.1921,4.2559-1.0239,5.5996-1.408v-6.1755h-1.9199c-.4478,1.8557-.7998,2.9116-.96,3.4238-.8315-.448-2.0156-.96-3.4556-1.1841,1.2158-3.1677,1.792-5.9194,1.9199-9.4392l3.4556.3198c.2881.032.6724.0642.6724.3521,0,.3521-.5444.5439-.8643.6719-.0317.1921-.064.416-.2881,2.4319h1.4399v-5.9836l3.8398.1921c.2559,0,.7998.032.7998.384,0,.2878-.4478.512-.7676.6399v4.7676h2.3354v2.7197c1.8242-3.3276,2.752-7.3914,3.04-8.8633l3.7754.8c.416.0959.8003.1599.8003.448,0,.3518-.4482.4478-.9922.512-.3838,1.4397-.7676,2.5918-1.3438,4.0637h11.6792c.0317,9.8872-.1602,17.1506-1.4077,20.4143-.7363,1.9199-1.8882,2.9758-6.8159,3.0078-.3516-1.7917-.5117-2.3037-1.6636-4.2556.96.1599,1.9517.1919,2.9116.1919,1.6641,0,2.0479-.48,2.5601-3.3596.2559-1.344.5757-3.6477.7036-10.0474-1.1196,3.8718-2.8799,7.5835-5.1514,10.9431-1.9521,2.8799-3.4561,4.4797-6.2397,6.5276-.96-1.1838-1.5679-1.6638-3.0078-2.5918,2.752-1.6638,8.3516-6.1755,11.3594-17.2788h-1.7598c-1.1841,4.4478-3.8721,9.9514-7.4238,13.3752-1.0557-1.2161-1.4077-1.5039-2.8794-2.5278,4.7993-4.2878,6.0474-8.5435,6.7192-10.8474h-1.1519Z"/>
      <path class="d" d="M599.8442,151.5671h12.3833v3.7437h-12.3833v9.9514h-4.2554v-9.9514h-12.5112v-3.7437h12.5112v-10.7832h-11.1992v-3.6477h26.5259v3.6477h-11.0713v10.7832ZM589.9893,141.9358c1.4077,2.144,2.8154,5.2478,3.5518,7.3276-.6084.2239-3.2002,1.3757-3.7119,1.6318-.5122-1.5039-1.8237-4.9277-3.52-7.4875l3.6802-1.4719ZM608.9639,142.8958c.2236.0959.6396.2241.6396.5759,0,.3521-.416.384-.9277.416-1.1841,3.2639-2.0161,5.0876-3.168,7.2634-.6079-.2878-3.1675-1.3118-3.8076-1.5359,1.0562-1.8877,2.8159-5.7915,3.2959-8.1594l3.9678,1.4399Z"/>
      <path class="d" d="M644.4512,136.9124v7.3594h-21.9502c-.1924,9.2153-.2881,15.5828-3.0078,21.1184-.896-.48-1.8242-.864-3.8398-1.2478,2.4956-4.6077,3.0718-8.7354,3.0718-20.1267v-7.1033h25.7261ZM635.2036,156.0789h7.2637v3.0078h-7.2637v2.1118h10.3037v3.0718h-23.1025v-3.0718h8.8633v-2.1118h-7.5513v-3.0078h7.5513v-2.0479c-1.0557.064-5.6636.2881-6.6235.3521-.1602.2239-.3521.512-.6401.512-.2559,0-.4478-.3201-.4795-.6082l-.4482-3.0076c.3838,0,3.168-.032,3.7437-.0642.9282-1.4397,1.312-2.1118,1.6318-2.6877h-5.3433v-2.8157h22.27v2.8157h-5.0234c2.4639,2.208,3.2959,2.9438,4.7036,4.7678-.96.48-2.3677,1.9197-2.8477,2.5918-.3843-.6721-1.2798-1.6321-1.9839-2.4319-.6401.064-1.856.1599-4.3838.3201.0962.064.2241.1599.2241.3518,0,.3521-.2881.416-.8643.6079v1.344ZM622.501,139.728v1.792h18.0786v-1.792h-18.0786ZM636.5479,148.5273h-3.3921c.0322.384-.2876.448-1.0557.5759-.416.6721-1.0562,1.696-1.2798,2.0479,1.8237-.0959,4.7354-.1919,6.8794-.3518-.5762-.48-.7041-.6082-2.0801-1.6321l.9282-.6399Z"/>
      <path class="d" d="M498.3198,197.127c5.4604,0,10.1509-1.155,10.8159-1.2952.4551-.105,2.3101-.875,2.7305-.875.2798,0,2.9053.5251,2.9053,1.7153,0,.77-.9102.9451-2.2402,1.05-3.7808.3499-5.7759.5249-6.0557.6301-.2451.0698-.3501.3499-.3501.4199,0,.385.5601.875.665.98.4902.4551.665.5952.665.8752s-.5952,1.26-.665,1.5051c-.105.3149-.21.6301-.21.8052,0,.4551.2798.6299.7349.6299.9453,0,5.7407-.77,6.791-.98.3496-.0701,1.8198-.4202,2.1353-.4202.6299,0,3.4653.8052,3.4653,2.8354,0,.4199-.3853.6301-.7002.6301-.1753,0-2.2402-.4202-2.6602-.4902-.5952-.105-1.5405-.2449-2.9756-.2449-2.52,0-6.2656.5601-6.6509.7351-.4546.21-.4897.7-.4897,1.3999,0,4.4805.5249,5.0056.9448,5.4258,1.1904,1.2251,4.3408,1.3301,4.7256,1.3301.4551,0,2.5205-.3149,2.9404-.3149.7349,0,2.2402.6299,2.2402,1.54,0,1.3652-2.8701,1.3652-3.9556,1.3652-.9448,0-4.0952,0-6.6855-1.0852-1.9604-.8052-2.3452-2.2402-2.3452-4.5854,0-.1401.0698-3.1853.0698-3.7805s-.1748-.875-.7349-.875-5.0405.9102-6.6157,1.4702c-.2803.105-1.5054.6299-1.7852.6299-.875,0-3.4653-1.925-3.4653-2.7302,0-.0701.0352-.21.21-.21s1.3301.1399,1.5752.1399c1.5752,0,8.3657-.9451,10.1162-1.2949.665-.1401.875-.3853.875-1.2251,0-2.0303-.0352-3.9905-1.3301-3.9905-.3853,0-3.0454.4551-3.1504.4551-.77,0-2.5205-1.4702-2.5205-2.1003,0-.0701.0703-.1399.105-.1399.1401-.0352.7354.0698.8755.0698Z"/>
      <path class="d" d="M539.5864,205.178c0,.2449-.8398.9099-.9448,1.085-.105.1401-1.4351,3.3604-1.7505,3.9556-3.3604,6.7556-8.8208,8.9958-9.2759,8.9958-.1401,0-.21-.0701-.21-.175s1.5752-1.5051,1.855-1.7502c5.7759-5.5305,6.8608-12.7063,6.8608-13.1963,0-.4202-.0698-1.05-.8398-1.05-.9102,0-4.1304.7-5.5659,1.05-.3848.105-2.1353.6301-2.52.6301-1.7505,0-2.7651-1.8901-2.7651-2.6604,0-.21.0698-.3499.2446-.3499.0703,0,.4551.1399.5254.1748.4897.1401,1.54.2451,2.2051.2451,2.2402,0,11.3062-.98,13.7563-1.3301.4199-.0701,2.2402-.6301,2.6255-.6301.4199,0,4.4102.77,4.4102,2.2053,0,.6299-.5601.8401-1.0151.8401-.3848,0-2.1001-.28-2.4502-.3152-.7349-.0698-1.7148-.175-2.4854-.175-1.1899,0-3.29,0-3.5352.1052-.2451.1399-.3149.3499-.2451.5249.0352.105,1.1201,1.5051,1.1201,1.8203ZM531.8159,194.8867c1.085,0,1.4697-.105,4.9702-.875.9102-.21,2.0303-.4202,2.8003-.4202.7354,0,1.9951.1401,1.9951,1.1553s-.5947,1.085-2.6602,1.2952c-1.7852.21-4.1304.665-4.6553.77-.1753.0349-1.54.3149-1.6455.3149-1.7148,0-2.8003-2.4502-2.625-2.5203,0,0,1.54.28,1.8203.28ZM550.5776,198.5623c0,.5249-.4199,1.3301-1.0498,1.3301-.4902,0-.8052-.28-1.7856-1.6101-.4199-.5601-.7349-.9102-2.3799-2.1702-.1401-.1052-.4902-.4202-.4902-.5601,0-.1401.3149-.2803.5952-.2803,3.1504,0,5.1104,2.0654,5.1104,3.2905ZM553.6582,195.1318c0,.4202-.2803,1.05-.9102,1.05-.7354,0-1.1904-.595-1.7852-1.4001-.4551-.665-1.8203-1.645-2.9404-2.1353-.3501-.1399-.4199-.28-.4199-.385,0-.3501,1.0498-.3501,1.2949-.3501,1.8901,0,4.7607,1.1902,4.7607,3.2205Z"/>
      <path class="d" d="M563.0703,206.928c-2.1001,4.5505-5.7754,6.6509-6.4756,6.6509-.1401,0-.1753-.105-.1753-.175,0-.28,1.1201-1.5051,1.4004-1.8552,3.8506-5.2856,4.2354-9.1011,4.2354-10.2561,0-.9102-.0352-1.2952-.5952-3.0103-.0698-.2451-.1396-.4551-.1396-.6301,0-.105.0347-.175.1748-.175.2451,0,3.9556,1.1902,3.9556,2.9753,0,.105-1.7852,5.1455-2.3804,6.4756ZM568.7407,210.1833c0-.175.1753-1.085.21-1.26.1055-.665.1401-3.4304.1401-4.3054,0-4.2705-.4199-5.7056-.665-6.5808-.0698-.175-.4551-1.0852-.4551-1.26,0-.1401.1401-.175.21-.175.1753,0,3.8506.6301,3.8506,2.4502,0,.4202-.4902,2.2402-.5601,2.6252-.1401.9451-.2803,5.1807-.2803,6.3357,0,.4551.0352,1.155.6655,1.155,1.0498,0,4.27-2.3101,7.6304-5.7056.5952-.595,3.5708-3.7454,3.7104-3.7454.0703,0,.1401.0701.1401.1401,0,.28-2.0303,4.6204-8.1558,10.011-1.8203,1.5752-2.1704,1.9253-2.4155,2.2402-.5947.665-.9097.9102-1.1548.9451-1.0151.175-2.8706-1.8901-2.8706-2.8704Z"/>
      <path class="d" d="M594.8853,199.2622c-.21-.3149-.2451-.385-.2451-.49,0-.175.1401-.21.3154-.21,1.855,0,4.4453,2.0652,4.4453,2.9753,0,.3149-.1753.4199-.6299.7351-.5254.3149-.7354.665-1.4355,1.645-4.2354,6.0557-10.1157,8.261-10.606,8.261-.21,0-.2798-.175-.2798-.2451,0-.1399.105-.2451.98-.9451,5.3906-4.4805,7.8408-9.311,7.8408-10.571,0-.4902-.0703-.6653-.3853-1.1553ZM605.6313,199.0173c.1753,0,1.7505.6299,3.5005,1.8201,2.4854,1.7151,5.6357,5.0056,5.6357,7.3508,0,.5249-.21,2.0303-1.7505,2.0303-1.2598,0-1.855-1.2603-2.415-3.0803-.7354-2.3455-1.2954-3.7454-3.6406-6.2307-.2446-.2451-1.5752-1.4702-1.5752-1.5752-.0347-.1401.0352-.3149.2451-.3149Z"/>
      <path class="d" d="M629.1519,198.4922c.8052-.175.8052-.5251.8052-1.4351,0-1.6802-.0703-2.2754-.3501-2.7654-.1401-.2451-1.0151-1.2251-1.0151-1.5051,0-.3152.8398-.3501,1.085-.3501.5601,0,.98.0349,2.4854.9102.7349.4199.8403.49.8403.9451,0,.175-.3501.9102-.4204,1.05-.1748.385-.21,1.3303-.21,1.7502,0,.595.1401,1.1201,1.0151,1.1201.8052,0,3.3955-.105,4.1304-.3501.2451-.0698,1.4004-.7,1.6802-.7.3501,0,3.0454,1.645,3.0454,2.3103,0,.3499-.1401.49-.3501.665-.6299.4551-.7002.5249-.8398.98-1.0503,2.9753-3.8506,10.8511-11.3062,15.8218-1.9956,1.3301-3.8506,2.03-4.0957,2.03-.105,0-.21-.0698-.21-.1399s.0352-.1401.2798-.28c1.2256-.8401,2.3804-1.7502,3.5005-2.7654,7.561-6.6855,8.9961-14.8765,8.9961-15.2966,0-.7351-.5952-.7351-1.085-.7351-3.1157,0-8.2612.3152-9.9062.5251-2.6255.3501-2.6255.6301-2.6255,1.1902,0,.105.1401,1.3652.1753,1.54.3149,2.7305.4902,3.8506.4902,5.3206,0,.6653,0,1.7854-.8052,1.7854-.875,0-1.4351-1.1553-1.5752-2.2053-.0352-.175-.0352-2.5203-.0352-2.8003,0-2.1003-.665-4.5505-1.9253-6.2656-.1396-.2102-.4199-.5952-.4199-.8052,0-.28.6299-.4551,1.2251-.4551.7354,0,1.2954.2102,1.9253.5952.875.5601,1.1553.7,1.6802.7.5601,0,3.0801-.2451,3.8154-.385Z"/>
      <path class="d" d="M661.2119,198.1421c-.2451,0-7.5957,1.7153-7.771,1.7852-.2451.0701-1.3301.6653-1.5752.6653-.5249,0-2.1699-1.0503-2.3799-1.2603-.2451-.2451-.8403-1.7852-.8403-2.0303,0-.175.0352-.28.21-.28.0352,0,.8052.2102.9102.2451,1.085.3149,1.5054.3501,1.8555.3501,1.1899,0,7.7705-.5601,9.5908-1.2952.3149-.1401,1.6104-1.0852,1.9253-1.0852.8398,0,2.9751,1.7852,2.9751,2.6604,0,.3149-1.2949,1.26-1.5049,1.5051-.7002.8401-3.4653,4.9355-4.0254,5.7405-.1401.175-.2803.4202-.2803.7002,0,.3149.0698.385,1.54,1.1899,1.5752.9102,7.8408,4.4456,7.8408,7.6309,0,.8052-.6299,1.5403-1.4351,1.5403s-.9448-.2451-2.1699-2.4153c-2.4155-4.2354-5.4956-6.8958-6.2661-6.8958-.3496,0-.4546.105-1.2251.9802-1.2251,1.2949-4.7954,5.2153-9.3457,7.4907-.9453.4551-1.8901.8049-2.1704.8049-.0698,0-.2451,0-.2451-.21,0-.1399,1.4004-1.155,1.6104-1.2952,9.1357-6.6157,13.3013-15.6816,13.1963-16.2417-.0698-.28-.3501-.28-.4199-.28Z"/>
      <path class="d" d="M506.1792,242.2861c.665,0,.9805.2102.9805.7351s-.2803.77-.9805.77h-8.3657c-.9448,0-.9448.2102-.9448,4.4106,0,3.9204.0347,21.3171.0347,24.8875,0,.8052-.1748,1.1201-.7349,1.1201-.77,0-.77-.2449-.77-2.3101v-28.178c0-.9802.5601-1.4353,1.5049-1.4353h9.2759Z"/>
      <path class="d" d="M511.811,256.5327c-.105-.1399-.1748-.21-.1748-.28s.105-.0701.1396-.0701c.7002,0,4.2007.2451,5.0059.2451s1.0151-.175,1.2949-.49c.1753-.2102.9102-1.5054,1.2251-1.5054.1401,0,2.2402,1.9253,2.2402,2.3455,0,.21-.7349.9099-.875,1.085-.3149.5601-.3149,3.6404-.3149,4.5505,0,2.7654,0,4.4805,2.2402,6.0906,1.5752,1.1553,3.9204,1.6453,10.5361,1.6453,2.1001,0,4.0254,0,7.9106-.385.4551-.0352,2.7305-.4202,2.9404-.4202.0698,0,.3853,0,.3853.21,0,.0701-.3501.4902-.4204.5952-.5249.595-.5601.7-1.2598,2.2751-.1753.4202-.3501.4202-1.9956.4202-2.9399,0-10.8159-.105-13.5112-.6301-4.0952-.8052-5.0757-2.4153-5.9507-3.8855-1.0151-1.7852-1.1553-1.9951-1.5049-1.9951-.3154,0-.5601.175-.7002.3149-.5254.4551-.8403.8052-3.5703,4.0955-.2451.28-1.1553,2.0303-1.5405,2.0303-.3496,0-2.1699-2.5903-2.1699-2.6604,0-.385.1401-.4199,1.4702-.875,1.2251-.385,4.0952-2.3801,4.3052-2.6602.3853-.4551.4204-.4551.4204-8.156,0-1.085-.3853-1.085-1.9253-1.085-.5254,0-3.1504.175-3.2207.175-.1396,0-.1748-.0701-.3149-.2102l-.665-.77ZM519.3721,246.6267c.665.8401.98,1.8901.98,2.5552,0,.8752-.7002,1.5403-1.2949,1.5403-.8052,0-1.2954-.9102-1.7153-1.6453-.7354-1.3652-2.1704-3.3604-4.3057-5.2505,0-.0352-.4199-.385-.4199-.4551,0-.1401.21-.1401.3149-.1401.1401,0,.3501.0352.4902.0701,2.9404,1.05,4.7256,1.7153,5.9507,3.3254ZM537.0488,254.0825c-1.0503,0-1.0503.6301-1.0503,1.365,0,1.6802.1401,9.9761.1401,11.8662,0,.8052-.1401,1.6802-1.6104,1.6802-.875,0-1.085-.2798-1.085-.9099,0-.3152.2803-7.0708.2803-8.4009,0-.4202-.1401-4.8306-.1753-5.0056-.1748-.595-.5952-.595-.98-.595h-3.3252c-.4902,0-1.1201,0-1.1553.9451-.0698,1.2251-.105,2.7651-.2451,3.9204-.7349,6.3005-4.7256,8.9258-4.9707,8.9258-.1396,0-.1748-.1399-.1748-.21,0-.28.9102-1.54,1.085-1.8201,2.0654-3.6755,2.0654-8.1909,2.0654-13.0564,0-1.7153,0-4.1655-.21-5.7407-.0703-.2449-.3853-1.4001-.3853-1.6802,0-.1399,0-.49.4199-.49.3501,0,.5601.1401,1.4004.595.8398.4551,1.2251.4902,1.4702.4902,1.085,0,8.1206-2.2402,9.626-3.2205.1401-.105.77-.6301.9448-.6301.4551,0,3.0107,2.1704,3.0107,2.5903,0,.5251-.8403.5251-1.9956.5251-.3501,0-.98-.0349-1.7852.1399-1.645.3152-2.9399.6301-8.2256,1.1553-1.4351.1399-1.6104.1399-1.7852.3501-.2451.2449-.2451.7349-.2451,5.2505,0,.665.1748,1.05,1.1201,1.05h7.2808c1.1899,0,1.6802,0,2.1353-.3501.2798-.175,1.2949-1.6802,1.6802-1.6802.3848,0,3.0801,2.1003,3.0801,2.4854s-.3149.4551-1.855.4551h-4.4805Z"/>
      <path class="d" d="M549.7163,251.9124c3.0454,0,5.0054,1.26,5.0054,2.9053,0,.9099-.5249,1.365-1.1899,1.365-.4902,0-.6304-.1399-1.7852-1.47-.105-.1052-1.7153-1.8904-2.9053-2.3103-.105-.0701-.3501-.1401-.3501-.2102,0-.2798.9102-.2798,1.2251-.2798ZM551.1514,264.8987c1.8901-.7351,5.9858-11.7612,6.4058-11.7612.0698,0,.105.105.105.1399,0,.49-2.0303,7.1409-2.4502,8.5059-.7002,2.2754-1.0151,3.8855-1.0151,5.0757,0,.9099.0352,1.155.8052,3.3953.105.3501.1748.7002.1748,1.05,0,.7351-.2451,2.0303-1.4702,2.0303-1.4351,0-1.6099-1.5403-1.645-2.1353-.3149-3.7803-.3853-4.4456-2.5205-5.4604-.0698-.0352-.665-.3501-.665-.385,0-.175,1.9253-.3152,2.2754-.4551ZM551.2563,242.4612c2.2402,0,5.4604,1.3301,5.4604,3.8506,0,.9099-.875,1.2949-1.2949,1.2949-.8403,0-1.1201-.4551-1.9253-1.9951-.21-.385-.6299-1.2251-2.415-2.7654-.0703-.0698-.1753-.175-.1401-.28.0352-.0698.2451-.105.3149-.105ZM574.604,270.4641c1.54,0,1.7148,0,2.0649-.385.2451-.28,1.2954-1.8901,1.6455-1.8901.4199,0,3.1152,2.1702,3.1152,2.7302,0,.385-.4204.4551-1.8901.4551h-16.6968c-2.1353,0-3.4653.0349-4.4458.105-.105,0-.6299.0701-.7349.0701s-.21-.105-.3149-.21l-.665-.8052c-.1401-.1399-.1401-.175-.1401-.2451,0-.0349.0352-.0698.105-.0698.2451,0,1.3301.105,1.54.105,1.7153.105,3.1504.1399,4.7954.1399h3.0806c.3149,0,.875,0,1.0151-.5601.0698-.21.3149-8.4707.3149-17.8518,0-.6301,0-4.9705-.0698-5.1804-.105-.3853-.4902-.5601-.9805-.5601h-1.5049c-2.7651,0-3.9204,0-4.3057.0698-.1396,0-.5947.105-.6997.105-.1055,0-.2451-.0698-.3501-.21l-.665-.8052c-.105-.105-.1753-.21-.1753-.2449,0-.0701.0703-.105.1401-.105.2451,0,1.2949.1399,1.54.1399,1.7153.105,3.1504.105,4.7954.105h7.5962c1.645,0,1.8198,0,2.2402-.595,1.0498-1.5752,1.1899-1.7502,1.5049-1.7502.4902,0,2.8706,2.1704,2.8706,2.7654,0,.5251-.6655.5251-1.8906.5251h-6.4404c-.4199,0-.8052.105-.9453.5249-.1396.385-.21,9.9412-.21,13.7915,0,5.1106.0352,8.9958.0352,9.1008.0698.5251.5249.7351,1.0151.7351h3.7104Z"/>
      <path class="d" d="M599.313,248.0618c0,.105.0703.2451.0703.385.1401,1.1201.3501,2.2402.3501,3.7805,0,2.3452-.5254,5.6006-3.6055,10.2561-2.8003,4.2703-4.5854,5.1106-5.9858,5.1106-2.3101,0-4.3755-3.6055-4.3755-7.876,0-1.8552.3853-5.3906,3.8857-8.9258,4.4453-4.5505,9.1357-4.5505,11.166-4.5505,3.1855,0,4.6553.6301,5.6357,1.1201,3.7803,1.8552,6.0903,5.6006,6.0903,10.186,0,4.5505-2.625,10.1511-8.8208,12.3213-2.9751,1.05-5.2856,1.2952-5.8105,1.2952-.1401,0-.3501-.0352-.3501-.2451,0-.105.0698-.1399.9453-.49,3.6401-1.4353,11.2358-4.4456,11.2358-13.1614,0-1.3652-.1396-9.696-9.6958-9.696-.7002,0-.7354.28-.7354.49ZM587.937,258.8079c0,2.2754.9102,5.3906,3.0454,5.3906,1.0151,0,1.855-.4199,4.2705-4.0603,1.855-2.8354,3.4302-6.7207,3.4302-10.1863,0-2.1001-.1401-2.2751-.5952-2.2751-3.3252,0-10.1509,4.5154-10.1509,11.1311Z"/>
      <path class="d" d="M623.1821,247.6418c-.4551,0-.7354.0698-.9102.8049-.21.8752-.8403,3.6404-2.5903,3.6404-.7349,0-1.5054-.49-1.5054-1.4351,0-.77.4551-1.1201,1.4004-1.8552,1.1899-.9102,1.855-2.1702,2.3804-3.5354.0347-.1399.105-.28.1748-.385.105.175.0698.595.105,1.1201.0352.7002.4902.7002,1.0151.7002h8.2959c.8403,0,.98-.2451.98-1.1201,0-1.5051-.0698-1.8203-.1396-2.0652-.0352-.1401-.3154-.8052-.3154-.9453,0-.28.2451-.3499.4551-.3499.0703,0,3.4307.385,3.4307,1.0149,0,.175-.6304.7351-.7354.8752-.1401.2449-.2451.77-.2451,1.365,0,1.0503.21,1.2253,1.0151,1.2253h6.896c.875,0,1.4351-.0352,2.0649-.8401.5601-.7351.665-.7351.8052-.7351.2803,0,.4902.1399,2.2051,1.54.4902.4202.7354.6301.7354,1.1553,0,.98-.7354,1.05-1.8555,1.155-.98.105-2.0298.6301-2.9751,1.2952-.2451.175-.7002.5251-.8403.5251-.105,0-.21-.1401-.21-.2102,0-.175.2451-.4551.4551-.8049.5952-.9453.665-1.5054.665-1.6453,0-.49-.4897-.49-.8047-.49h-19.9521ZM635.6782,252.7874c-.2798,0-.6299,0-.6299.4199,0,1.2251,3.2202,7.491,4.2002,7.491,1.0854,0,3.8154-4.4456,3.9556-4.9006.0698-.175.1748-1.155.3501-1.155.0352,0,3.1504,2.03,3.1504,2.5203,0,.3149-.4902.385-.9453.4551-.6299.105-.8052.21-2.1353,1.26-.5249.385-2.9053,1.8901-3.3604,2.2402-.1748.105-.3501.28-.3501.5251,0,.28,3.0103,3.8853,8.436,6.0557.3853.1399.9102.3499,1.1201.5249-.4551.1401-1.2949.4902-1.5054.665-.3496.28-.9448.9453-1.1899,1.3303-.105.175-.1748.2449-.3149.2449-.1753,0-3.5005-1.9602-6.3008-5.1804-4.0605-4.6907-5.1455-9.0659-5.7407-11.5513-.0698-.3149-.1748-.7351-.4897-.7351-.2451,0-.3501.105-1.5752,1.2251-.2803.2451-1.7153,1.2251-1.7153,1.5403,0,.21.105.28.8403.8049,5.0752,3.6755,5.0752,9.696,5.0752,10.5012,0,4.0254-1.8901,6.4407-4.5503,6.4407-.5249,0-.5601-.105-.8052-.9102s-1.3999-1.26-3.0801-1.8901c-.5952-.2451-.665-.2451-.665-.3501s.1748-.105.21-.105c.2798,0,1.6099.175,1.8901.21.665.0701,1.7852.105,2.2402.105.7002,0,1.1899-.0349,1.7852-1.1899.2798-.5601.5249-1.5403.5249-2.8704s-.21-2.3103-.665-2.3103c-.105,0-1.0151.8401-1.1553.9451-5.4604,4.8655-11.8311,5.9158-11.8662,5.9158-.0698,0-.1396,0-.1396-.0701,0-.0349.875-.5251,1.0151-.595,4.27-2.4504,7.3506-4.2007,11.0259-8.436.2803-.3501.665-.77.665-1.26,0-.2451-.3149-1.0151-.77-1.0151-.1401,0-.2451.0701-1.1201.8049-4.3755,3.7456-10.0811,5.5308-10.7109,5.5308-.0703,0-.1401-.0352-.1401-.0701,0-.0701,2.3452-1.4001,2.7651-1.6802,3.4653-2.2053,7.6309-5.7407,7.6309-6.8257,0-.3501-.4551-1.05-.9448-1.05-.1753,0-1.3306.77-1.5054.9099-3.4653,2.2754-8.3657,3.3604-8.436,3.3604-.0698,0-.1396-.0349-.1396-.105,0-.105.7349-.4551,1.2251-.7,5.7056-2.6953,8.9956-6.3008,8.9956-6.7559,0-.3149-.105-.3149-1.1201-.3149-2.415,0-3.6401.0349-3.9902.0701-.105.0349-.6299.105-.7354.105-.1396,0-.21-.1401-.3149-.2451l-.665-.8049c-.0698-.0701-.1401-.175-.1401-.2102,0-.0701.0352-.105.1055-.105.2446,0,1.3301.105,1.5752.1401,1.3999.0349,2.9751.105,4.3403.105h8.2607c1.3999,0,1.54,0,1.8203-.2451.2798-.28,1.3301-1.7151,1.645-1.7151.2451,0,2.8354,1.925,2.8354,2.4153s-.3501.49-1.2603.49h-6.5107Z"/>
      <path class="d" d="M655.6265,273.8596c-.665,0-.98-.2102-.98-.7351s.2798-.7703.98-.7703h8.3657c.9453,0,.9453-.21.9453-4.4104,0-3.9204-.0352-21.3171-.0352-24.8875,0-.8052.1753-1.1201.7354-1.1201.7349,0,.7349.2449.7349,2.3101v28.178c0,.9802-.5249,1.4353-1.4702,1.4353h-9.2759Z"/>
    </g>
    <g>
      <path class="b" d="M547.9214,77.8684c.8101,0,.9902,0,1.2451.675.1201.3298.7651,2.0249.7651,2.1748,0,.165-.1504.2251-.2402.2251-.1201,0-.165-.0601-.5098-.6301-.7954-1.3049-1.6802-1.95-2.7002-1.95-.585,0-.9448.2402-1.0347.75-.0454.27-.0454,3.6599-.0454,4.29,0,.4199,0,3.8848.0454,4.1396.1348.7651.8398.78,1.2446.78.5552,0,.6753,0,.6753.24s-.21.24-.4502.24h-4.1997c-.21,0-.4351,0-.4351-.24s.2397-.24.3301-.24c.8848,0,1.4399,0,1.5898-.78.0449-.24.0449-.2549.0449-4.2449,0-3.7048,0-4.1096-.105-4.3948-.1499-.405-.5552-.54-.96-.54-1.1997,0-2.085.9451-2.6997,1.9351-.3604.585-.3901.645-.5249.645-.1055,0-.2402-.0901-.2402-.2251,0-.1199.6748-1.9199.7949-2.22.2402-.6299.48-.6299,1.23-.6299h6.1797Z"/>
      <path class="b" d="M559.2163,89.0879c-2.895,0-4.9048-2.3699-4.9048-5.7446s1.9951-5.7598,4.9048-5.7598c2.8799,0,4.8896,2.3699,4.8896,5.7598,0,3.3599-1.9946,5.7446-4.8896,5.7446ZM562.6812,83.2083c0-1.3799-.3901-5.1299-3.4648-5.1299-3.3599,0-3.48,4.4099-3.48,5.3999,0,1.4399.4351,5.1147,3.48,5.1147,3.3447,0,3.4648-4.3647,3.4648-5.3848Z"/>
      <path class="b" d="M572.5513,77.8684c.5698,0,4.2749,0,4.2749,2.835,0,1.5598-1.2002,2.9248-3.8848,2.9248h-1.4404c-.4048,0-.4048.1201-.4048,1.26,0,2.7449,0,2.7598.165,3.0149.2397.345.6147.4199,1.0049.4199.3301,0,.5103,0,.5103.24s-.21.24-.4204.24h-3.7046c-.2251,0-.4351,0-.4351-.24s.2251-.24.375-.24c.5103,0,1.1548,0,1.3052-.78.0449-.24.0449-.2549.0449-4.2449,0-.7048,0-3.9148-.0449-4.1697-.1353-.72-.7803-.7651-1.1401-.7651-.375,0-.54,0-.54-.2397,0-.2551.21-.2551.4351-.2551h3.8999ZM572.6411,83.1333c1.98,0,2.7598-1.095,2.7598-2.3701,0-1.6499-1.2148-2.3999-2.5796-2.3999h-.645c-1.0801,0-1.0801.6602-1.0801,1.9651,0,.21,0,2.3398.0151,2.4749.0298.2251.1948.3301.3896.3301h1.1401Z"/>
      <path class="b" d="M580.9209,88.803c-.1948,0-.4199,0-.4199-.24s.1201-.24.7051-.24c.4351,0,1.1548,0,1.3047-.78.0454-.2549.0454-3.7048.0454-4.1396,0-.615,0-4.0049-.0454-4.2749-.1499-.7651-.6899-.7651-1.6797-.7651-.0898,0-.3301,0-.3301-.2397,0-.2551.2251-.2551.4351-.2551h4.4097c.1802,0,.4053,0,.4053.2551,0,.2249-.1353.2249-.6899.2249-.4502,0-1.0952.0149-1.29.6899-.0601.21-.0601,3.585-.0601,4.2749,0,3.9749,0,3.9897.0449,4.2297.1353.78.6748.78,1.6802.78.0747,0,.3149,0,.3149.24s-.2251.24-.4053.24h-4.4248Z"/>
      <path class="b" d="M597.4512,77.7634c0,.0149.9746,2.3699.9746,2.5349s-.1499.27-.2847.27c-.1353,0-.165-.0449-.48-.48-1.2749-1.8-2.6099-2.01-3.2402-2.01-2.3545,0-3.5698,2.8799-3.5698,5.4749,0,3.4797,2.04,4.8447,3.8252,4.8447,1.0498,0,2.25-.45,3.2397-2.1299.3447-.585.3447-.5999.4648-.5999s.2251.105.2251.24c0,.1348-.375.9148-.855,1.5149-1.2598,1.5598-2.8496,1.6648-3.5249,1.6648-3.1646,0-4.71-2.5649-4.71-5.5046,0-3.51,2.1753-5.9998,4.71-5.9998.375,0,.8101.0601,1.2749.1799.105.0449.8101.24.8999.24.1201,0,.3003-.0449.4053-.1499.2397-.24.27-.27.3896-.27.0903,0,.2104.0898.2554.1799Z"/>
      <path class="b" d="M621.3931,78.1316c0,1.4746-.8496,2.7993-2.2241,3.7991-.2002.125-1.2998.7249-1.2998.8748,0,.2249,1.1748.6248,1.3745.7498,1.1748.7249,2.5244,2.0496,2.5244,4.249,0,3.1992-2.7495,5.2737-5.8984,5.2737-2.4995,0-4.8989-1.3997-4.8989-3.3992,0-1.0247.6997-1.4995,1.4248-1.4995.8496,0,1.2246.6748,1.2246,1.1746,0,.2-.2251,1.1248-.2251,1.3247,0,.9248,1.0747,1.5996,2.2495,1.5996,1.9995,0,3.874-2.0244,3.874-4.449,0-2.3743-1.7246-4.5737-3.9238-4.5737-.125,0-.8252.0999-.9751.0999-.3745,0-.5498-.2249-.5498-.4998,0-.3.25-.5249.5752-.5249.1499,0,.8994.125,1.0747.125,1.6992,0,3.4238-1.5498,3.4238-3.9492,0-1.9243-1.1748-3.7739-3.1489-3.7739-1.3247,0-1.9995.8748-1.9995,1.5996,0,.125.125.7749.125.9248,0,.7498-.5752,1.3247-1.2749,1.3247-.7998,0-1.2495-.6748-1.2495-1.3247,0-1.1997,1.4746-3.3491,4.8735-3.3491,2.4746,0,4.9238,1.6746,4.9238,4.2239Z"/>
    </g>
    <line class="c" x1="531.3061" y1="108.9246" x2="630.4967" y2="108.9246"/>
  </g>
  <line class="e" x1="196.9434" y1="67.397" x2="196.9434" y2="309.293"/>
  <line class="e" x1="464.4407" y1="67.397" x2="464.4407" y2="309.293"/>
  <polyline class="f" points="95.2894 306.4971 84.823 316.9636 74.3565 306.4971"/>
  <polyline class="f" points="341.3244 306.4971 330.8579 316.9636 320.3915 306.4971"/>
  <polyline class="f" points="590.5904 306.4971 580.1239 316.9636 569.6575 306.4971"/>
</svg>