<?xml version="1.0" encoding="UTF-8"?>
<svg id="b" data-name="Layer 2" xmlns="http://www.w3.org/2000/svg" width="32.2464" height="33.1626" viewBox="0 0 32.2464 33.1626">
  <defs>
    <style>
      .d {
        fill: #fff;
      }
    </style>
  </defs>
  <g id="c" data-name="レイヤー 1">
    <path class="d" d="M9.2052,6.7054c1.0359,0,1.876-.8401,1.876-1.8766V1.876c0-1.0359-.8401-1.876-1.876-1.876-1.0365,0-1.8766.8401-1.8766,1.876v2.9528c0,1.0365.8401,1.8765,1.8766,1.8765Z"/>
    <path class="d" d="M23.0417,6.7054c1.036,0,1.876-.8401,1.876-1.8766V1.876c0-1.0359-.84-1.876-1.876-1.876s-1.8765.8401-1.8765,1.876v2.9528c0,1.0365.8401,1.8765,1.8765,1.8765Z"/>
    <path class="d" d="M27.7278,2.6742h-1.161v2.1546c0,1.9442-1.5814,3.5256-3.525,3.5256s-3.5255-1.5814-3.5255-3.5256v-2.1546h-6.786v2.1546c0,1.9442-1.5813,3.5256-3.525,3.5256s-3.5256-1.5814-3.5256-3.5256v-2.1546h-1.161C2.0231,2.6742,0,4.6972,0,7.1928v21.4512c0,2.4955,2.0232,4.5186,4.5186,4.5186h23.2092c2.4955,0,4.5186-2.0231,4.5186-4.5186V7.1928c0-2.4955-2.0232-4.5186-4.5186-4.5186ZM28.6902,27.8507c0,1.1546-.9394,2.094-2.094,2.094H5.6501c-1.1546,0-2.094-.9394-2.094-2.094V11.0678h25.1341v16.7829h0Z"/>
    <rect class="d" x="11.8955" y="24.0798" width="3.3157" height="3.3157"/>
    <rect class="d" x="11.8955" y="18.9402" width="3.3157" height="3.3156"/>
    <rect class="d" x="6.7564" y="24.0798" width="3.3156" height="3.3157"/>
    <rect class="d" x="6.7564" y="18.9402" width="3.3156" height="3.3156"/>
    <rect class="d" x="22.1743" y="13.8005" width="3.3156" height="3.3157"/>
    <rect class="d" x="17.0352" y="13.8005" width="3.3162" height="3.3157"/>
    <rect class="d" x="17.0352" y="18.9402" width="3.3162" height="3.3156"/>
    <rect class="d" x="22.1743" y="24.0798" width="3.3156" height="3.3157"/>
    <rect class="d" x="22.1743" y="18.9402" width="3.3156" height="3.3156"/>
    <rect class="d" x="17.0352" y="24.0798" width="3.3162" height="3.3157"/>
    <rect class="d" x="11.8955" y="13.8005" width="3.3157" height="3.3157"/>
    <rect class="d" x="6.7564" y="13.8005" width="3.3156" height="3.3157"/>
  </g>
</svg>