<?xml version="1.0" encoding="UTF-8"?>
<svg xmlns="http://www.w3.org/2000/svg" width="360" height="24">
  <defs>
    <clipPath id="a">
      <path fill="none" d="M0 0h360v24H0z"/>
    </clipPath>
  </defs>
  <g clip-path="url(#a)">
    <path d="M.57 19.7c2.72-3.81 4.42-9.24 5.08-16.3l2.64.45c-.84 7.59-2.67 13.54-5.49 17.87L.56 19.71ZM13.4 3.91l2.37-.9c2.35 5.56 4.19 11.38 5.53 17.48l-2.69 1.04c-1.5-7.18-3.24-13.05-5.22-17.62m6.53-2.71q.975 0 1.65.75c.39.42.59.92.59 1.51 0 .66-.25 1.22-.75 1.67-.44.39-.94.59-1.51.59-.68 0-1.23-.25-1.67-.75-.39-.44-.59-.95-.59-1.54q0-.975.75-1.65c.42-.39.93-.59 1.54-.59m-.05.97c-.84 0-1.27.43-1.27 1.29s.43 1.27 1.29 1.27 1.26-.43 1.26-1.29-.43-1.27-1.29-1.27m4.73 5.37h9.1v-5.2h2.42v5.2h8.24v2.33h-8.24c-.12 3.85-.71 6.59-1.76 8.22-.87 1.39-2.41 2.67-4.61 3.86l-1.99-2.03c1.99-.9 3.44-1.98 4.36-3.23.98-1.36 1.51-3.63 1.58-6.82h-9.1zm22.49-3.05 2.3-.99c.95 1.94 1.91 4.45 2.89 7.52l-2.35.95c-.95-3.04-1.9-5.53-2.85-7.48m3.07 15.36c4.13-1.16 7.19-3.03 9.19-5.62 1.82-2.35 3.04-6.07 3.66-11.18l2.75.38c-.6 3.43-1.23 6.02-1.9 7.77-1.39 3.62-3.66 6.44-6.82 8.47-1.4.89-3.24 1.7-5.51 2.44l-1.38-2.26Zm16.82-1.27h20.15v2.35H66.97zm1.67-14.82h16.72V6.1H68.64V3.76Zm20.7 4.98 1.87-.52a54 54 0 0 1 1.85 5.53l-1.94.59c-.5-1.9-1.09-3.77-1.78-5.6m3.48 11.54c3.76-1.16 6.31-2.94 7.63-5.33q1.56-2.82 1.74-7.59l2.17.2c-.27 3.16-.88 5.74-1.83 7.75-1.49 3.16-4.25 5.38-8.29 6.64zm1.9-12.65 1.92-.52a51 51 0 0 1 1.69 5.33l-1.9.61c-.5-1.94-1.07-3.75-1.72-5.42m13.58 5.69-1.94-1.65c2.74-2.24 4.65-4.88 5.74-7.91h13.33c-.48 4.86-1.57 8.61-3.25 11.23-2.46 3.84-6.36 6.32-11.72 7.43l-1.17-2.17c7.95-1.28 12.45-5.99 13.48-14.14h-9.1c-1.08 2.63-2.87 5.04-5.35 7.21m23.9 6.39c1.52-2.67 2.6-5.6 3.25-8.81l2.33.63c-.71 3.6-1.87 6.81-3.5 9.64l-2.08-1.47Zm.27-10.62V6.75h8.85V2.56h2.4v4.2h8.49v2.33h-8.49v13.03h-2.4V9.09h-8.85Zm14.21 2.51 2.26-.93c1.4 3.74 2.69 6.79 3.88 9.17l-2.3 1.11c-1.2-2.53-2.48-5.65-3.84-9.35m8.39-.45h19.15v2.39h-19.15zm35.86 8.13c-5.41.96-10.82 1.62-16.24 1.97l-.38-2.57 1.97-.14c2.35-5.04 4.31-10.24 5.89-15.58l2.73.38c-2.03 5.78-4.07 10.84-6.1 15.18 4.03-.26 7.8-.71 11.29-1.35-.98-2.08-2.01-4.09-3.1-6.03l2.33-1.11q3.36 6.3 5.19 11.16l-2.48 1.13q-.495-1.56-1.11-3.03m6.43-15.91h13.15l1.76 2.46c-.72 2.38-1.82 4.77-3.3 7.18 2.21 2.17 4.42 4.6 6.62 7.29l-1.99 1.87c-1.58-2.08-3.66-4.5-6.24-7.27q-3.84 4.14-9.48 6.96l-1.67-2.15c4.02-1.73 7.22-4 9.6-6.8 1.45-1.7 2.73-4.1 3.86-7.21h-12.31zm14.18-.84 1.22-.79c.92 1.22 1.76 2.49 2.53 3.82l-1.24.95c-.74-1.4-1.57-2.73-2.51-3.98m2.85-.68 1.24-.79c.81 1.1 1.57 2.23 2.26 3.39l-1.17.97c-.71-1.28-1.48-2.47-2.33-3.57m58.67 6c.56 1.7 1.39 3.21 2.48 4.54l-1.02 2.3a25.5 25.5 0 0 1-1.6-2.87V22.8h-2.12V12.59c-.68 1.7-1.42 3.18-2.24 4.43l-1.04-2.28c1.31-1.9 2.36-4.19 3.14-6.89h-2.69v-2.1h2.82V1.88h2.12v3.86h1.97v2.1h-1.83Zm2.73 2.96h5.08V7.6h-2.8c-.27.81-.62 1.64-1.06 2.46L274.93 9c.95-1.84 1.58-3.86 1.9-6.08l2.21.41c-.13.72-.29 1.45-.45 2.17h2.28V1.88h2.1v3.61h5.01v2.1h-5.01v3.21h5.85v2.1h-5.33c1.73 2.56 3.64 4.6 5.74 6.12l-1.45 2.03c-1.5-1.25-3.11-3.1-4.81-5.53v7.27h-2.1v-7.11a23.7 23.7 0 0 1-5.65 5.38l-1.49-1.79c2.68-1.56 4.9-3.69 6.66-6.37h-4.61v-2.1Zm23.96 1.96v5.85c1.61-.28 3.21-.61 4.79-.97v2.15c-3.37.87-7.21 1.62-11.52 2.24l-.59-2.3c1.79-.21 3.48-.44 5.06-.68v-6.28h-4.18v-2.12h10.25v2.12h-3.82Zm6.8-7.39h5.92v2.1h-5.87c.18 4.17.75 7.48 1.7 9.94.6 1.6 1.11 2.39 1.54 2.39.48 0 .9-.91 1.24-2.73l.23-1.17 1.99 1.42-.32 1.4c-.62 2.71-1.57 4.07-2.87 4.07s-2.52-1.23-3.55-3.68c-1.28-3.06-2.01-6.93-2.19-11.63h-11.83v-2.1h11.77V1.88h2.26v3.5Zm5.31-1.29-1.65 1.15q-1.065-1.305-2.28-2.55l1.67-1.06c.83.78 1.58 1.6 2.26 2.46m18.16 4.79v1.83h-9.76V8.88a29.7 29.7 0 0 1-4.38 2.71l-1.45-1.94c2.47-1.2 4.34-2.36 5.62-3.48 1.26-1.07 2.49-2.53 3.68-4.38h2.73c2.68 3.69 5.84 6.32 9.49 7.91l-1.35 2.01q-2.73-1.335-4.59-2.82m-6.57 6.43c-.68 1.69-1.42 3.28-2.21 4.79 2.98-.18 5.87-.38 8.67-.61-.77-.92-1.57-1.78-2.42-2.6l2.1-1.02c1.67 1.67 3.22 3.6 4.65 5.78l-2.1 1.26q-.495-.855-1.02-1.65c-3.69.5-8.55.96-14.57 1.38l-.59-2.35 2.78-.13a75 75 0 0 0 2.21-4.86h-5.4v-2.1h19.45v2.1h-11.56Zm6.26-6.71c-1.73-1.54-3.24-3.17-4.52-4.9-1.42 2.02-2.92 3.65-4.52 4.9zm12.09-6.73h2.26v3h2.87v1.67q-.84 2.19-2.19 4.29c1.2 1.29 2.42 2.35 3.66 3.16l-1.49 1.87q-1.44-1.29-2.76-2.73v9.65h-2.26V14.3c-.78.8-1.61 1.52-2.48 2.17l-1.11-2.01c2.65-1.85 4.68-4.34 6.08-7.47h-5.74v-2.1h3.16zm10.03 6.03V1.88h2.28v6.03h4.47v2.12h-4.47v10.21h5.33v2.1h-13.75v-2.1h6.14v-10.2h-4.67V7.92h4.67ZM219.05 21.05c1.24-1.67 2.83-4.95 3.55-6.98l1.56.97c-.43 1.29-1.85 4.93-3.71 7.6l-1.4-1.58Zm3.44-9.22c-1-.93-2.17-1.65-3.39-2.24l1.02-1.51c.9.43 2.35 1.24 3.53 2.24l-1.15 1.52Zm1.02-6.15c-1.4-1.2-2.8-1.9-3.48-2.24l1.02-1.47c1.45.66 2.44 1.29 3.55 2.15zm16.25 4.12c-1.27 3.62-2.51 6.1-4.63 10.17.48-.04 1.97-.22 2.94-.34-.23-.84-.54-1.83-.81-2.65l1.63-.41c.75 1.83 1.31 4.16 1.58 5.74l-1.76.45c-.09-.63-.16-1.02-.27-1.65-1.06.2-5.04.75-5.76.86l-.38-1.72c.14 0 .79-.07.93-.09.32-.61 1.65-3.34 1.92-3.91-.59-.81-2.17-2.71-3.55-3.89l.88-1.51c.43.38.54.5.72.66a31 31 0 0 0 1.74-4.95h-6.13c-.45 1.52-1.36 4.27-2.35 5.9 1 1.02 1.36 1.54 1.54 1.81 1.24-2.71 1.69-3.91 2.06-4.9l1.65.56c-1.15 3.05-3.78 8.23-4.91 10.17.7-.09 1.92-.23 2.92-.36-.27-1.22-.52-2.01-.75-2.76l1.56-.34c.9 2.51 1.33 5 1.45 5.67l-1.74.41c-.09-.79-.14-1.11-.23-1.52-1.11.23-4.32.75-6.26.95l-.32-1.7c.25-.02 1.29-.13 1.49-.16.88-1.49 1.79-3.32 2.26-4.32-.25-.36-1.99-2.58-3.59-3.93l.99-1.4c.34.29.45.41.72.63.72-1.45 1.36-3.44 1.72-4.72h-2.42V4.9h4.39c-.29-.93-.75-1.94-1.22-2.78l1.81-.52c.56 1.11.97 2.12 1.27 3.3h3.46c.56-1.15 1.13-2.82 1.31-3.3l1.97.36c-.25.63-.66 1.58-1.42 2.94h4.14v1.65h-3.62c-.11.43-1.09 3.91-2.28 6.19.86.93 1.24 1.45 1.56 1.85 1.24-2.69 1.83-4.43 2.15-5.31l1.67.5Zm14.4-6.56c-.27 4.88-.79 5.94-2.78 5.94h-2.31l-.27-1.74 2.31.02c.79 0 1.11-.05 1.29-2.69h-3.21c-.59 2.01-1.92 3.68-4.7 5.09l-.88-1.56c.72-.34 3.01-1.38 3.78-3.53h-3.55V3.23h3.93c.09-.59.14-.88.18-1.49h1.72c-.05.66-.07.93-.14 1.49h4.63Zm-10.4 17.99c4.14-.72 5.56-1.47 6.28-1.85l1.09 1.31c-1.97 1.06-4.29 1.67-6.62 2.12zm18.74-1.9h-16.57v-9.24h16.57zm-1.81-7.93h-12.93v1.33h12.93zm0 2.49h-12.93v1.38h12.93zm0 2.56h-12.93v1.49h12.93zm3.5-13.79v6.12h-8.43V2.66zm-5.88 16.7c2.28 1.08 4.05 1.51 6.46 1.78l-.84 1.72c-2.62-.45-4.61-1.08-6.76-2.17l1.13-1.33Zm4.14-15.23h-4.95v3.14h4.95z"/>
  </g>
</svg>