<?xml version="1.0" encoding="UTF-8"?>
<svg xmlns="http://www.w3.org/2000/svg" width="56.649" height="56.649" data-name="レイヤー 1">
  <path fill="#fff" d="M28.324 0C12.682 0 0 12.682 0 28.324S12.682 56.65 28.324 56.65 56.65 43.967 56.65 28.324 43.967 0 28.324 0m13.243 40.295c-.342.398-3.56 4.633-8.683 2.85-5.124-1.785-9.072-5.024-11.97-8.464-2.9-3.44-5.421-7.88-6.312-13.231-.888-5.351 3.83-7.804 4.282-8.074.45-.271 2.43-.74 3.319.581.886 1.322 2.469 5.35 2.609 6.321s-.877 2.047-2.046 2.269c-1.17.222-1.112.828-1.112.828s.65 2.364 4.48 6.908 6.048 5.586 6.048 5.586.586.16 1.005-.955c.416-1.115 1.649-1.936 2.582-1.632s4.634 2.545 5.787 3.643c1.152 1.1.354 2.971.01 3.37Z"/>
</svg>