<?xml version="1.0" encoding="UTF-8"?>
<svg xmlns="http://www.w3.org/2000/svg" width="313.539" height="27.198" data-name="レイヤー 1">
  <path fill="#231a16" d="M28.963 8.697c-2.91-1.277-6.375-1.93-9.677-1.93-3.3 0-6.765.653-9.675 1.93-2.842-1.277-6.31-1.93-9.61-1.93v-3.66h38.573v3.66c-3.302 0-6.767.653-9.611 1.93M0 26.479V8.727c2.485 0 5.035.49 7.258 1.275-2.485 1.602-4.283 3.825-4.283 6.571 0 5.231 4.84 6.571 6.669 6.571 1.83 0 6.667-1.34 6.667-6.57 0-2.747-1.83-4.97-4.313-6.572 2.256-.817 4.804-1.275 7.288-1.275s5.036.458 7.29 1.275c-2.484 1.602-4.315 3.825-4.315 6.571 0 5.231 4.838 6.571 6.67 6.571s6.668-1.34 6.668-6.57c0-2.747-1.798-4.97-4.282-6.572 2.22-.784 4.773-1.275 7.257-1.275V26.48zm4.936-9.906c0-2.123 1.833-4.117 4.708-5.59 2.908 1.438 4.708 3.467 4.708 5.59 0 3.596-3.433 4.61-4.708 4.61s-4.708-1.014-4.708-4.61m23.994-5.59c2.877 1.473 4.706 3.467 4.706 5.59 0 3.596-3.43 4.61-4.706 4.61s-4.707-1.014-4.707-4.61c0-2.123 1.798-4.151 4.707-5.59M66.264 13.6c0 4.607-1.21 13.597-10.852 13.597S44.561 18.24 44.561 13.599C44.56 9.153 45.672.001 55.412.001c9.642 0 10.852 8.99 10.852 13.598m-16.67 0c0 1.404 0 9.48 5.818 9.48 5.787 0 5.787-8.076 5.787-9.48 0-1.406 0-9.48-5.787-9.48s-5.819 7.944-5.819 9.48m34.294 12.879h-4.904V9.088h-5.492V5.492c2.746-.129 5.361-.458 6.505-4.773h3.89zm31.937-3.792v3.793H94.086c.36-5.558 2.944-7.29 11.017-12.65 4.806-3.204 5.49-4.087 5.49-6.048 0-2.748-2.679-3.629-5.065-3.629-4.904 0-5.82 2.942-5.983 5.916h-5.034C94.64 7.814 95.13 0 105.528 0c6.667 0 10.067 3.497 10.067 7.746 0 3.664-2.027 5.756-6.798 8.762-4.97 3.138-6.311 4.184-7.977 6.179zm24.877-9.086c0 4.607-1.21 13.597-10.852 13.597s-10.851-8.956-10.851-13.598c0-4.446 1.111-13.598 10.851-13.598 9.642 0 10.852 8.99 10.852 13.598m-16.67 0c0 1.404 0 9.48 5.818 9.48 5.787 0 5.787-8.076 5.787-9.48 0-1.406 0-9.48-5.787-9.48s-5.819 7.944-5.819 9.48m19.517 1.439h9.481v4.087h-9.481zm34.033 4.25c0 2.613-1.31 4.674-2.781 5.786-2.42 1.763-5.654 2.123-8.04 2.123-2.093 0-5.59-.294-8.075-2.123-1.504-1.146-2.779-3.173-2.779-5.786 0-4.97 3.988-6.212 5.198-6.571-1.177-.458-4.348-1.733-4.348-5.754 0-3.171 2.42-6.962 10.069-6.962 7.713 0 9.903 4.021 9.903 6.962 0 4.02-3.169 5.296-4.347 5.753 1.438.458 5.2 1.602 5.2 6.571m-16.64-.523c0 3.3 3.17 4.316 5.819 4.316 2.515 0 5.817-.95 5.817-4.316 0-2.027-1.437-4.315-5.818-4.315-4.413 0-5.819 2.288-5.819 4.315m.818-11.017c0 1.21.684 3.498 4.969 3.498 4.64 0 5.002-2.68 5.002-3.498 0-.425-.099-3.66-5.002-3.66-4.871 0-4.97 3.205-4.97 3.66M201.932.72v3.792c-3.563 2.485-6.277 7.877-7.027 9.546-2.19 4.837-2.484 9.087-2.648 12.421h-5.1c.36-12.782 8.533-20.953 9.61-21.967h-15.885V.72zm21.186 16.18h4.215v3.793h-4.215v5.784h-4.904v-5.784h-12.848V16.9L218.214.72h4.904zm-4.904 0V6.18l-8.532 10.72zm28.31-9.708c-.622-2.288-2.68-3.038-4.74-3.038-5.066 0-6.276 3.561-6.637 8.17.852-.817 2.713-2.647 7.423-2.647 6.373 0 9.446 3.79 9.446 8.5 0 5.588-4.315 9.02-10.394 9.02-5.92 0-11.279-3.53-11.279-13.368C230.343 1.506 238.45 0 241.753 0c.946 0 8.694.231 9.967 7.192zm-10.95 10.95c0 2.485 1.863 4.969 5.884 4.969 4.216 0 5.556-2.777 5.556-5.033 0-2.811-2.256-4.676-5.49-4.676-5.266 0-5.95 3.467-5.95 4.74m19.319-3.104h9.481v4.087h-9.481zM287.255.72v3.792H274.9l-1.275 6.635c1.602-1.273 3.792-1.733 5.819-1.733 5.361 0 9.284 3.302 9.284 8.5 0 2.027-.819 9.284-10.82 9.284-9.416 0-10.462-6.015-10.754-7.813h5.163c.687 3.66 4.577 3.66 5.623 3.66 3.956 0 5.785-2.32 5.785-4.968 0-1.961-1.145-4.805-5.558-4.805-3.038 0-4.346 1.046-5 1.601h-5.132L270.748.72zm9.777 17.195c.131 1.6.49 5.13 5.588 5.13.785 0 5.918 0 5.918-4.248 0-3.402-3.17-4.217-5.297-4.217h-2.253v-3.4h1.929c2.417 0 5.034-1.177 5.034-3.661 0-3.366-3.892-3.366-4.871-3.366-3.367 0-5.035 1.012-5.23 4.185h-5.1c.13-1.113.326-2.879 1.7-4.74C296.77.49 300.856.002 303.21.002c5.426 0 9.741 2.351 9.741 6.96 0 4.022-3.04 5.1-4.413 5.591 1.275.425 5.002 1.602 5.002 6.244 0 5.098-4.052 8.4-10.82 8.4-5.655 0-10.265-2.42-10.755-9.282z"/>
</svg>